faces.sfdir
StartChar: .notdef
Encoding: 0 -1 0
Width: 912
Flags: MW
LayerCount: 2
Fore
SplineSet
170 263 m 25,0,-1
 568 281 l 25,1,-1
 270 515 l 25,2,-1
 376 149 l 25,3,-1
 504 529 l 25,4,-1
 170 263 l 25,0,-1
EndSplineSet
EndChar
StartChar: AdhesiveBandage.0
Encoding: 553 -1 544
Width: 912
VWidth: 3600
Flags: MW
LayerCount: 2
Back
SplineSet
83.8583984375 204.028320312 m 9
 539.858398438 660.028320312 l 17
 576.720703125 696.890625 627.6328125 719.703125 683.830078125 719.703125 c 1
 796.225585938 719.703125 887.4765625 628.452148438 887.4765625 516.056640625 c 1
 887.4765625 459.858398438 864.720703125 408.890625 827.858398438 372.028320312 c 1
 827.801757812 372.084960938 371.858398438 -83.9716796875 371.858398438 -83.9716796875 c 1
 334.99609375 -120.833984375 284.084960938 -143.646484375 227.88671875 -143.646484375 c 1
 115.491210938 -143.646484375 24.240234375 -52.3955078125 24.240234375 60 c 1
 24.240234375 116.197265625 46.99609375 167.166015625 83.8583984375 204.028320312 c 9
95.8583984375 96.0283203125 m 1
 95.8583984375 82.7734375 106.603515625 72.0283203125 119.858398438 72.0283203125 c 1
 133.11328125 72.0283203125 143.858398438 82.7734375 143.858398438 96.0283203125 c 1
 143.858398438 109.283203125 133.11328125 120.028320312 119.858398438 120.028320312 c 1
 106.603515625 120.028320312 95.8583984375 109.283203125 95.8583984375 96.0283203125 c 1
167.858398438 24.0283203125 m 1
 167.858398438 10.7734375 178.603515625 0.0283203125 191.858398438 0.0283203125 c 1
 205.11328125 0.0283203125 215.858398438 10.7734375 215.858398438 24.0283203125 c 1
 215.858398438 37.283203125 205.11328125 48.0283203125 191.858398438 48.0283203125 c 1
 178.603515625 48.0283203125 167.858398438 37.283203125 167.858398438 24.0283203125 c 1
239.858398438 -47.9716796875 m 1
 239.858398438 -61.2265625 250.603515625 -71.9716796875 263.858398438 -71.9716796875 c 1
 277.11328125 -71.9716796875 287.858398438 -61.2265625 287.858398438 -47.9716796875 c 1
 287.858398438 -34.716796875 277.11328125 -23.9716796875 263.858398438 -23.9716796875 c 1
 250.603515625 -23.9716796875 239.858398438 -34.716796875 239.858398438 -47.9716796875 c 1
167.858398438 168.028320312 m 1
 167.858398438 154.7734375 178.603515625 144.028320312 191.858398438 144.028320312 c 1
 205.11328125 144.028320312 215.858398438 154.7734375 215.858398438 168.028320312 c 1
 215.858398438 181.283203125 205.11328125 192.028320312 191.858398438 192.028320312 c 1
 178.603515625 192.028320312 167.858398438 181.283203125 167.858398438 168.028320312 c 1
239.858398438 96.0283203125 m 1
 239.858398438 82.7734375 250.603515625 72.0283203125 263.858398438 72.0283203125 c 1
 277.11328125 72.0283203125 287.858398438 82.7734375 287.858398438 96.0283203125 c 1
 287.858398438 109.283203125 277.11328125 120.028320312 263.858398438 120.028320312 c 1
 250.603515625 120.028320312 239.858398438 109.283203125 239.858398438 96.0283203125 c 1
311.858398438 24.0283203125 m 1
 311.858398438 10.7734375 322.603515625 0.0283203125 335.858398438 0.0283203125 c 1
 349.11328125 0.0283203125 359.858398438 10.7734375 359.858398438 24.0283203125 c 1
 359.858398438 37.283203125 349.11328125 48.0283203125 335.858398438 48.0283203125 c 1
 322.603515625 48.0283203125 311.858398438 37.283203125 311.858398438 24.0283203125 c 1
552.029296875 554.890625 m 5
 550.448242188 541.73046875 559.834960938 529.780273438 572.995117188 528.19921875 c 5
 586.155273438 526.618164062 598.106445312 536.004882812 599.6875 549.165039062 c 5
 601.268554688 562.325195312 591.881835938 574.275390625 578.721679688 575.856445312 c 5
 565.561523438 577.4375 553.611328125 568.05078125 552.029296875 554.890625 c 5
623.858398438 480.028320312 m 5
 623.858398438 466.7734375 634.603515625 456.028320312 647.858398438 456.028320312 c 5
 661.11328125 456.028320312 671.858398438 466.7734375 671.858398438 480.028320312 c 5
 671.858398438 493.283203125 661.11328125 504.028320312 647.858398438 504.028320312 c 5
 634.603515625 504.028320312 623.858398438 493.283203125 623.858398438 480.028320312 c 5
695.858398438 408.028320312 m 5
 695.858398438 394.7734375 706.603515625 384.028320312 719.858398438 384.028320312 c 5
 733.11328125 384.028320312 743.858398438 394.7734375 743.858398438 408.028320312 c 5
 743.858398438 421.283203125 733.11328125 432.028320312 719.858398438 432.028320312 c 5
 706.603515625 432.028320312 695.858398438 421.283203125 695.858398438 408.028320312 c 5
623.858398438 624.028320312 m 5
 623.858398438 610.7734375 634.603515625 600.028320312 647.858398438 600.028320312 c 5
 661.11328125 600.028320312 671.858398438 610.7734375 671.858398438 624.028320312 c 5
 671.858398438 637.283203125 661.11328125 648.028320312 647.858398438 648.028320312 c 5
 634.603515625 648.028320312 623.858398438 637.283203125 623.858398438 624.028320312 c 5
695.858398438 552.028320312 m 5
 695.858398438 538.7734375 706.603515625 528.028320312 719.858398438 528.028320312 c 5
 733.11328125 528.028320312 743.858398438 538.7734375 743.858398438 552.028320312 c 5
 743.858398438 565.283203125 733.11328125 576.028320312 719.858398438 576.028320312 c 5
 706.603515625 576.028320312 695.858398438 565.283203125 695.858398438 552.028320312 c 5
767.858398438 480.028320312 m 5
 767.858398438 466.7734375 778.603515625 456.028320312 791.858398438 456.028320312 c 5
 805.11328125 456.028320312 815.858398438 466.7734375 815.858398438 480.028320312 c 5
 815.858398438 493.283203125 805.11328125 504.028320312 791.858398438 504.028320312 c 5
 778.603515625 504.028320312 767.858398438 493.283203125 767.858398438 480.028320312 c 5
731.858398438 276.028320312 m 1
 467.858398438 12.0283203125 l 1
 179.858398438 300.028320312 l 1
 443.858398438 564.028320312 l 1
 731.858398438 276.028320312 l 1
234.890625 316.995117188 m 17
 230.546875 312.651367188 227.858398438 306.651367188 227.858398438 300.028320312 c 1
 227.858398438 286.782226562 238.612304688 276.028320312 251.858398438 276.028320312 c 1
 258.481445312 276.028320312 264.481445312 278.716796875 268.826171875 283.060546875 c 9
 460.826171875 475.060546875 l 17
 465.169921875 479.405273438 467.858398438 485.405273438 467.858398438 492.028320312 c 1
 467.858398438 505.274414062 457.104492188 516.028320312 443.858398438 516.028320312 c 1
 437.235351562 516.028320312 431.235351562 513.33984375 426.890625 508.995117188 c 9
 234.890625 316.995117188 l 17
24 720 m 1
 888 720 l 1
 888 -144 l 1
 24 -144 l 1
 24 720 l 1
EndSplineSet
Fore
SplineSet
84 204 m 2,0,-1
 540 660 l 2,1,2
 600 720 600 720 684 720 c 128,-1,3
 768 720 768 720 827.5 660 c 128,-1,4
 887 600 887 600 887 516 c 128,-1,5
 887 432 887 432 828 372 c 2,6,-1
 372 -84 l 2,7,8
 312 -144 312 -144 228 -144 c 128,-1,9
 144 -144 144 -144 84 -84 c 128,-1,10
 24 -24 24 -24 24 60 c 128,-1,11
 24 144 24 144 84 204 c 2,0,-1
EndSplineSet
EndChar
StartChar: AdhesiveBandage.1
Encoding: 556 -1 548
Width: 912
Flags: MW
LayerCount: 2
Back
SplineSet
552.029296875 554.890625 m 5
 550.448242188 541.73046875 559.834960938 529.780273438 572.995117188 528.19921875 c 5
 586.155273438 526.618164062 598.106445312 536.004882812 599.6875 549.165039062 c 5
 601.268554688 562.325195312 591.881835938 574.275390625 578.721679688 575.856445312 c 5
 565.561523438 577.4375 553.611328125 568.05078125 552.029296875 554.890625 c 5
623.858398438 480.028320312 m 5
 623.858398438 466.7734375 634.603515625 456.028320312 647.858398438 456.028320312 c 5
 661.11328125 456.028320312 671.858398438 466.7734375 671.858398438 480.028320312 c 5
 671.858398438 493.283203125 661.11328125 504.028320312 647.858398438 504.028320312 c 5
 634.603515625 504.028320312 623.858398438 493.283203125 623.858398438 480.028320312 c 5
695.858398438 408.028320312 m 5
 695.858398438 394.7734375 706.603515625 384.028320312 719.858398438 384.028320312 c 5
 733.11328125 384.028320312 743.858398438 394.7734375 743.858398438 408.028320312 c 5
 743.858398438 421.283203125 733.11328125 432.028320312 719.858398438 432.028320312 c 5
 706.603515625 432.028320312 695.858398438 421.283203125 695.858398438 408.028320312 c 5
623.858398438 624.028320312 m 5
 623.858398438 610.7734375 634.603515625 600.028320312 647.858398438 600.028320312 c 5
 661.11328125 600.028320312 671.858398438 610.7734375 671.858398438 624.028320312 c 5
 671.858398438 637.283203125 661.11328125 648.028320312 647.858398438 648.028320312 c 5
 634.603515625 648.028320312 623.858398438 637.283203125 623.858398438 624.028320312 c 5
695.858398438 552.028320312 m 5
 695.858398438 538.7734375 706.603515625 528.028320312 719.858398438 528.028320312 c 5
 733.11328125 528.028320312 743.858398438 538.7734375 743.858398438 552.028320312 c 5
 743.858398438 565.283203125 733.11328125 576.028320312 719.858398438 576.028320312 c 5
 706.603515625 576.028320312 695.858398438 565.283203125 695.858398438 552.028320312 c 5
767.858398438 480.028320312 m 5
 767.858398438 466.7734375 778.603515625 456.028320312 791.858398438 456.028320312 c 5
 805.11328125 456.028320312 815.858398438 466.7734375 815.858398438 480.028320312 c 5
 815.858398438 493.283203125 805.11328125 504.028320312 791.858398438 504.028320312 c 5
 778.603515625 504.028320312 767.858398438 493.283203125 767.858398438 480.028320312 c 5
95.8583984375 96.0283203125 m 5
 95.8583984375 82.7734375 106.603515625 72.0283203125 119.858398438 72.0283203125 c 5
 133.11328125 72.0283203125 143.858398438 82.7734375 143.858398438 96.0283203125 c 5
 143.858398438 109.283203125 133.11328125 120.028320312 119.858398438 120.028320312 c 5
 106.603515625 120.028320312 95.8583984375 109.283203125 95.8583984375 96.0283203125 c 5
167.858398438 24.0283203125 m 5
 167.858398438 10.7734375 178.603515625 0.0283203125 191.858398438 0.0283203125 c 5
 205.11328125 0.0283203125 215.858398438 10.7734375 215.858398438 24.0283203125 c 5
 215.858398438 37.283203125 205.11328125 48.0283203125 191.858398438 48.0283203125 c 5
 178.603515625 48.0283203125 167.858398438 37.283203125 167.858398438 24.0283203125 c 5
239.858398438 -47.9716796875 m 5
 239.858398438 -61.2265625 250.603515625 -71.9716796875 263.858398438 -71.9716796875 c 5
 277.11328125 -71.9716796875 287.858398438 -61.2265625 287.858398438 -47.9716796875 c 5
 287.858398438 -34.716796875 277.11328125 -23.9716796875 263.858398438 -23.9716796875 c 5
 250.603515625 -23.9716796875 239.858398438 -34.716796875 239.858398438 -47.9716796875 c 5
167.858398438 168.028320312 m 5
 167.858398438 154.7734375 178.603515625 144.028320312 191.858398438 144.028320312 c 5
 205.11328125 144.028320312 215.858398438 154.7734375 215.858398438 168.028320312 c 5
 215.858398438 181.283203125 205.11328125 192.028320312 191.858398438 192.028320312 c 5
 178.603515625 192.028320312 167.858398438 181.283203125 167.858398438 168.028320312 c 5
239.858398438 96.0283203125 m 5
 239.858398438 82.7734375 250.603515625 72.0283203125 263.858398438 72.0283203125 c 5
 277.11328125 72.0283203125 287.858398438 82.7734375 287.858398438 96.0283203125 c 5
 287.858398438 109.283203125 277.11328125 120.028320312 263.858398438 120.028320312 c 5
 250.603515625 120.028320312 239.858398438 109.283203125 239.858398438 96.0283203125 c 5
311.858398438 24.0283203125 m 5
 311.858398438 10.7734375 322.603515625 0.0283203125 335.858398438 0.0283203125 c 5
 349.11328125 0.0283203125 359.858398438 10.7734375 359.858398438 24.0283203125 c 5
 359.858398438 37.283203125 349.11328125 48.0283203125 335.858398438 48.0283203125 c 5
 322.603515625 48.0283203125 311.858398438 37.283203125 311.858398438 24.0283203125 c 5
EndSplineSet
Fore
Refer: 4 -1 N 0.0625 0 0 0.0625 576 552 0
Refer: 4 -1 N 0.0625 0 0 0.0625 648 480 0
Refer: 4 -1 N 0.0625 0 0 0.0625 720 408 0
Refer: 4 -1 N 0.0625 0 0 0.0625 648 624 0
Refer: 4 -1 N 0.0625 0 0 0.0625 720 552 0
Refer: 4 -1 N 0.0625 0 0 0.0625 792 480 0
Refer: 4 -1 N 0.0625 0 0 0.0625 120 96 0
Refer: 4 -1 N 0.0625 0 0 0.0625 192 24 0
Refer: 4 -1 N 0.0625 0 0 0.0625 264 -48 0
Refer: 4 -1 N 0.0625 0 0 0.0625 192 168 0
Refer: 4 -1 N 0.0625 0 0 0.0625 264 96 0
Refer: 4 -1 N 0.0625 0 0 0.0625 336 24 0
EndChar
StartChar: AdhesiveBandage.2
Encoding: 554 -1 545
Width: 912
VWidth: 3600
Flags: MW
LayerCount: 2
Back
SplineSet
731.858398438 276.028320312 m 5
 467.858398438 12.0283203125 l 5
 179.858398438 300.028320312 l 5
 443.858398438 564.028320312 l 5
 731.858398438 276.028320312 l 5
EndSplineSet
Fore
SplineSet
732 276 m 1,0,-1
 468 12 l 1,1,-1
 180 300 l 1,2,-1
 444 564 l 1,3,-1
 732 276 l 1,0,-1
EndSplineSet
EndChar
StartChar: AdhesiveBandage.3
Encoding: 555 -1 547
Width: 912
VWidth: 3600
Flags: MWO
LayerCount: 2
Back
SplineSet
234.890625 316.995117188 m 21
 230.546875 312.651367188 227.858398438 306.651367188 227.858398438 300.028320312 c 5
 227.858398438 286.782226562 238.612304688 276.028320312 251.858398438 276.028320312 c 5
 258.481445312 276.028320312 264.481445312 278.716796875 268.826171875 283.060546875 c 13
 460.826171875 475.060546875 l 21
 465.169921875 479.405273438 467.858398438 485.405273438 467.858398438 492.028320312 c 5
 467.858398438 505.274414062 457.104492188 516.028320312 443.858398438 516.028320312 c 5
 437.235351562 516.028320312 431.235351562 513.33984375 426.890625 508.995117188 c 13
 234.890625 316.995117188 l 21
EndSplineSet
Fore
SplineSet
235 317 m 2,0,-1
 427 509 l 2,1,2
 434 516 434 516 444 516 c 128,-1,3
 454 516 454 516 461 509 c 128,-1,4
 468 502 468 502 468 492 c 128,-1,5
 468 482 468 482 461 475 c 2,6,-1
 269 283 l 2,7,8
 262 276 262 276 252 276 c 128,-1,9
 242 276 242 276 235 283 c 128,-1,10
 228 290 228 290 228 300 c 128,-1,11
 228 310 228 310 235 317 c 2,0,-1
EndSplineSet
EndChar
StartChar: Alien.0
Encoding: 564 -1 555
Width: 912
Flags: W
LayerCount: 2
Back
SplineSet
864 312 m 4
 864 86.6640625 546.6484375 -144 456 -144 c 4
 365.328125 -144 48 86.6640625 48 312 c 4
 48 537.3359375 230.6640625 720 456 720 c 4
 681.3359375 720 864 537.3359375 864 312 c 4
EndSplineSet
Fore
SplineSet
48 312 m 1,0,1
 48 481 48 481 167.5 600.5 c 129,-1,2
 287 720 287 720 456 720 c 129,-1,3
 625 720 625 720 744.5 600.5 c 129,-1,4
 864 481 864 481 864 312 c 1,5,6
 864 214 864 214 789 109 c 129,-1,7
 714 4 714 4 609.5 -70 c 129,-1,8
 505 -144 505 -144 456 -144 c 129,-1,9
 407 -144 407 -144 302.5 -70 c 129,-1,10
 198 4 198 4 123 109 c 129,-1,11
 48 214 48 214 48 312 c 1,0,1
EndSplineSet
EndChar
StartChar: AlienMonster.0
Encoding: 561 -1 553
Width: 912
VWidth: 3600
Flags: W
LayerCount: 2
Fore
SplineSet
24 576 m 1,0,-1
 72 576 l 1,1,-1
 72 312 l 1,2,-1
 168 312 l 1,3,-1
 168 480 l 1,4,-1
 216 480 l 1,5,-1
 216 528 l 1,6,-1
 264 528 l 1,7,-1
 264 576 l 1,8,-1
 336 576 l 1,9,-1
 336 672 l 1,10,-1
 384 672 l 1,11,-1
 384 576 l 1,12,-1
 528 576 l 1,13,-1
 528 672 l 1,14,-1
 576 672 l 1,15,-1
 576 576 l 1,16,-1
 648 576 l 1,17,-1
 648 528 l 1,18,-1
 696 528 l 1,19,-1
 696 480 l 1,20,-1
 744 480 l 1,21,-1
 744 312 l 1,22,-1
 840 312 l 1,23,-1
 840 576 l 1,24,-1
 888 576 l 1,25,-1
 888 312 l 1,26,-1
 840 312 l 1,27,-1
 840 264 l 1,28,-1
 744 264 l 1,29,-1
 744 96 l 1,30,-1
 648 96 l 1,31,-1
 648 -24 l 1,32,-1
 744 -24 l 1,33,-1
 744 -120 l 1,34,-1
 648 -120 l 1,35,-1
 648 -24 l 1,36,-1
 528 -24 l 1,37,-1
 528 96 l 1,38,-1
 384 96 l 1,39,-1
 384 -24 l 1,40,-1
 264 -24 l 1,41,-1
 264 -120 l 1,42,-1
 168 -120 l 1,43,-1
 168 -24 l 1,44,-1
 264 -24 l 1,45,-1
 264 96 l 1,46,-1
 168 96 l 1,47,-1
 168 264 l 1,48,-1
 72 264 l 1,49,-1
 72 312 l 1,50,-1
 24 312 l 1,51,-1
 24 576 l 1,0,-1
312 408 m 1,52,-1
 312 216 l 1,53,-1
 408 216 l 1,54,-1
 408 408 l 1,55,-1
 312 408 l 1,52,-1
504 408 m 1,56,-1
 504 216 l 1,57,-1
 600 216 l 1,58,-1
 600 408 l 1,59,-1
 504 408 l 1,56,-1
EndSplineSet
EndChar
StartChar: AngryFace.1
Encoding: 342 -1 342
Width: 912
Flags: MW
LayerCount: 2
Back
SplineSet
888 288 m 0
 888 49.416 694.5839 -144 456 -144 c 0
 217.4404 -144 24 49.416 24 288 c 0
 24 526.5595 217.4404 720 456 720 c 0
 694.5839 720 888 526.5595 888 288 c 1024
635.6396 2.9042 m 0
 634.5595 7.2001 607.6083 108 456 108 c 0
 304.3681 108 277.4404 7.2001 276.3603 2.9042 c 0
 275.04 -2.3037 277.3916 -7.7041 282.0478 -10.3916 c 0
 286.7275 -13.0078 292.5839 -12.288 296.4482 -8.5439 c 0
 296.9042 -8.0878 343.3437 36 456 36 c 0
 568.6562 36 615.1201 -8.0878 615.5517 -8.5195 c 0
 617.8564 -10.7998 620.9277 -12 624 -12 c 0
 626.0156 -12 628.0556 -11.496 629.9042 -10.4638 c 0
 634.6083 -7.7763 636.9599 -2.3281 635.6396 2.9042 c 0
400.9677 304.9677 m 0
 322.8476 383.0878 197.3037 384 192 384 c 0
 178.7519 384 168.0244 373.2724 168.0244 360.0478 c 0
 168 346.7998 178.7275 336.0478 191.9755 336 c 0
 192.6718 336 238.1757 335.4716 287.5683 318.3115 c 1
 273.3359 302.9521 264 279.0957 264 252 c 0
 264 205.5839 290.8564 168 324 168 c 0
 357.1435 168 384 205.5839 384 252 c 0
 384 256.1757 383.5439 260.1601 383.1123 264.1679 c 1
 383.4238 264.1679 383.7119 264 384 264 c 0
 390.1435 264 396.288 266.3515 400.9677 271.0322 c 0
 410.3515 280.416 410.3515 295.5839 400.9677 304.9677 c 0
720 384 m 0
 714.6962 384 589.1757 383.0878 511.0322 304.9677 c 0
 501.6484 295.5839 501.6484 280.416 511.0322 271.0322 c 0
 515.7119 266.3515 521.8564 264 528 264 c 0
 528.3115 264 528.5761 264.1679 528.8642 264.1679 c 1
 528.4804 260.1601 528 256.1757 528 252 c 0
 528 205.5839 554.8564 168 588 168 c 0
 621.1435 168 648 205.5839 648 252 c 0
 648 279.0957 638.664 302.9521 624.4316 318.3115 c 1
 673.8242 335.4716 719.3281 336 720.0478 336 c 0
 733.2724 336.0478 744 346.7998 743.9755 360.0478 c 0
 743.9521 373.2724 733.248 384 720 384 c 0
EndSplineSet
Fore
Refer: 343 -1 S 1 0 0 1 0 -48 0
Refer: 24 -1 N -1 0 0 -1 456 108 0
Colour: ffff
EndChar
StartChar: AngryFaceWithHorns.1
Encoding: 347 -1 347
Width: 912
Flags: MW
LayerCount: 2
Back
SplineSet
264 624 m 0
 202.08 624 128.8564 683.1835 105.9355 705.9355 c 0
 92.2324 719.664 71.5439 723.7675 53.6396 716.3281 c 0
 35.6884 708.9121 24 691.416 24 672 c 0
 24 588.9843 64.1279 432 216 432 c 0
 234.1679 432 250.7998 442.2724 258.9355 458.5439 c 2
 306.9355 554.5439 l 2
 314.3759 569.4238 313.5839 587.0878 304.8242 601.248 c 0
 296.0878 615.3837 280.6318 624 264 624 c 0
858.3837 716.3281 m 0
 840.3837 723.7919 819.8164 719.664 806.0644 705.9121 c 0
 784.7998 684.6718 710.1357 624 648 624 c 0
 631.3681 624 615.9121 615.3837 607.1757 601.2236 c 0
 598.4404 587.0878 597.6484 569.4003 605.0644 554.5195 c 2
 653.0644 458.5195 l 2
 661.2001 442.2724 677.8076 432 696 432 c 0
 847.872 432 888 588.9843 888 672 c 0
 888 691.416 876.3115 708.9121 858.3837 716.3281 c 0
405.456 378.9355 m 2
 261.456 450.9355 l 2
 237.7441 462.7919 208.9199 453.1679 197.04 429.456 c 0
 185.1835 405.7441 194.8076 376.9199 218.5195 365.04 c 2
 319.6083 314.496 l 1
 312.2636 301.7041 312 287.9755 312 287.9755 c 1
 312 239.9755 l 1
 312 239.9755 312 191.9755 360 191.9755 c 0
 408 191.9755 408 239.9755 408 239.9755 c 1
 408 287.9755 l 1
 408 287.9755 407.9277 290.5917 407.4003 294.288 c 0
 415.5117 298.8242 422.4716 305.5917 426.9355 314.5195 c 0
 438.7919 338.2324 429.1679 367.0556 405.456 378.9355 c 2
714.9355 429.456 m 0
 703.1035 453.1201 674.2802 462.8398 650.5195 450.9355 c 2
 506.5195 378.9355 l 2
 482.8076 367.08 473.1835 338.2558 485.04 314.5195 c 0
 489.5039 305.5917 496.4638 298.8242 504.5761 294.288 c 0
 504.0722 290.5917 504 287.9755 504 287.9755 c 1
 504 239.9755 l 1
 504 239.9755 504 191.9755 552 191.9755 c 0
 600 191.9755 600 239.9755 600 239.9755 c 1
 600 287.9755 l 1
 600 287.9755 599.7363 301.7041 592.3681 314.496 c 1
 693.456 365.04 l 2
 717.1923 376.9199 726.7919 405.7441 714.9355 429.456 c 0
606.7675 9.7197 m 0
 605.832 13.6796 583.1279 102.0722 456 102.0722 c 0
 329.0156 102.0722 306.1201 13.5117 305.2324 9.7197 c 0
 304.9482 8.5478 304.8105 7.372 304.8105 6.2128 c 0
 304.8105 1.2001 307.3837 -3.4931 311.8076 -6.1435 c 0
 313.9941 -7.4443 316.4169 -8.0791 318.8251 -8.0791 c 0
 322.4179 -8.0791 325.9785 -6.666 328.6796 -3.9355 c 0
 329.04 -3.5517 366.6718 32.5917 456.0244 32.5917 c 0
 545.3759 32.5917 583.0078 -3.5761 583.3437 -3.9121 c 0
 585.9355 -6.5996 589.5595 -8.1357 593.2324 -8.1357 c 0
 595.6318 -8.1357 598.0078 -7.5117 600.1679 -6.2402 c 0
 604.5527 -3.6171 607.1806 1.2246 607.1806 6.2802 c 0
 607.1806 7.4238 607.0468 8.5781 606.7675 9.7197 c 0
EndSplineSet
Fore
SplineSet
480 336 m 128,-1,1
 480 356 480 356 494 370 c 0,2,3
 499 375 499 375 507 379 c 2,4,-1
 651 451 l 2,5,6
 661 456 661 456 672 456 c 0,7,8
 692 456 692 456 706 442 c 128,-1,9
 720 428 720 428 720 408 c 128,-1,10
 720 388 720 388 706 374 c 0,11,12
 701 369 701 369 693 365 c 2,13,-1
 549 293 l 2,14,15
 539 288 539 288 528 288 c 0,16,17
 508 288 508 288 494 302 c 128,-1,0
 480 316 480 316 480 336 c 128,-1,1
312 240 m 1,18,-1
 312 287.9755 l 1,19,20
 317 335.9755 317 335.9755 360 335.9755 c 128,-1,21
 403 335.9755 403 335.9755 408 287.9755 c 1,22,-1
 408 240 l 1,23,24
 403 192 403 192 360 192 c 128,-1,25
 317 192 317 192 312 240 c 1,18,-1
192 408 m 128,-1,27
 192 428 192 428 206 442 c 128,-1,28
 220 456 220 456 240 456 c 0,29,30
 251 456 251 456 261 451 c 2,31,-1
 405 379 l 2,32,33
 413 375 413 375 418 370 c 0,34,35
 432 356 432 356 432 336 c 128,-1,36
 432 316 432 316 418 302 c 128,-1,37
 404 288 404 288 384 288 c 0,38,39
 373 288 373 288 363 293 c 2,40,-1
 219 365 l 2,41,42
 211 369 211 369 206 374 c 0,43,26
 192 388 192 388 192 408 c 128,-1,27
504 240 m 1,44,-1
 504 287.9755 l 1,45,46
 509 335.9755 509 335.9755 552 335.9755 c 128,-1,47
 595 335.9755 595 335.9755 600 287.9755 c 1,48,-1
 600 240 l 1,49,50
 595 192 595 192 552 192 c 128,-1,51
 509 192 509 192 504 240 c 1,44,-1
305 6 m 0,52,53
 305 9 305 9 306 12 c 0,54,55
 319 52 319 52 357.5 77 c 128,-1,56
 396 102 396 102 456 102 c 128,-1,57
 516 102 516 102 554.5 77 c 128,-1,58
 593 52 593 52 606 12 c 0,59,60
 607 9 607 9 607 6 c 0,61,62
 607 0 607 0 603 -4 c 128,-1,63
 599 -8 599 -8 593 -8 c 128,-1,64
 587 -8 587 -8 583 -4 c 0,65,66
 564 13 564 13 529.5 23 c 128,-1,67
 495 33 495 33 456 33 c 128,-1,68
 417 33 417 33 382.5 23 c 128,-1,69
 348 13 348 13 329 -4 c 0,70,71
 325 -8 325 -8 319 -8 c 128,-1,72
 313 -8 313 -8 309 -4 c 128,-1,73
 305 0 305 0 305 6 c 0,52,53
EndSplineSet
Colour: ffff
EndChar
StartChar: AnguishedFace.1
Encoding: 316 -1 316
Width: 912
Flags: MW
LayerCount: 2
Back
SplineSet
888 288 m 0
 888 49.416 694.5839 -144 456 -144 c 0
 217.4404 -144 24 49.416 24 288 c 0
 24 526.5595 217.4404 720 456 720 c 0
 694.5839 720 888 526.5595 888 288 c 1024
240 324 m 0
 240 277.6083 266.8632 240 300 240 c 0
 333.1367 240 360 277.6083 360 324 c 0
 360 370.3916 333.1367 408 300 408 c 0
 266.8632 408 240 370.3916 240 324 c 0
552 324 m 0
 552 277.6083 578.8632 240 612 240 c 0
 645.1367 240 672 277.6083 672 324 c 0
 672 370.3916 645.1367 408 612 408 c 0
 578.8632 408 552 370.3916 552 324 c 0
167.9755 432 m 0
 162.9843 432 157.9199 433.5595 153.5996 436.7998 c 0
 142.9921 444.7441 140.8564 459.7919 148.7998 470.4003 c 0
 227.0878 574.7998 331.5839 576 336 576 c 0
 349.248 576 360 565.248 360 552 c 0
 360 538.7763 349.3203 528.0478 336.0957 528 c 0
 332.3759 527.9521 250.4638 525.9355 187.2001 441.5996 c 0
 182.496 435.3115 175.2724 432 167.9755 432 c 0
744.0244 432 m 0
 736.7041 432 729.5283 435.3115 724.7998 441.5996 c 0
 661.4404 526.1035 579.3359 527.9521 575.8564 528 c 0
 562.6562 528.1435 552 538.9443 552.0722 552.1201 c 0
 552.1435 565.3437 562.7998 576 576 576 c 0
 580.416 576 684.8876 574.7998 763.2001 470.4003 c 0
 771.1679 459.7919 769.0078 444.7441 758.4003 436.7998 c 0
 754.08 433.5595 749.04 432 744.0244 432 c 0
587.6396 50.9042 m 0
 587.3759 51.9599 560.1601 156 456 156 c 0
 351.8398 156 324.624 51.9599 324.3603 50.9042 c 0
 323.0878 45.7919 325.416 40.5595 329.9277 37.8476 c 0
 334.4404 35.1601 340.3203 35.7841 344.2324 39.288 c 0
 344.4482 39.4804 368.5439 60 456 60 c 0
 542.1601 60 566.8076 40.08 567.7441 39.288 c 0
 570.0244 37.1279 573 36 576 36 c 0
 578.0156 36 580.0556 36.5039 581.9042 37.5361 c 0
 586.6083 40.2236 588.9599 45.6718 587.6396 50.9042 c 0
EndSplineSet
Fore
Refer: 315 -1 S 1 0 0 1 0 0 0
Refer: 10 -1 S -1 0 0 1 576 552 0
Refer: 10 -1 S 1 0 0 1 336 552 0
Colour: ffff
EndChar
StartChar: AnxiousFaceWithSweat.2
Encoding: 317 -1 317
Width: 912
Flags: MW
LayerCount: 2
Back
SplineSet
888 288 m 4
 888 49.416 694.5839 -144 456 -144 c 4
 217.4404 -144 24 49.416 24 288 c 4
 24 526.5595 217.4404 720 456 720 c 4
 694.5839 720 888 526.5595 888 288 c 1028
240 324 m 4
 240 277.6083 266.8632 240 300 240 c 4
 333.1367 240 360 277.6083 360 324 c 4
 360 370.3916 333.1367 408 300 408 c 4
 266.8632 408 240 370.3916 240 324 c 4
552 324 m 4
 552 277.6083 578.8632 240 612 240 c 4
 645.1367 240 672 277.6083 672 324 c 4
 672 370.3916 645.1367 408 612 408 c 4
 578.8632 408 552 370.3916 552 324 c 4
587.6396 50.9042 m 4
 587.3759 51.9599 560.1601 156 456 156 c 4
 351.8398 156 324.624 51.9599 324.3837 50.9042 c 4
 323.1123 45.7919 325.416 40.5595 329.9277 37.8476 c 4
 334.416 35.1601 340.3203 35.7841 344.2324 39.288 c 4
 344.4716 39.4804 368.5683 60 456 60 c 4
 542.1601 60 566.8076 40.08 567.7441 39.288 c 4
 570.0244 37.1279 573 36 576 36 c 4
 578.0156 36 580.0556 36.5039 581.9042 37.5361 c 4
 586.6083 40.2236 588.9599 45.6718 587.6396 50.9042 c 4
264 0 m 4
 264 -66.288 210.288 -120 144 -120 c 4
 77.7119 -120 24 -66.288 24 0 c 4
 24 66.288 120 240 144 240 c 4
 168 240 264 66.288 264 0 c 4
456 456 m 4
 665.9755 456 840.7919 347.7841 879.7441 204.3837 c 5
 885.0722 231.456 888 259.3916 888 288 c 4
 888 526.5595 694.5839 720 456 720 c 4
 217.4404 720 24 526.5595 24 288 c 4
 24 259.3916 26.9521 231.456 32.2558 204.3837 c 5
 71.208 347.7841 246.0478 456 456 456 c 4
744 432 m 4
 610.7041 432 556.7519 536.8076 554.5195 541.2724 c 4
 548.5917 553.1279 553.3916 567.5517 565.248 573.4804 c 4
 577.0556 579.4082 591.456 574.6318 597.4082 562.8476 c 4
 599.208 559.3437 641.1123 480 744 480 c 4
 757.2724 480 768 469.248 768 456 c 4
 768 442.7519 757.2724 432 744 432 c 4
168 432 m 4
 154.7519 432 144 442.7519 144 456 c 4
 144 469.248 154.7519 480 168 480 c 4
 289.9921 480 311.9042 554.8798 312.7919 558.0722 c 4
 316.2724 570.7441 329.3515 578.4238 342.0478 575.0878 c 4
 354.7675 571.7519 362.4716 558.9355 359.2802 546.1679 c 4
 358.1035 541.5117 328.8964 432 168 432 c 4
EndSplineSet
Fore
Refer: 315 -1 S 1 0 0 1 0 0 0
Refer: 53 -1 N 1 0 0 1 168 456 0
Refer: 52 -1 N 1 0 0 1 744 456 0
Colour: ffff
EndChar
StartChar: AstonishedFace.1
Encoding: 299 -1 298
Width: 912
Flags: MW
LayerCount: 2
Back
SplineSet
888 288 m 0
 888 49.416 694.5839 -144 456 -144 c 0
 217.4404 -144 24 49.416 24 288 c 0
 24 526.5595 217.4404 720 456 720 c 0
 694.5839 720 888 526.5595 888 288 c 1024
336 72 m 0
 336 -7.5292 389.7255 -72 456 -72 c 0
 522.2744 -72 576 -7.5292 576 72 c 0
 576 151.5292 522.2744 216 456 216 c 0
 389.7255 216 336 151.5292 336 72 c 0
167.9755 456 m 0
 162.9843 456 157.9199 457.5595 153.5996 460.7998 c 0
 142.9921 468.7441 140.8564 483.7919 148.7998 494.4003 c 0
 227.0878 598.7998 331.5839 600 336 600 c 0
 349.248 600 360 589.248 360 576 c 0
 360 562.7763 349.3203 552.0478 336.0957 552 c 0
 332.3759 551.9521 250.4638 549.9355 187.2001 465.5996 c 0
 182.496 459.3115 175.2724 456 167.9755 456 c 0
744.0244 456 m 0
 736.7041 456 729.5283 459.3115 724.7998 465.5996 c 0
 661.4404 550.1035 579.3359 551.9521 575.8564 552 c 0
 562.6562 552.1435 552 562.9443 552.0722 576.1201 c 0
 552.1435 589.3437 562.7998 600 576 600 c 0
 580.416 600 684.8876 598.7998 763.2001 494.4003 c 0
 771.1679 483.7919 769.0078 468.7441 758.4003 460.7998 c 0
 754.08 457.5595 749.04 456 744.0244 456 c 0
456 168 m 0
 416.2324 168 384 125.04 384 72 c 1
 528 72 l 1
 528 125.04 495.7675 168 456 168 c 0
252 372 m 0
 252 325.6083 278.8632 288 312 288 c 0
 345.1367 288 372 325.6083 372 372 c 0
 372 418.3916 345.1367 456 312 456 c 0
 278.8632 456 252 418.3916 252 372 c 0
540 372 m 0
 540 325.6083 566.8632 288 600 288 c 0
 633.1367 288 660 325.6083 660 372 c 0
 660 418.3916 633.1367 456 600 456 c 0
 566.8632 456 540 418.3916 540 372 c 0
EndSplineSet
Fore
Refer: 89 -1 N 1 0 0 1 0 48 0
Refer: 4 -1 N 0.3125 0 0 0.375 456 72 0
Refer: 10 -1 N -1 0 0 1 576 576 0
Refer: 10 -1 N 1 0 0 1 336 576 0
Colour: ffff
EndChar
StartChar: AstonishedFace.2
Encoding: 300 -1 300
Width: 912
Flags: MW
LayerCount: 2
Back
SplineSet
336 72 m 0
 336 -7.5292 389.7255 -72 456 -72 c 0
 522.2744 -72 576 -7.5292 576 72 c 0
 576 151.5292 522.2744 216 456 216 c 0
 389.7255 216 336 151.5292 336 72 c 0
384 72 m 1
 384 124.9833 416.2617 168 456 168 c 0
 495.7382 168 528 124.9833 528 72 c 1
 384 72 l 1
EndSplineSet
Fore
SplineSet
384 72 m 1,0,1
 384 112 384 112 405.5 140 c 128,-1,2
 427 168 427 168 456 168 c 128,-1,3
 485 168 485 168 506.5 140 c 128,-1,4
 528 112 528 112 528 72 c 1,5,-1
 384 72 l 1,0,1
EndSplineSet
Colour: ffff
EndChar
StartChar: BabyAngel.0
Encoding: 587 -1 578
Width: 912
Flags: W
LayerCount: 2
Back
SplineSet
24.1201171875 -2.232421875 m 1
 24.0478515625 -2.568359375 24.0234375 -2.8798828125 24 -3.2158203125 c 1
 24.0234375 -5.8564453125 24.48046875 -8.3759765625 24.767578125 -10.9443359375 c 1
 24.984375 -12.6962890625 25.0078125 -14.5439453125 25.271484375 -16.34375 c 9
 26.3759765625 -21.1435546875 l 17
 41.16015625 -90.5517578125 130.34375 -144 238.559570312 -144 c 1
 346.704101562 -144 435.959960938 -90.5517578125 450.671875 -21.1435546875 c 1
 451.103515625 -19.5595703125 451.51171875 -18 451.776367188 -16.3681640625 c 1
 452.063476562 -14.591796875 452.135742188 -12.744140625 452.303710938 -10.919921875 c 1
 452.591796875 -8.3759765625 453.047851562 -5.8564453125 453.072265625 -3.2158203125 c 1
 453.072265625 -2.8564453125 452.9765625 -2.5439453125 452.927734375 -2.232421875 c 9
 453.072265625 -0.9599609375 l 1
 452.879882812 -0.9599609375 l 17
 451.65625 38.6884765625 420.311523438 70.5361328125 381.576171875 70.5361328125 c 1
 342.767578125 70.5361328125 311.423828125 38.6884765625 310.223632812 -0.9599609375 c 9
 309.791992188 -0.9599609375 l 1
 309.81640625 -0.2158203125 310.0078125 0.50390625 310.0078125 1.271484375 c 1
 310.0078125 41.9765625 277.9921875 75 238.48828125 75 c 1
 199.032226562 75 167.015625 42.0234375 166.967773438 1.271484375 c 1
 166.9921875 0.50390625 167.18359375 -0.2158203125 167.255859375 -0.9599609375 c 1
 166.84765625 -0.9599609375 l 17
 165.624023438 38.6884765625 134.303710938 70.5361328125 95.51953125 70.5361328125 c 1
 56.759765625 70.5361328125 25.416015625 38.6884765625 24.240234375 -0.9599609375 c 1
 24 -0.9365234375 l 1
 24 -1.3916015625 24.1201171875 -1.7998046875 24.1201171875 -2.232421875 c 1
458.135742188 -2.232421875 m 1
 458.040039062 -2.591796875 458.015625 -2.8798828125 457.9921875 -3.2158203125 c 1
 458.015625 -5.8564453125 458.471679688 -8.3759765625 458.736328125 -10.9443359375 c 1
 458.9765625 -12.6962890625 459 -14.5439453125 459.240234375 -16.34375 c 1
 459.576171875 -18 459.984375 -19.6318359375 460.34375 -21.1435546875 c 1
 475.15234375 -90.5517578125 564.360351562 -144 672.528320312 -144 c 1
 780.671875 -144 869.927734375 -90.5517578125 884.6640625 -21.1435546875 c 1
 885.095703125 -19.5595703125 885.50390625 -18 885.767578125 -16.3681640625 c 1
 886.055664062 -14.591796875 886.15234375 -12.744140625 886.295898438 -10.919921875 c 1
 886.583984375 -8.3759765625 887.015625 -5.8564453125 887.063476562 -3.2158203125 c 1
 887.063476562 -2.8564453125 886.967773438 -2.5439453125 886.919921875 -2.232421875 c 9
 887.063476562 -0.9599609375 l 1
 886.84765625 -0.9599609375 l 17
 885.624023438 38.6884765625 854.280273438 70.5361328125 815.543945312 70.5361328125 c 1
 776.759765625 70.5361328125 745.391601562 38.6884765625 744.192382812 -0.9599609375 c 9
 743.759765625 -0.9599609375 l 1
 743.784179688 -0.2158203125 743.9765625 0.50390625 743.9765625 1.271484375 c 1
 743.9765625 41.9765625 711.959960938 75 672.48046875 75 c 1
 633.0234375 75 601.0078125 42.0234375 600.984375 1.271484375 c 1
 601.032226562 0.50390625 601.200195312 -0.2158203125 601.271484375 -0.9599609375 c 1
 600.81640625 -0.9599609375 l 17
 599.591796875 38.6884765625 568.271484375 70.5361328125 529.48828125 70.5361328125 c 1
 490.728515625 70.5361328125 459.383789062 38.6884765625 458.208007812 -0.9599609375 c 1
 457.967773438 -0.9365234375 l 1
 457.9921875 -1.3916015625 458.135742188 -1.7998046875 458.135742188 -2.232421875 c 1
168 216 m 1
 168 56.94140625 296.94140625 -72 456 -72 c 1
 615.05859375 -72 744 56.94140625 744 216 c 1
 744 375.05859375 615.05859375 504 456 504 c 1
 296.94140625 504 168 375.05859375 168 216 c 1
456 595.080078125 m 1
 277.34375 595.080078125 132 449.736328125 132 271.080078125 c 1
 132 225.48046875 141.50390625 181.055664062 160.271484375 139.103515625 c 1
 162.456054688 134.255859375 167.471679688 131.49609375 172.896484375 132.120117188 c 1
 178.200195312 132.864257812 182.3515625 137.015625 183.120117188 142.3203125 c 1
 192.551757812 208.440429688 245.063476562 255.263671875 291.408203125 296.591796875 c 1
 334.440429688 334.967773438 375.360351562 371.448242188 374.063476562 417.576171875 c 1
 530.448242188 389.471679688 710.208007812 273.16796875 728.879882812 142.3203125 c 1
 729.624023438 137.015625 733.799804688 132.864257812 739.103515625 132.120117188 c 1
 739.65625 132.047851562 740.232421875 132 740.759765625 132 c 1
 745.440429688 132 749.759765625 134.736328125 751.704101562 139.103515625 c 1
 770.471679688 181.055664062 780 225.48046875 780 271.080078125 c 1
 780 449.736328125 634.65625 595.080078125 456 595.080078125 c 1
360 240 m 9
 360 192 l 17
 360 168 360 168 384 168 c 1
 384 168 l 1
 408 168 408 168 408 192 c 9
 408 240 l 17
 408 264 408 264 384 264 c 1
 384 264 l 1
 360 264 360 264 360 240 c 9
504 240 m 9
 504 192 l 17
 504 168 504 168 528 168 c 1
 528 168 l 1
 552 168 552 168 552 192 c 9
 552 240 l 17
 552 264 552 264 528 264 c 1
 528 264 l 1
 504 264 504 264 504 240 c 9
360 72 m 1
 552 72 l 1
 552 72 528 24 456 24 c 1
 384 24 360 72 360 72 c 1
456 720 m 5
 296.952148438 720 168 655.51171875 168 576 c 5
 168 496.48828125 296.952148438 432 456 432 c 5
 615.047851562 432 744 496.463867188 744 576 c 5
 744 655.536132812 615.047851562 720 456 720 c 5
456 504 m 5
 336.696289062 504 240 541.608398438 240 588 c 5
 240 634.391601562 336.696289062 672 456 672 c 5
 575.303710938 672 672 634.391601562 672 588 c 5
 672 541.608398438 575.303710938 504 456 504 c 5
24 -144 m 1
 888 -144 l 1
 888 720 l 1
 24 720 l 1
 24 -144 l 1
EndSplineSet
Fore
Refer: 577 -1 N 1 0 0 1 434 0 2
Refer: 577 -1 N 1 0 0 1 0 0 2
EndChar
StartChar: BabyAngel.2
Encoding: 590 -1 581
Width: 912
Flags: W
LayerCount: 2
Back
SplineSet
360 72 m 5
 552 72 l 5
 552 72 528 24 456 24 c 5
 384 24 360 72 360 72 c 5
EndSplineSet
Fore
SplineSet
360 72 m 1,0,-1
 552 72 l 1,1,2
 521 24 521 24 456 24 c 128,-1,3
 391 24 391 24 360 72 c 1,0,-1
408 240 m 2,4,-1
 408 192 l 2,5,6
 408 182 408 182 401 175 c 128,-1,7
 394 168 394 168 384 168 c 128,-1,8
 374 168 374 168 367 175 c 128,-1,9
 360 182 360 182 360 192 c 2,10,-1
 360 240 l 2,11,12
 360 250 360 250 367 257 c 128,-1,13
 374 264 374 264 384 264 c 128,-1,14
 394 264 394 264 401 257 c 128,-1,15
 408 250 408 250 408 240 c 2,4,-1
552 240 m 2,16,-1
 552 192 l 2,17,18
 552 182 552 182 545 175 c 128,-1,19
 538 168 538 168 528 168 c 128,-1,20
 518 168 518 168 511 175 c 128,-1,21
 504 182 504 182 504 192 c 2,22,-1
 504 240 l 2,23,24
 504 250 504 250 511 257 c 128,-1,25
 518 264 518 264 528 264 c 128,-1,26
 538 264 538 264 545 257 c 128,-1,27
 552 250 552 250 552 240 c 2,16,-1
EndSplineSet
EndChar
StartChar: BabyAngel.3
Encoding: 588 -1 579
Width: 912
Flags: W
LayerCount: 2
Back
SplineSet
456 595.080078125 m 1
 277.34375 595.080078125 132 449.736328125 132 271.080078125 c 1
 132 225.48046875 141.50390625 181.055664062 160.271484375 139.103515625 c 1
 162.456054688 134.255859375 167.471679688 131.49609375 172.896484375 132.120117188 c 1
 178.200195312 132.864257812 182.3515625 137.015625 183.120117188 142.3203125 c 1
 192.551757812 208.440429688 245.063476562 255.263671875 291.408203125 296.591796875 c 1
 334.440429688 334.967773438 375.360351562 371.448242188 374.063476562 417.576171875 c 1
 530.448242188 389.471679688 710.208007812 273.16796875 728.879882812 142.3203125 c 1
 729.624023438 137.015625 733.799804688 132.864257812 739.103515625 132.120117188 c 1
 739.65625 132.047851562 740.232421875 132 740.759765625 132 c 1
 745.440429688 132 749.759765625 134.736328125 751.704101562 139.103515625 c 1
 770.471679688 181.055664062 780 225.48046875 780 271.080078125 c 1
 780 449.736328125 634.65625 595.080078125 456 595.080078125 c 1
EndSplineSet
Fore
SplineSet
780 271 m 1,0,1
 780 203 780 203 752 140 c 1,2,3
 749 132 749 132 741 132 c 1,4,5
 731 132 731 132 729 142 c 1,6,7
 714 234 714 234 611.5 312 c 129,-1,8
 509 390 509 390 374 418 c 1,9,10
 380 370 380 370 285.5 291 c 129,-1,11
 191 212 191 212 183 142 c 1,12,13
 181 132 181 132 171 132 c 257,14,15
 163 132 163 132 160 140 c 1,16,17
 132 203 132 203 132 271 c 1,18,19
 132 405 132 405 227 500 c 129,-1,20
 322 595 322 595 456 595 c 129,-1,21
 590 595 590 595 685 500 c 129,-1,22
 780 405 780 405 780 271 c 1,0,1
EndSplineSet
EndChar
StartChar: BabyAngel.4
Encoding: 591 -1 582
Width: 912
Flags: W
LayerCount: 2
Back
SplineSet
456 720 m 1
 296.952148438 720 168 655.51171875 168 576 c 1
 168 496.48828125 296.952148438 432 456 432 c 1
 615.047851562 432 744 496.463867188 744 576 c 1
 744 655.536132812 615.047851562 720 456 720 c 1
456 504 m 1
 336.696289062 504 240 541.608398438 240 588 c 1
 240 634.391601562 336.696289062 672 456 672 c 1
 575.303710938 672 672 634.391601562 672 588 c 1
 672 541.608398438 575.303710938 504 456 504 c 1
EndSplineSet
Fore
Refer: 4 -1 N -0.5625 0 0 0.21875 456 588 0
Refer: 4 -1 N 0.75 0 0 0.375 456 576 0
EndChar
StartChar: BeamingFaceWithSmilingEyes.1
Encoding: 107 -1 106
Width: 912
GlyphClass: 5
Flags: MW
LayerCount: 2
Back
SplineSet
888 288 m 0
 888 49.416 694.5839 -144 456 -144 c 0
 217.4394 -144 24 49.416 24 288 c 0
 24 526.5605 217.4394 720 456 720 c 0
 694.5839 720 888 526.5605 888 288 c 1024
408 288 m 0
 397.9433 288 388.5839 294.3613 385.2236 304.416 c 0
 380.3535 318.7919 360.8154 360 336 360 c 0
 310.5117 360 290.6884 316.1533 286.7763 304.416 c 0
 282.5761 291.8652 269.0644 285.0234 256.416 289.247 c 0
 243.8388 293.4238 237.0468 307.0312 241.247 319.6074 c 0
 244.247 328.6308 272.5429 408 336 408 c 0
 399.457 408 427.7529 328.6308 430.7763 319.5839 c 0
 434.9765 307.0078 428.1845 293.4003 415.6074 289.2236 c 0
 413.0644 288.4082 410.496 288 408 288 c 0
648 288 m 0
 637.9433 288 628.5839 294.3613 625.247 304.416 c 0
 620.3769 318.7919 600.7919 360 576 360 c 0
 550.5117 360 530.665 316.1533 526.7529 304.416 c 0
 522.5527 291.8652 509.0878 285.0234 496.3925 289.247 c 0
 483.8388 293.4238 477.0234 307.0312 481.2236 319.6074 c 0
 484.247 328.6308 512.5195 408 576 408 c 0
 639.4804 408 667.7529 328.6308 670.7529 319.5839 c 0
 674.9531 307.0078 668.1611 293.4003 655.5839 289.2236 c 0
 653.0644 288.4082 650.496 288 648 288 c 0
456 192 m 0
 369.0468 192 311.3535 202.1269 240 216 c 0
 223.7041 219.1425 192 216 192 168 c 0
 192 72 302.2802 -48 456 -48 c 0
 609.6962 -48 720 72 720 168 c 0
 720 216 688.2958 219.1689 672 216 c 0
 600.6464 202.1269 542.9531 192 456 192 c 0
240 168 m 1
 240 168 312 144 456 144 c 0
 600 144 672 168 672 168 c 1
 672 168 639.7431 6 456 6 c 0
 272.2568 6 240 168 240 168 c 1
456 57.7431 m 0
 369.6962 57.7431 305.4726 66.6728 265.5117 75.623 c 2
 245.7119 120.5273 l 1
 265.4648 113.039 339.0468 99 456.0234 99 c 0
 574.9199 99 648.9121 113.7841 668.7607 121.5117 c 1
 651.9355 77.3037 l 2
 612.7197 68.1845 545.8808 57.7431 456 57.7431 c 0
EndSplineSet
Fore
Refer: 132 -1 S 1 0 0 1 0 -24 0
Refer: 7 -1 N 1 0 0 1 576 384 0
Refer: 7 -1 N 1 0 0 1 336 384 0
Colour: ffff
EndChar
StartChar: BeamingFaceWithSmilingEyes.2
Encoding: 108 -1 108
Width: 912
Flags: MW
LayerCount: 2
Back
SplineSet
240 168 m 1
 240 168 312 144 456 144 c 1
 600 144 672 168 672 168 c 1
 672 168 639.7431 6 456 6 c 1
 272.2568 6 240 168 240 168 c 1
456 57.748 m 5
 369.6962 57.748 305.4726 66.6777 265.5117 75.6279 c 13
 245.6884 120.5322 l 5
 265.4648 113.0693 339.0234 99.0048 456 99.0048 c 5
 574.8964 99.0048 648.8886 113.789 668.7353 121.4931 c 5
 651.9121 77.2851 l 21
 612.7197 68.1894 545.8808 57.748 456 57.748 c 5
EndSplineSet
Fore
SplineSet
456 6 m 129,-1,1
 396 6 396 6 350.5 28.5 c 129,-1,2
 305 51 305 51 277 90 c 129,-1,3
 249 129 249 129 240 168 c 1,4,5
 326 144 326 144 456 144 c 129,-1,6
 586 144 586 144 672 168 c 1,7,8
 663 129 663 129 635 90 c 129,-1,9
 607 51 607 51 561.5 28.5 c 129,-1,0
 516 6 516 6 456 6 c 129,-1,1
EndSplineSet
Colour: ffff
EndChar
StartChar: BeamingFaceWithSmilingEyes.3
Encoding: 109 -1 108
Width: 912
Flags: MW
LayerCount: 2
Back
SplineSet
456 57.748 m 5
 369.6962 57.748 305.4726 66.6777 265.5117 75.6279 c 13
 245.6884 120.5322 l 5
 265.4648 113.0693 339.0234 99.0048 456 99.0048 c 5
 574.8964 99.0048 648.8886 113.789 668.7353 121.4931 c 5
 651.9121 77.2851 l 21
 612.7197 68.1894 545.8808 57.748 456 57.748 c 5
EndSplineSet
Fore
SplineSet
456 58 m 128,-1,1
 344 58 344 58 264 76 c 1,2,-1
 244 120 l 1,3,4
 327 99 327 99 456 99 c 0,5,6
 584 99 584 99 668 120 c 1,7,-1
 651 77 l 1,8,0
 568 58 568 58 456 58 c 128,-1,1
EndSplineSet
Colour: ffff
EndChar
StartChar: BeatingHeart.1
Encoding: 523 -1 516
Width: 912
VWidth: 0
Flags: MW
LayerCount: 2
Back
SplineSet
852.024414062 454.9921875 m 4
 843.215820312 454.9921875 834.744140625 459.83984375 830.51953125 468.263671875 c 4
 811.583984375 506.135742188 757.583984375 568.896484375 693.288085938 576.143554688 c 4
 681.015871193 577.529772837 671.970695021 587.931196409 671.970695021 599.998806624 c 4
 671.970695021 613.191339606 682.54902227 624.014162134 695.87979055 624.014162134 c 4
 696.79766078 624.014162134 697.726730266 623.96244212 698.6640625 623.856445312 c 4
 782.400390625 614.423828125 849.072265625 538.48828125 873.431640625 489.744140625 c 4
 875.155463317 486.296779184 875.972209746 482.632370005 875.972209746 479.022862781 c 4
 875.972209746 470.218259752 871.112492815 461.740328439 862.704101562 457.536132812 c 4
 859.272460938 455.807617188 855.624023438 454.9921875 852.024414062 454.9921875 c 4
863.015625 585 m 4
 855.3359375 585 847.751953125 588.696289062 843.120117188 595.536132812 c 4
 825.192382812 622.032226562 790.559570312 645.599609375 767.49609375 647.040039062 c 4
 754.789227633 647.847062536 745.006664298 658.382825668 745.006664298 670.959837914 c 4
 745.006664298 684.33556561 755.74668338 695.045609282 768.595370715 695.045609282 c 4
 769.224129743 695.045609282 769.85803654 695.019981122 770.49609375 694.967773438 c 4
 813.408203125 692.280273438 860.423828125 655.608398438 882.887695312 622.463867188 c 4
 885.682048845 618.344772224 887.020743827 613.667133032 887.020743827 609.037339234 c 4
 887.020743827 601.339539253 883.319978195 593.774005843 876.456054688 589.127929688 c 4
 872.328125 586.34375 867.671875 585 863.015625 585 c 4
EndSplineSet
Fore
Refer: 515 -1 N -1 0 0 1 912 0 0
Refer: 515 -1 N 1 0 0 1 0 0 0
EndChar
StartChar: BrokenHeart.0
Encoding: 542 -1 534
Width: 912
Flags: MW
LayerCount: 2
Back
SplineSet
24 720 m 1
 888 720 l 1
 888 -144 l 1
 24 -144 l 1
 24 720 l 1
350.135742188 83.49609375 m 9
 457.84765625 -96.0478515625 l 1
 457.248046875 -96.2880859375 456.599609375 -96.599609375 456 -96.81640625 c 1
 293.18359375 -37.6318359375 66.0234375 177.912109375 33.1435546875 382.248046875 c 1
 29.1123046875 399.551757812 26.759765625 417.50390625 26.759765625 436.032226562 c 1
 26.759765625 566.856445312 132.791992188 672.864257812 263.591796875 672.864257812 c 1
 318.311523438 672.864257812 368.375976562 653.927734375 408.431640625 622.704101562 c 9
 305.135742188 450.576171875 l 17
 301.67853724 444.801442312 300.003924713 438.396103658 300.003924713 432.048568919 c 4
 300.003924713 421.828794555 304.344894646 411.758860859 312.576171875 404.711914062 c 9
 456.456054688 281.375976562 l 1
 350.9765625 121.872070312 l 17
 346.999139687 115.8623062 345.003650895 108.945912695 345.003650895 102.021201472 c 0
 345.003650895 95.6163465937 346.710772846 89.2043759859 350.135742188 83.49609375 c 9
648.431640625 672.81640625 m 1
 779.208007812 672.81640625 885.240234375 566.807617188 885.263671875 435.959960938 c 1
 885.263671875 417.431640625 882.912109375 399.48046875 878.83203125 382.17578125 c 1
 850.3203125 204.912109375 675.528320312 19.2958984375 523.416015625 -65.400390625 c 1
 423.551757812 101.040039062 l 1
 534.047851562 268.127929688 l 17
 538.072085505 274.217293051 540.024168963 281.129484744 540.024168963 287.985875735 c 0
 540.024168963 298.180549978 535.708442247 308.251858299 527.471679688 315.311523438 c 9
 382.536132812 439.536132812 l 1
 479.543945312 601.223632812 l 17
 522.48046875 645.192382812 582.072265625 672.81640625 648.431640625 672.81640625 c 1
EndSplineSet
Fore
SplineSet
27 436 m 1,0,1
 27 535 27 535 97 604 c 129,-1,2
 167 673 167 673 264 673 c 1,3,4
 342 673 342 673 408 623 c 1,5,-1
 305 450 l 17,6,7
 300 442 300 442 300 432 c 1,8,9
 300 416 300 416 312 405 c 9,10,-1
 456 281 l 1,11,-1
 351 122 l 17,12,13
 345 113 345 113 345 102 c 129,-1,14
 345 91 345 91 351 82 c 9,15,-1
 458 -96 l 1,16,-1
 456 -97 l 1,17,18
 313 -40 313 -40 186.5 98.5 c 129,-1,19
 60 237 60 237 33 382 c 1,20,21
 27 409 27 409 27 436 c 1,0,1
648 673 m 1,22,23
 745 673 745 673 815 604 c 129,-1,24
 885 535 885 535 885 436 c 1,25,26
 885 409 885 409 879 382 c 1,27,28
 857 258 857 258 755.5 133.5 c 129,-1,29
 654 9 654 9 523 -65 c 1,30,-1
 424 101 l 1,31,-1
 534 268 l 17,32,33
 540 277 540 277 540 288 c 1,34,35
 540 304 540 304 528 315 c 9,36,-1
 383 440 l 1,37,-1
 480 602 l 1,38,39
 554 673 554 673 648 673 c 1,22,23
EndSplineSet
EndChar
StartChar: ClownFace.0
Encoding: 348 -1 347
Width: 912
Flags: MW
LayerCount: 2
Back
SplineSet
672 648 m 0
 672 621.4902 693.4902 600 720 600 c 0
 746.5097 600 768 621.4902 768 648 c 0
 768 674.5097 746.5097 696 720 696 c 0
 693.4902 696 672 674.5097 672 648 c 0
744 528 m 0
 744 488.2353 776.2353 456 816 456 c 0
 855.7646 456 888 488.2353 888 528 c 0
 888 567.7646 855.7646 600 816 600 c 0
 776.2353 600 744 567.7646 744 528 c 0
744 624 m 0
 744 584.2353 776.2353 552 816 552 c 0
 855.7646 552 888 584.2353 888 624 c 0
 888 663.7646 855.7646 696 816 696 c 0
 776.2353 696 744 663.7646 744 624 c 0
144 648 m 0
 144 621.4902 165.4902 600 192 600 c 0
 218.5097 600 240 621.4902 240 648 c 0
 240 674.5097 218.5097 696 192 696 c 0
 165.4902 696 144 674.5097 144 648 c 0
24 528 m 0
 24 488.2353 56.2353 456 96 456 c 0
 135.7646 456 168 488.2353 168 528 c 0
 168 567.7646 135.7646 600 96 600 c 0
 56.2353 600 24 567.7646 24 528 c 0
24 624 m 0
 24 584.2353 56.2353 552 96 552 c 0
 135.7646 552 168 584.2353 168 624 c 0
 168 663.7646 135.7646 696 96 696 c 0
 56.2353 696 24 663.7646 24 624 c 0
888 288 m 0
 888 49.416 694.5839 -144 456 -144 c 0
 217.416 -144 24 49.416 24 288 c 0
 24 526.5839 217.416 720 456 720 c 0
 694.5839 720 888 526.5839 888 288 c 1024
696 612 m 0
 696 578.8632 722.8632 552 756 552 c 0
 789.1367 552 816 578.8632 816 612 c 0
 816 645.1367 789.1367 672 756 672 c 0
 722.8632 672 696 645.1367 696 612 c 0
744 552 m 0
 744 525.4902 765.4902 504 792 504 c 0
 818.5097 504 840 525.4902 840 552 c 0
 840 578.5097 818.5097 600 792 600 c 0
 765.4902 600 744 578.5097 744 552 c 0
96 612 m 0
 96 578.8632 122.8632 552 156 552 c 0
 189.1367 552 216 578.8632 216 612 c 0
 216 645.1367 189.1367 672 156 672 c 0
 122.8632 672 96 645.1367 96 612 c 0
72 552 m 0
 72 525.4902 93.4902 504 120 504 c 0
 146.5097 504 168 525.4902 168 552 c 0
 168 578.5097 146.5097 600 120 600 c 0
 93.4902 600 72 578.5097 72 552 c 0
94.3203 216 m 0
 94.3203 162.9804 137.3007 120 190.3203 120 c 0
 243.3388 120 286.3203 162.9804 286.3203 216 c 0
 286.3203 269.0195 243.3388 312 190.3203 312 c 0
 137.3007 312 94.3203 269.0195 94.3203 216 c 0
622.3203 216 m 0
 622.3203 162.9804 665.3007 120 718.3203 120 c 0
 771.3388 120 814.3203 162.9804 814.3203 216 c 0
 814.3203 269.0195 771.3388 312 718.3203 312 c 0
 665.3007 312 622.3203 269.0195 622.3203 216 c 0
680.04 152.9042 m 0
 675.7675 156.7675 669.3837 157.0078 664.7998 153.5996 c 0
 663.8642 152.9042 570.6718 84 456 84 c 0
 341.6162 84 248.1123 152.9042 247.2001 153.5996 c 0
 242.6162 157.0078 236.2324 156.7197 231.9599 152.9042 c 0
 227.7119 149.0644 226.7519 142.7275 229.7041 137.832 c 0
 232.7998 132.6718 306.9121 -24 456 -24 c 0
 605.0878 -24 679.2236 132.6718 682.2958 137.832 c 0
 685.248 142.7519 684.3115 149.0644 680.04 152.9042 c 0
240 444 m 0
 240 397.6083 266.8632 360 300 360 c 0
 333.1367 360 360 397.6083 360 444 c 0
 360 490.3916 333.1367 528 300 528 c 0
 266.8632 528 240 490.3916 240 444 c 0
576 444 m 0
 576 397.6083 602.8632 360 636 360 c 0
 669.1367 360 696 397.6083 696 444 c 0
 696 490.3916 669.1367 528 636 528 c 0
 602.8632 528 576 490.3916 576 444 c 0
384 252 m 0
 384 205.6083 421.6083 168 468 168 c 0
 514.3916 168 552 205.6083 552 252 c 0
 552 298.3916 514.3916 336 468 336 c 0
 421.6083 336 384 298.3916 384 252 c 0
EndSplineSet
Fore
Refer: 4 -1 N 0.1875 0 0 0.1875 96 528 0
Refer: 4 -1 N 0.1875 0 0 0.1875 96 624 0
Refer: 4 -1 N 0.1875 0 0 0.1875 816 624 0
Refer: 4 -1 N 0.1875 0 0 0.1875 816 528 0
Refer: 4 -1 N 0.125 0 0 0.125 720 648 0
Refer: 4 -1 N 0.125 0 0 0.125 192 648 0
Colour: ffff
EndChar
StartChar: ClownFace.2
Encoding: 349 -1 348
Width: 912
Flags: MW
LayerCount: 2
Back
SplineSet
-184.8105 897.6054 m 6
 -184.8105 897.6054 -182.4677 895.831 -177.2685 892.3789 c 4
 -173.2138 889.6855 -167.6015 886.1083 -160.625 882.0166 c 4
 -148.0664 874.6523 -131.0839 865.6269 -110.8085 857.0898 c 4
 -90.5322 848.5517 -66.9648 840.5068 -41.2509 835.0576 c 4
 -20.6787 830.6982 1.2636 828 24 828 c 4
 46.7363 828 68.6787 830.6982 89.2509 835.0576 c 4
 114.9648 840.5068 138.5322 848.5517 158.8085 857.0898 c 4
 179.0839 865.6269 196.0664 874.6523 208.625 882.0166 c 4
 215.6015 886.1083 221.2138 889.6855 225.2685 892.3789 c 4
 230.4677 895.831 232.8105 897.6054 232.8105 897.6054 c 6
 234.4824 898.8603 236.5039 899.6933 238.7324 899.9296 c 4
 239.1611 899.9746 239.5869 899.997 240.0087 899.997 c 4
 246.0654 899.997 251.2753 895.4189 251.9267 889.2636 c 4
 251.9726 888.8349 251.9951 888.4091 251.9951 887.9873 c 4
 251.9951 886.2167 251.6035 884.5195 250.8964 882.9863 c 4
 250.6972 882.5556 243.5878 867.1767 229.4111 845.9414 c 4
 218.0712 828.9541 202.2119 808.206 181.6542 788.4101 c 4
 144.7236 752.8476 92.083 720 24 720 c 4
 -44.083 720 -96.7236 752.8476 -133.6542 788.4101 c 4
 -154.2119 808.206 -170.0712 828.9541 -181.4111 845.9414 c 4
 -195.5859 867.1738 -202.706 882.5566 -202.9013 882.9814 c 4
 -203.6093 884.5146 -204.0009 886.2128 -204.0009 887.9824 c 4
 -204.0009 888.4042 -203.9785 888.83 -203.9326 889.2587 c 4
 -203.2802 895.415 -198.0712 899.9921 -192.0146 899.9921 c 4
 -191.5927 899.9921 -191.1669 899.9707 -190.7382 899.9248 c 4
 -188.5097 899.6884 -186.4882 898.8554 -184.8105 897.6054 c 6
EndSplineSet
Fore
Refer: 4 -1 N 0.25 0 0 0.25 718 216 0
Refer: 4 -1 N 0.25 0 0 0.25 190 216 0
Colour: ffff
EndChar
StartChar: ClownFace.3
Encoding: 350 -1 349
Width: 912
Flags: MW
LayerCount: 2
Fore
SplineSet
228 144 m 0,0,1
 228 141 228 141 230 137 c 0,2,3
 269 63 269 63 328 19.5 c 128,-1,4
 387 -24 387 -24 456 -24 c 128,-1,5
 525 -24 525 -24 584 19.5 c 128,-1,6
 643 63 643 63 682 137 c 0,7,8
 684 141 684 141 684 144 c 0,9,10
 684 149 684 149 680.5 152.5 c 128,-1,11
 677 156 677 156 672 156 c 0,12,13
 668 156 668 156 664 153 c 0,14,15
 619 122 619 122 564 103 c 128,-1,16
 509 84 509 84 456 84 c 128,-1,17
 403 84 403 84 348 103 c 128,-1,18
 293 122 293 122 248 153 c 0,19,20
 244 156 244 156 240 156 c 0,21,22
 235 156 235 156 231.5 152.5 c 128,-1,23
 228 149 228 149 228 144 c 0,0,1
EndSplineSet
Colour: ffff
EndChar
StartChar: ColdFace.1
Encoding: 250 -1 249
Width: 912
Flags: MW
LayerCount: 2
Back
SplineSet
24 288 m 0
 24 49.413 217.413 -144 456 -144 c 0
 694.5869 -144 888 49.413 888 288 c 0
 888 526.5869 694.5869 720 456 720 c 0
 217.413 720 24 526.5869 24 288 c 0
251.6396 355.4882 m 0
 251.6396 309.0957 278.5029 271.4882 311.6396 271.4882 c 0
 344.7773 271.4882 371.6396 309.0957 371.6396 355.4882 c 0
 371.6396 401.8798 344.7773 439.4882 311.6396 439.4882 c 0
 278.5029 439.4882 251.6396 401.8798 251.6396 355.4882 c 0
539.6396 355.4882 m 0
 539.6396 309.0957 566.5029 271.4882 599.6396 271.4882 c 0
 632.7773 271.4882 659.6396 309.0957 659.6396 355.4882 c 0
 659.6396 401.8798 632.7773 439.4882 599.6396 439.4882 c 0
 566.5029 439.4882 539.6396 401.8798 539.6396 355.4882 c 0
623.6396 196.0078 m 2
 676.6562 196.0078 719.6396 153.0244 719.6396 100.0078 c 0
 719.6396 46.9921 676.6562 4.0078 623.6396 4.0078 c 2
 287.6396 4.0078 l 2
 234.624 4.0078 191.6396 46.9921 191.6396 100.0078 c 0
 191.6396 153.0244 234.624 196.0078 287.6396 196.0078 c 2
 623.6396 196.0078 l 2
623.6396 220.5117 m 2
 287.6396 220.5117 l 2
 221.4716 220.5117 167.6396 166.6796 167.6396 100.5117 c 0
 167.6396 34.3437 221.4716 -19.4882 287.6396 -19.4882 c 2
 623.6396 -19.4882 l 2
 689.8076 -19.4882 743.6396 34.3437 743.6396 100.5117 c 0
 743.6396 166.6796 689.8076 220.5117 623.6396 220.5117 c 2
623.6396 172.5117 m 2
 659.2324 172.5117 688.6796 146.496 694.416 112.5117 c 1
 611.6396 112.5117 l 1
 611.6396 172.5117 l 1
 623.6396 172.5117 l 2
587.6396 172.5117 m 1
 587.6396 112.5117 l 1
 515.6396 112.5117 l 1
 515.6396 172.5117 l 1
 587.6396 172.5117 l 1
491.6396 172.5117 m 1
 491.6396 112.5117 l 1
 419.6396 112.5117 l 1
 419.6396 172.5117 l 1
 491.6396 172.5117 l 1
395.6396 172.5117 m 1
 395.6396 112.5117 l 1
 323.6396 112.5117 l 1
 323.6396 172.5117 l 1
 395.6396 172.5117 l 1
287.6396 172.5117 m 2
 299.6396 172.5117 l 1
 299.6396 112.5117 l 1
 216.8398 112.5117 l 1
 222.5996 146.4716 252.0478 172.5117 287.6396 172.5117 c 2
287.6396 28.5117 m 2
 252.0478 28.5117 222.5996 54.5283 216.8642 88.5117 c 1
 299.6396 88.5117 l 1
 299.6396 28.5117 l 1
 287.6396 28.5117 l 2
323.6396 28.5117 m 1
 323.6396 88.5117 l 1
 395.6396 88.5117 l 1
 395.6396 28.5117 l 1
 323.6396 28.5117 l 1
419.6396 28.5117 m 1
 419.6396 88.5117 l 1
 491.6396 88.5117 l 1
 491.6396 28.5117 l 1
 419.6396 28.5117 l 1
515.6396 28.5117 m 1
 515.6396 88.5117 l 1
 587.6396 88.5117 l 1
 587.6396 28.5117 l 1
 515.6396 28.5117 l 1
623.6396 28.5117 m 2
 611.6396 28.5117 l 1
 611.6396 88.5117 l 1
 694.416 88.5117 l 1
 688.6796 54.5283 659.2324 28.5117 623.6396 28.5117 c 2
882.1435 355.4882 m 0
 882.1435 366.1679 881.04 301.7275 792.0957 274.0322 c 0
 757.0322 263.1123 761.1835 212.1123 761.7363 198.3837 c 0
 763.6562 150.9843 771.288 104.9755 773.664 92.9755 c 0
 776.0644 80.8076 785.832 42.4316 788.1123 30.8398 c 0
 790.6318 18.0722 793.8964 -26.9042 796.1035 -38.1123 c 0
 798.7675 -51.624 801.2636 -61.3437 803.3037 -71.664 c 0
 807.7197 -93.9599 813.4804 -110.0156 823.2724 -110.0156 c 0
 833.0878 -110.0156 833.2558 -83.0156 837.6484 -60.7441 c 0
 839.6884 -50.4482 840.2158 -41.8564 842.8798 -28.3681 c 0
 845.0878 -17.2324 851.5917 59.0156 854.04 71.3759 c 0
 856.3681 83.1601 869.3037 133.0078 871.6562 144.9843 c 0
 874.0556 157.1523 881.2324 204.8398 883.1523 216.4804 c 0
 894.624 286.0078 882.1435 355.4638 882.1435 355.4882 c 0
31.5117 207 m 0
 31.5117 213.9599 46.2236 179.0644 59.0644 171.288 c 0
 75.624 161.2558 88.5839 142.4882 108.0244 126 c 0
 127.4638 109.5117 127.416 78.624 126.6484 63.7441 c 0
 123.3837 0 114.9843 -63.4316 113.1601 -71.2558 c 0
 111.3359 -79.2001 104.5683 -139.0078 95.6396 -139.0078 c 0
 86.7119 -139.0078 82.3681 -117.9355 79.0078 -103.3916 c 2
 73.6083 -79.9443 l 2
 71.9277 -72.6962 70.7275 -64.7998 68.8076 -56.5195 c 0
 67.08 -48.9843 58.7041 5.5683 56.9042 13.3916 c 0
 55.08 21.3359 47.1601 52.8242 45.4082 60.3837 c 0
 43.4882 68.7119 42.6718 76.7998 40.8476 84.0722 c 0
 33 115.2724 31.5117 206.9755 31.5117 207 c 0
167.664 447 m 0
 154.416 447 143.664 457.7519 143.664 471 c 0
 143.664 484.2236 154.3437 494.9521 167.5683 495 c 0
 171.3115 495.0478 253.2236 497.0644 316.4882 581.4003 c 0
 324.4316 591.9599 339.456 594.1679 350.0878 586.2001 c 0
 360.6962 578.2558 362.832 563.208 354.8876 552.5996 c 0
 276.5761 448.2001 172.08 447 167.664 447 c 0
743.664 447 m 0
 739.248 447 634.7763 448.2001 556.4638 552.5996 c 0
 548.496 563.208 550.6562 578.2558 561.2636 586.2001 c 0
 571.8476 594.1923 586.872 592.0078 594.8398 581.4003 c 0
 658.2236 496.8964 740.3281 495.0244 743.7841 495 c 0
 756.9843 494.8564 767.6396 484.0556 767.5683 470.8798 c 0
 767.5195 457.6562 756.8642 447 743.664 447 c 0
606.3837 693 m 2
 606.3837 693 582.5996 703.1035 574.7763 705.5039 c 0
 567.8876 707.6162 546.1435 712.1279 532.7041 714.7197 c 0
 517.7041 717.624 501.6484 717.4804 501.6484 717.4804 c 1
 501.6484 717.4804 500.9277 707.832 504.3837 692.8798 c 0
 507.1679 680.832 514.08 664.1279 515.3759 655.4638 c 0
 516.7919 646.08 517.0078 634.9443 518.7597 623.1123 c 0
 520.2958 612.8876 521.832 601.9921 523.4882 590.9042 c 0
 525.0957 580.2001 527.8564 569.4482 529.4638 558.7197 c 0
 531.1435 547.5839 531.9121 536.5195 533.4716 526.248 c 0
 535.248 514.3437 533.2324 502.7763 534.6484 493.3437 c 0
 537.5517 474 542.6396 446.9755 548.1357 446.9755 c 0
 553.6318 446.9755 558.4804 471.4316 561.3837 490.8476 c 0
 562.7998 500.2324 560.7363 507.5283 562.5117 519.3603 c 0
 564.0478 529.5839 565.3437 539.7597 567.0244 550.8476 c 0
 568.6318 561.5517 569.9277 572.0156 571.5361 582.7197 c 0
 573.2158 593.8564 573 604.7041 574.5361 614.9755 c 0
 576.3115 626.8798 583.248 641.5439 584.664 650.9755 c 0
 587.5195 670.3203 606.3837 693 606.3837 693 c 2
165 494.9042 m 1
 165 494.9042 182.5439 498.8398 199.248 502.3203 c 0
 210.1201 504.5761 218.7363 513.3359 236.5195 519.8164 c 0
 255.0244 526.5595 266.9277 532.3916 266.9277 532.3916 c 1
 266.9277 532.3916 268.4404 501.0722 264.3115 485.4482 c 0
 260.9755 472.8476 259.2236 456.5761 257.6884 447.5283 c 0
 256.0078 437.7363 255.0722 426.1923 252.9599 413.832 c 0
 251.1357 403.1523 247.7763 391.9921 245.7841 380.3759 c 0
 243.8642 369.1679 242.3281 356.04 240.4082 344.832 c 0
 238.416 333.1923 237.8876 323.1835 236.04 312.456 c 0
 233.9042 300.0244 235.5117 298.7763 233.8076 288.9355 c 0
 230.3281 268.7041 229.8476 271.4882 228.7197 260.4716 c 0
 227.5917 249.456 219.2636 248.0878 215.664 256.1523 c 0
 212.0644 264.2158 215.8798 268.6562 212.4003 288.9599 c 0
 210.7197 298.7519 204.5517 324.6484 202.5595 336.2402 c 0
 200.6396 347.4482 198.0478 365.0156 196.1279 376.2236 c 0
 194.1357 387.8642 193.6318 406.6318 191.7841 417.3837 c 0
 189.6484 429.8164 186.3837 437.496 184.7041 447.3359 c 0
 181.2236 467.5195 165 494.9042 165 494.9042 c 1
EndSplineSet
Fore
Refer: 89 -1 S 1 0 0 1 0 31 0
Refer: 41 -1 S 1 0 0 1 0 -20 0
Refer: 10 -1 N 1 0 0 -1 744 471 0
Refer: 10 -1 N -1 0 0 -1 168 471 0
Colour: ffff
EndChar
StartChar: ColdFace.3
Encoding: 252 -1 252
Width: 912
Flags: MW
LayerCount: 2
Back
SplineSet
882.1435 355.4882 m 0
 882.1435 355.4638 894.624 286.0078 883.1523 216.4804 c 0
 881.2324 204.8398 874.0556 157.1523 871.6562 144.9843 c 0
 869.3037 133.0078 856.3681 83.1601 854.04 71.3759 c 0
 851.5917 59.0156 845.0878 -17.2324 842.8798 -28.3681 c 0
 840.2158 -41.8564 839.6884 -50.4482 837.6484 -60.7441 c 0
 833.2558 -83.0156 833.0878 -110.0156 823.2724 -110.0156 c 0
 813.4804 -110.0156 807.7197 -93.9599 803.3037 -71.664 c 0
 801.2636 -61.3437 798.7675 -51.624 796.1035 -38.1123 c 0
 793.8964 -26.9042 790.6318 18.0722 788.1123 30.8398 c 0
 785.832 42.4316 776.0644 80.8076 773.664 92.9755 c 0
 771.288 104.9755 763.6562 150.9843 761.7363 198.3837 c 0
 761.1835 212.1123 757.0322 263.1123 792.0957 274.0322 c 0
 881.04 301.7275 882.1435 366.1679 882.1435 355.4882 c 0
31.5117 207 m 0
 31.5117 213.9599 46.2236 179.0644 59.0644 171.288 c 0
 75.624 161.2558 88.5839 142.4882 108.0244 126 c 0
 127.4638 109.5117 127.416 78.624 126.6484 63.7441 c 0
 123.3837 0 114.9843 -63.4316 113.1601 -71.2558 c 0
 111.3359 -79.2001 104.5683 -139.0078 95.6396 -139.0078 c 0
 86.7119 -139.0078 82.3681 -117.9355 79.0078 -103.3916 c 2
 73.6083 -79.9443 l 2
 71.9277 -72.6962 70.7275 -64.7998 68.8076 -56.5195 c 0
 67.08 -48.9843 58.7041 5.5683 56.9042 13.3916 c 0
 55.08 21.3359 47.1601 52.8242 45.4082 60.3837 c 0
 43.4882 68.7119 42.6718 76.7998 40.8476 84.0722 c 0
 33 115.2724 31.5117 206.9755 31.5117 207 c 0
606.3837 693 m 2
 606.3837 693 587.5195 670.3203 584.664 650.9755 c 0
 583.248 641.5439 576.3115 626.8798 574.5361 614.9755 c 0
 573 604.7041 573.2158 593.8564 571.5361 582.7197 c 0
 569.9277 572.0156 568.6318 561.5517 567.0244 550.8476 c 0
 565.3437 539.7597 564.0478 529.5839 562.5117 519.3603 c 0
 560.7363 507.5283 562.7998 500.2324 561.3837 490.8476 c 0
 558.4804 471.4316 553.6318 446.9755 548.1357 446.9755 c 0
 542.6396 446.9755 537.5517 474 534.6484 493.3437 c 0
 533.2324 502.7763 535.248 514.3437 533.4716 526.248 c 0
 531.9121 536.5195 531.1435 547.5839 529.4638 558.7197 c 0
 527.8564 569.4482 525.0957 580.2001 523.4882 590.9042 c 0
 521.832 601.9921 520.2958 612.8876 518.7597 623.1123 c 0
 517.0078 634.9443 516.7919 646.08 515.3759 655.4638 c 0
 514.08 664.1279 507.1679 680.832 504.3837 692.8798 c 0
 500.9277 707.832 501.6484 717.4804 501.6484 717.4804 c 1
 501.6484 717.4804 517.7041 717.624 532.7041 714.7197 c 0
 546.1435 712.1279 567.8876 707.6162 574.7763 705.5039 c 0
 582.5996 703.1035 606.3837 693 606.3837 693 c 2
165 494.9042 m 1
 165 494.9042 182.5439 498.8398 199.248 502.3203 c 0
 210.1201 504.5761 218.7363 513.3359 236.5195 519.8164 c 0
 255.0244 526.5595 266.9277 532.3916 266.9277 532.3916 c 1
 266.9277 532.3916 268.4404 501.0722 264.3115 485.4482 c 0
 260.9755 472.8476 259.2236 456.5761 257.6884 447.5283 c 0
 256.0078 437.7363 255.0722 426.1923 252.9599 413.832 c 0
 251.1357 403.1523 247.7763 391.9921 245.7841 380.3759 c 0
 243.8642 369.1679 242.3281 356.04 240.4082 344.832 c 0
 238.416 333.1923 237.8876 323.1835 236.04 312.456 c 0
 233.9042 300.0244 235.5117 298.7763 233.8076 288.9355 c 0
 230.3281 268.7041 229.8476 271.4882 228.7197 260.4716 c 0
 227.5917 249.456 219.2636 248.0878 215.664 256.1523 c 0
 212.0644 264.2158 215.8798 268.6562 212.4003 288.9599 c 0
 210.7197 298.7519 204.5517 324.6484 202.5595 336.2402 c 0
 200.6396 347.4482 198.0478 365.0156 196.1279 376.2236 c 0
 194.1357 387.8642 193.6318 406.6318 191.7841 417.3837 c 0
 189.6484 429.8164 186.3837 437.496 184.7041 447.3359 c 0
 181.2236 467.5195 165 494.9042 165 494.9042 c 1
EndSplineSet
Fore
SplineSet
762 193 m 0,0,1
 760 222 760 222 764 239 c 0,2,3
 771 268 771 268 792 274 c 0,4,5
 866 298 866 298 882 356 c 1,6,7
 888 320 888 320 888 281 c 0,8,9
 888 248 888 248 883 215 c 0,10,11
 872 140 872 140 861 101 c 0,12,13
 852 71 852 71 848 18 c 0,14,15
 847 5 847 5 843 -28 c 2,16,-1
 837 -64 l 1,17,-1
 833 -91 l 2,18,19
 830 -110 830 -110 823 -110 c 0,20,21
 813 -110 813 -110 806 -84 c 2,22,-1
 799 -52 l 2,23,24
 795 -36 795 -36 793 -12 c 0,25,26
 790 20 790 20 788 31 c 0,27,28
 765 120 765 120 762 193 c 0,0,1
502 717 m 1,29,30
 516 718 516 718 536 714 c 0,31,32
 578 707 578 707 606 693 c 1,33,34
 587 667 587 667 585 652 c 0,35,36
 584 647 584 647 576 622 c 0,37,38
 574 617 574 617 572 586 c 2,39,-1
 563 523 l 2,40,41
 561 512 561 512 562 496 c 0,42,43
 555 447 555 447 548 447 c 0,44,45
 542 447 542 447 535 491 c 0,46,47
 534 496 534 496 534 523 c 2,48,-1
 529 562 l 1,49,-1
 526 577 l 2,50,51
 524 586 524 586 521 607 c 0,52,53
 518 625 518 625 516 651 c 0,54,55
 515 661 515 661 509 677 c 0,56,57
 501 701 501 701 502 717 c 1,29,30
165 495 m 1,58,59
 205 502 205 502 213.5 508.5 c 128,-1,60
 222 515 222 515 267 532 c 1,61,62
 268 500 268 500 264 484 c 0,63,64
 260 466 260 466 257 443 c 0,65,66
 254 415 254 415 248 391 c 2,67,-1
 246 382 l 1,68,-1
 240 342 l 1,69,-1
 235 304 l 2,70,71
 235 297 235 297 234 290 c 2,72,-1
 229 263 l 2,73,74
 228 251 228 251 222 251 c 0,75,76
 219 251 219 251 216.5 254.5 c 128,-1,77
 214 258 214 258 214 267 c 0,78,79
 214 282 214 282 212 291 c 2,80,-1
 203 334 l 1,81,-1
 195 385 l 1,82,-1
 192 417 l 1,83,-1
 184 451 l 2,84,85
 178 473 178 473 165 495 c 1,58,59
32 208 m 0,86,87
 32 209 32 209 44 189 c 0,88,89
 52 176 52 176 58 172 c 0,90,91
 63 169 63 169 69 164 c 128,-1,92
 75 159 75 159 92 141 c 0,93,94
 103 130 103 130 108 126 c 0,95,96
 126 111 126 111 127 73 c 0,97,98
 124 4 124 4 114 -67 c 2,99,-1
 107 -108 l 2,100,101
 101 -139 101 -139 96 -139 c 0,102,103
 87 -139 87 -139 81 -112 c 0,104,105
 71 -71 71 -71 67 -46 c 2,106,-1
 57 13 l 1,107,108
 44 65 44 65 41 83 c 0,109,110
 33 118 33 118 32 208 c 0,86,87
EndSplineSet
Colour: ffff
EndChar
StartChar: ConfoundedFace.1
Encoding: 329 -1 329
Width: 912
Flags: MW
LayerCount: 2
Back
SplineSet
247.0332 55.0332 m 13
 271.0332 31.0332 l 21
 271.4365 30.6298 271.8564 30.2373 272.2939 29.8583 c 5
 282.2998 21.1806 297.4736 22.2666 306.1572 32.2802 c 5
 306.5371 32.7177 306.8984 33.166 307.2412 33.622 c 13
 379.2109 129.6201 l 5
 341.25 129.0244 l 5
 437.25 9.0244 l 21
 441.6513 3.5224 448.4218 -0.0039 456.0087 -0.0039 c 5
 463.5957 -0.0039 470.3662 3.5224 474.7675 9.0244 c 13
 570.75 129.0244 l 5
 532.789 129.6201 l 5
 604.789 33.6201 l 21
 605.1308 33.163 605.4921 32.7158 605.872 32.2773 c 5
 614.5556 22.2646 629.7294 21.1787 639.7353 29.8564 c 5
 640.1728 30.2353 640.5927 30.6269 640.996 31.0302 c 13
 664.9667 55.0332 l 21
 669.3037 59.3828 671.9921 65.3818 671.9921 72.0029 c 5
 671.9921 85.247 661.2402 95.999 647.997 95.999 c 5
 641.375 95.999 635.3759 93.3105 631.0332 88.9667 c 5
 607.0332 64.9667 l 5
 643.2109 62.3798 l 5
 571.2451 158.3789 l 21
 570.6416 159.1845 569.9794 159.9609 569.2607 160.7021 c 5
 560.0371 170.2197 544.8222 170.4589 535.3056 161.2353 c 5
 534.5644 160.5166 533.8789 159.7617 533.25 158.9755 c 13
 437.25 38.9755 l 5
 474.75 38.9755 l 5
 378.7832 158.9765 l 21
 378.1552 159.7626 377.4697 160.5175 376.7275 161.2363 c 5
 367.2119 170.4589 351.997 170.2207 342.7724 160.7031 c 5
 342.0537 159.9619 341.3925 159.1855 340.789 158.3798 c 13
 268.789 62.3798 l 5
 304.9667 64.9667 l 5
 280.9667 88.9667 l 5
 276.624 93.3105 270.625 95.999 264.0029 95.999 c 5
 250.7597 95.999 240.0078 85.247 240.0078 72.0029 c 5
 240.0078 65.3818 242.6962 59.3828 247.0332 55.0332 c 13
264 72 m 5
 288 48 l 5
 360 144 l 5
 456 24 l 5
 552 144 l 5
 624 48 l 5
 648 72 l 1029
EndSplineSet
Fore
Refer: 17 -1 N 1 0 0 1 0 0 0
Refer: 10 -1 N 1 0 0 -1 744 432 0
Refer: 10 -1 N -1 0 0 -1 168 432 0
Refer: 18 -1 S -1 0 0 1 720 360 0
Refer: 18 -1 S 1 0 0 1 192 360 0
Colour: ffff
EndChar
StartChar: ConfusedFace.1
Encoding: 292 -1 292
Width: 912
Flags: MW
LayerCount: 2
Back
SplineSet
888 288 m 0
 888 49.416 694.5839 -144 456 -144 c 0
 217.4404 -144 24 49.416 24 288 c 0
 24 526.5595 217.4404 720 456 720 c 0
 694.5839 720 888 526.5595 888 288 c 1024
240 324 m 0
 240 277.6083 266.8632 240 300 240 c 0
 333.1367 240 360 277.6083 360 324 c 0
 360 370.3916 333.1367 408 300 408 c 0
 266.8632 408 240 370.3916 240 324 c 0
552 324 m 0
 552 277.6083 578.8632 240 612 240 c 0
 645.1367 240 672 277.6083 672 324 c 0
 672 370.3916 645.1367 408 612 408 c 0
 578.8632 408 552 370.3916 552 324 c 0
312 48 m 1
 360 168 624 168 624 120 c 0
 624 96 432 144 312 48 c 1
EndSplineSet
Fore
Refer: 190 -1 N 1 0 0 1 0 0 0
Refer: 39 -1 N 1 0 0 1 624 120 0
Colour: ffff
EndChar
StartChar: CowboyHatFace.1
Encoding: 264 -1 263
Width: 912
Flags: MW
LayerCount: 2
Back
SplineSet
816 216 m 0
 816 17.1835 654.8164 -144 456 -144 c 0
 257.1835 -144 96 17.1835 96 216 c 0
 96 414.8164 257.1835 576 456 576 c 0
 654.8164 576 816 414.8164 816 216 c 1024
640.5117 105.4804 m 0
 637.0078 108.6718 631.7275 108.8642 627.9843 106.0322 c 0
 627.2158 105.4804 550.4638 48.6962 456.0244 48.6962 c 0
 361.8242 48.6962 284.832 105.456 284.0644 106.0322 c 0
 280.2958 108.8398 275.04 108.5996 271.5117 105.4804 c 0
 268.0078 102.3115 267.2158 97.08 269.664 93.0722 c 0
 272.1835 88.7998 333.2158 -10.5595 456 -10.5595 c 0
 578.7597 -10.5595 639.8164 88.8242 642.3603 93.0478 c 0
 644.7841 97.1035 644.0156 102.3115 640.5117 105.4804 c 0
376.9443 245.6396 m 0
 376.9443 207.4082 354.8164 176.4482 327.5283 176.4482 c 0
 300.2402 176.4482 278.1123 207.4082 278.1123 245.6396 c 0
 278.1123 283.8242 300.2158 314.8076 327.5283 314.8076 c 0
 354.8398 314.8076 376.9443 283.8476 376.9443 245.6396 c 0
633.8876 245.6396 m 0
 633.8876 207.4082 611.7597 176.4482 584.4482 176.4482 c 0
 557.1601 176.4482 535.0322 207.4082 535.0322 245.6396 c 0
 535.0322 283.8242 557.1601 314.8076 584.4482 314.8076 c 0
 611.7597 314.832 633.8876 283.8476 633.8876 245.6396 c 0
792 572.8798 m 0
 763.4404 538.2958 715.6318 526.0556 670.1757 521.9755 c 0
 662.5439 558.8876 629.7841 696 564 696 c 0
 506.3281 696 485.5439 669.8164 456 669.8164 c 0
 426.456 669.8164 405.6718 696 348 696 c 0
 282.2158 696 249.456 558.8876 241.8242 521.9755 c 0
 196.3681 526.0556 148.5595 538.3203 120 572.8798 c 0
 68.3281 635.4238 0 589.3437 34.6083 520.7041 c 0
 89.2802 412.2958 221.5195 336 456 336 c 0
 690.456 336 822.6962 412.2958 877.3916 520.7041 c 0
 912 589.3437 843.6718 635.4238 792 572.8798 c 0
540 648 m 0
 495.1435 648 478.9677 624.8642 456 624.8642 c 0
 433.0322 624.8642 416.8564 648 372 648 c 0
 312.8876 648 288 486 288 486 c 1
 288 486 318.7675 432 456 432 c 0
 593.2558 432 624 486 624 486 c 1
 624 486 599.1123 648 540 648 c 0
288 576 m 1
 288 576 337.7763 528 456 528 c 0
 574.248 528 624 576 624 576 c 1
 624 528 l 1
 624 528 570.6718 480 456 480 c 0
 341.3281 480 288 528 288 528 c 1
 288 576 l 1
EndSplineSet
Fore
Refer: 189 -1 S 0.823 0 0 0.823 81 -21 0
Refer: 9 -1 N 0.823 0 0 0.823 456 -11 0
Colour: ffff
EndChar
StartChar: CowboyHatFace.2
Encoding: 265 -1 265
Width: 912
Flags: MW
LayerCount: 2
Back
SplineSet
96 216 m 0
 96 17.1777 257.1777 -144 456 -144 c 0
 654.8222 -144 816 17.1777 816 216 c 0
 816 414.8222 654.8222 576 456 576 c 0
 257.1777 576 96 414.8222 96 216 c 0
792 572.8798 m 0
 809.124 593.6074 828.0771 602.4042 844.5078 602.4042 c 0
 868.2939 602.4042 886.791 583.9658 886.791 556.5927 c 0
 886.791 545.8203 883.9257 533.664 877.3916 520.7041 c 0
 822.6962 412.2958 690.456 336 456 336 c 0
 221.5195 336 89.2802 412.2958 34.6083 520.7041 c 0
 28.0742 533.664 25.2089 545.8203 25.2089 556.5927 c 0
 25.2089 583.9658 43.706 602.4042 67.4921 602.4042 c 0
 83.9228 602.4042 102.8759 593.6074 120 572.8798 c 0
 148.5595 538.3203 196.3681 526.0556 241.8242 521.9755 c 0
 249.456 558.8876 282.2158 696 348 696 c 0
 381.6132 696 402.6962 687.1054 420.2861 679.6845 c 0
 432.875 674.373 443.6757 669.8164 456 669.8164 c 0
 468.3242 669.8164 479.125 674.373 491.7138 679.6845 c 0
 509.3037 687.1054 530.3867 696 564 696 c 0
 629.7841 696 662.5439 558.8876 670.1757 521.9755 c 0
 715.6318 526.0556 763.4404 538.2958 792 572.8798 c 0
540 648 m 0
 599.1123 648 624 486 624 486 c 1
 624 486 593.2558 432 456 432 c 0
 318.7675 432 288 486 288 486 c 1
 288 486 312.8876 648 372 648 c 0
 416.8564 648 433.0322 624.8642 456 624.8642 c 0
 478.9677 624.8642 495.1435 648 540 648 c 0
288 576 m 1
 288 576 337.7763 528 456 528 c 0
 574.248 528 624 576 624 576 c 1
 624 528 l 1
 624 528 570.6718 480 456 480 c 0
 341.3281 480 288 528 288 528 c 1
 288 576 l 1
EndSplineSet
Fore
SplineSet
25 557 m 0,0,1
 25 577 25 577 37 589.5 c 128,-1,2
 49 602 49 602 68 602 c 0,3,4
 95 602 95 602 120 573 c 0,5,6
 155 530 155 530 242 522 c 1,7,8
 255 589 255 589 283 642.5 c 128,-1,9
 311 696 311 696 348 696 c 128,-1,10
 385 696 385 696 420 680 c 0,11,12
 441 670 441 670 456 670 c 128,-1,13
 471 670 471 670 492 680 c 0,14,15
 527 696 527 696 564 696 c 128,-1,16
 601 696 601 696 629 642.5 c 128,-1,17
 657 589 657 589 670 522 c 1,18,19
 757 530 757 530 792 573 c 0,20,21
 817 602 817 602 844 602 c 0,22,23
 863 602 863 602 875 589.5 c 128,-1,24
 887 577 887 577 887 557 c 0,25,26
 887 539 887 539 877 520 c 0,27,28
 779 336 779 336 456 336 c 128,-1,29
 133 336 133 336 35 520 c 0,30,31
 25 539 25 539 25 557 c 0,0,1
EndSplineSet
Colour: ffff
EndChar
StartChar: CowboyHatFace.3
Encoding: 266 -1 265
Width: 912
Flags: MW
LayerCount: 2
Back
SplineSet
430 651 m 0
 439.791 646.3076 448.1884 642.2822 457.7685 642.2822 c 0
 467.3486 642.2822 475.747 646.3076 485.5371 651 c 1024
540 648 m 0
 599.1123 648 624 486 624 486 c 1
 624 486 593.2558 432 456 432 c 0
 318.7675 432 288 486 288 486 c 1
 288 486 312.8876 648 372 648 c 0
 398.1464 648 414.5488 640.1386 428.2314 633.582 c 0
 438.0214 628.8896 446.4199 624.8642 456 624.8642 c 0
 465.58 624.8642 473.9785 628.8896 483.7685 633.582 c 0
 497.4511 640.1386 513.8535 648 540 648 c 0
EndSplineSet
Fore
SplineSet
288 486 m 1,0,1
 319 648 319 648 373 648 c 0,2,3
 400 648 400 648 430 633 c 0,4,5
 438 629 438 629 443.5 627 c 128,-1,6
 449 625 449 625 456 625 c 128,-1,7
 463 625 463 625 468.5 627 c 128,-1,8
 474 629 474 629 482 633 c 0,9,10
 512 648 512 648 539 648 c 0,11,12
 593 648 593 648 624 486 c 1,13,14
 607 462 607 462 563.5 447 c 128,-1,15
 520 432 520 432 456 432 c 128,-1,16
 392 432 392 432 348.5 447 c 128,-1,17
 305 462 305 462 288 486 c 1,0,1
EndSplineSet
Colour: ffff
EndChar
StartChar: CowboyHatFace.4
Encoding: 267 -1 266
Width: 912
Flags: MW
LayerCount: 2
Back
SplineSet
96 216 m 0
 96 17.1777 257.1777 -144 456 -144 c 0
 654.8222 -144 816 17.1777 816 216 c 0
 816 414.8222 654.8222 576 456 576 c 0
 257.1777 576 96 414.8222 96 216 c 0
792 572.8798 m 0
 809.124 593.6074 828.0771 602.4042 844.5078 602.4042 c 0
 868.2939 602.4042 886.791 583.9658 886.791 556.5927 c 0
 886.791 545.8203 883.9257 533.664 877.3916 520.7041 c 0
 822.6962 412.2958 690.456 336 456 336 c 0
 221.5195 336 89.2802 412.2958 34.6083 520.7041 c 0
 28.0742 533.664 25.2089 545.8203 25.2089 556.5927 c 0
 25.2089 583.9658 43.706 602.4042 67.4921 602.4042 c 0
 83.9228 602.4042 102.8759 593.6074 120 572.8798 c 0
 148.5595 538.3203 196.3681 526.0556 241.8242 521.9755 c 0
 249.456 558.8876 282.2158 696 348 696 c 0
 381.6132 696 402.6962 687.1054 420.2861 679.6845 c 0
 432.875 674.373 443.6757 669.8164 456 669.8164 c 0
 468.3242 669.8164 479.125 674.373 491.7138 679.6845 c 0
 509.3037 687.1054 530.3867 696 564 696 c 0
 629.7841 696 662.5439 558.8876 670.1757 521.9755 c 0
 715.6318 526.0556 763.4404 538.2958 792 572.8798 c 0
540 648 m 0
 599.1123 648 624 486 624 486 c 1
 624 486 593.2558 432 456 432 c 0
 318.7675 432 288 486 288 486 c 1
 288 486 312.8876 648 372 648 c 0
 416.8564 648 433.0322 624.8642 456 624.8642 c 0
 478.9677 624.8642 495.1435 648 540 648 c 0
288 576 m 1
 288 576 337.7763 528 456 528 c 0
 574.248 528 624 576 624 576 c 1
 624 528 l 1
 624 528 570.6718 480 456 480 c 0
 341.3281 480 288 528 288 528 c 1
 288 576 l 1
EndSplineSet
Fore
SplineSet
288 527 m 1,0,-1
 288 575 l 1,1,2
 352 528 352 528 456 528 c 128,-1,3
 560 528 560 528 624 575 c 1,4,-1
 624 527 l 1,5,6
 556 480 556 480 456 480 c 128,-1,7
 356 480 356 480 288 527 c 1,0,-1
EndSplineSet
Colour: ffff
EndChar
StartChar: CryingFace.1
Encoding: 320 -1 320
Width: 912
Flags: MW
LayerCount: 2
Back
SplineSet
888 288 m 0
 888 49.416 694.5839 -144 456 -144 c 0
 217.4404 -144 24 49.416 24 288 c 0
 24 526.5595 217.4404 720 456 720 c 0
 694.5839 720 888 526.5595 888 288 c 1024
240 312 m 0
 240 265.6083 266.8632 228 300 228 c 0
 333.1367 228 360 265.6083 360 312 c 0
 360 358.3916 333.1367 396 300 396 c 0
 266.8632 396 240 358.3916 240 312 c 0
552 312 m 0
 552 265.6083 578.8632 228 612 228 c 0
 645.1367 228 672 265.6083 672 312 c 0
 672 358.3916 645.1367 396 612 396 c 0
 578.8632 396 552 358.3916 552 312 c 0
167.9755 396 m 0
 162.9843 396 157.9199 397.5595 153.5996 400.7998 c 0
 142.9921 408.7441 140.8564 423.7919 148.7998 434.4003 c 0
 227.0878 538.7998 331.5839 540 336 540 c 0
 349.248 540 360 529.248 360 516 c 0
 360 502.7763 349.3203 492.0478 336.0957 492 c 0
 332.3759 491.9521 250.4638 489.9355 187.2001 405.5996 c 0
 182.496 399.3115 175.2724 396 167.9755 396 c 0
744.0244 396 m 0
 736.7041 396 729.5283 399.3115 724.7998 405.5996 c 0
 661.416 490.1035 579.3359 491.9755 575.8564 492 c 0
 562.6562 492.1435 552 502.9443 552.0722 516.1201 c 0
 552.1435 529.3437 562.7998 540 576 540 c 0
 580.416 540 684.8876 538.7998 763.2001 434.4003 c 0
 771.1679 423.7919 769.0078 408.7441 758.4003 400.7998 c 0
 754.08 397.5595 749.04 396 744.0244 396 c 0
587.6396 38.9042 m 0
 587.3759 39.9599 560.1601 144 456 144 c 0
 351.8398 144 324.624 39.9599 324.3603 38.9042 c 0
 323.0878 33.7919 325.416 28.5595 329.9277 25.8476 c 0
 334.4404 23.1601 340.3203 23.7841 344.2324 27.288 c 0
 344.4482 27.4804 368.5439 48 456 48 c 0
 542.1601 48 566.8076 28.08 567.7441 27.288 c 0
 570.0244 25.1279 573 24 576 24 c 0
 578.0156 24 580.0556 24.5039 581.9042 25.5361 c 0
 586.6083 28.2236 588.9599 33.6718 587.6396 38.9042 c 0
408 -24 m 0
 408 -90.288 354.288 -144 288 -144 c 0
 221.7119 -144 168 -90.288 168 -24 c 0
 168 42.288 264 216 288 216 c 0
 312 216 408 42.288 408 -24 c 0
EndSplineSet
Fore
Refer: 315 -1 S 1 0 0 1 0 -12 0
Refer: 10 -1 S -1 0 0 1 576 516 0
Refer: 10 -1 S 1 0 0 1 336 516 0
Colour: ffff
EndChar
StartChar: DashingAway.0
Encoding: 356 -1 355
Width: 912
Flags: MW
LayerCount: 2
Back
SplineSet
888 360 m 0
 887.9179 284.8593 844.7646 219.8779 781.7519 188.4238 c 1
 803.2919 154.8818 815.9423 114.7744 816 72 c 0
 816 -47.2138 719.2138 -144 600 -144 c 0
 523.3818 -143.9257 456.1806 -104.1005 417.8876 -43.8242 c 0
 406.9921 -46.4638 395.6884 -48 384 -48 c 0
 304.4882 -48 240 -7.5117 240 72 c 0
 240 75.4804 240.456 78.8164 240.7197 82.2236 c 0
 185.3759 95.208 104.6884 124.7519 24 192 c 1
 24 192 192 168 384 168 c 1
 384 168 384 210.3837 393.7441 213.456 c 1
 96 234.3837 24 312 24 312 c 1
 24 312 168 292.9199 360 292.9199 c 0
 370.9677 292.9199 379.2724 293.0644 385.2236 293.1357 c 0
 386.496 301.6796 388.9677 328.4882 392.5683 336 c 1
 139.5839 339.7197 24 431.6396 24 431.6396 c 1
 122.2558 417.5996 236.6162 420 314.9042 424.416 c 1
 294 445.5117 288 487.4882 288 515.2558 c 0
 288 634.5361 384.6962 720 504 720 c 0
 606.958 719.9433 693.1591 647.5595 714.6962 551.04 c 0
 811.7958 541.54 887.9755 459.5722 888 360 c 0
EndSplineSet
Refer: 4 -1 N 0.5 0 0 0.5 696 360 0
Refer: 4 -1 N 0.5625 0 0 0.5625 599 72 0
Fore
SplineSet
24 192 m 1,0,1
 207 168 207 168 384 168 c 1,2,3
 385 210 385 210 394 214 c 1,4,5
 252 223 252 223 156 251 c 128,-1,6
 60 279 60 279 24 312 c 1,7,8
 175 293 175 293 385 293 c 1,9,10
 389 324 389 324 392 336 c 1,11,12
 265 339 265 339 171 366 c 128,-1,13
 77 393 77 393 24 432 c 1,14,15
 144 415 144 415 315 424 c 1,16,17
 288 456 288 456 288 515 c 0,18,19
 288 603 288 603 351 661.5 c 128,-1,20
 414 720 414 720 504 720 c 0,21,22
 580 720 580 720 639 672 c 128,-1,23
 698 624 698 624 715 551 c 1,24,25
 790 542 790 542 839 487.5 c 128,-1,26
 888 433 888 433 888 360 c 0,27,28
 888 304 888 304 858.5 258 c 128,-1,29
 829 212 829 212 782 188 c 1,30,31
 816 135 816 135 816 72 c 0,32,33
 816 -17 816 -17 752.5 -80.5 c 128,-1,34
 689 -144 689 -144 600 -144 c 0,35,36
 546 -144 546 -144 497.5 -118 c 128,-1,37
 449 -92 449 -92 418 -44 c 1,38,39
 400 -48 400 -48 384 -48 c 0,40,41
 320 -48 320 -48 280 -16 c 128,-1,42
 240 16 240 16 240 72 c 0,43,44
 240 77 240 77 241 82 c 1,45,46
 123 110 123 110 24 192 c 1,0,1
EndSplineSet
Colour: ffff
EndChar
StartChar: DisappointedFace.1
Encoding: 331 -1 330
Width: 912
Flags: MW
LayerCount: 2
Back
SplineSet
24 288 m 0
 24 49.413 217.413 -144 456 -144 c 0
 694.5869 -144 888 49.413 888 288 c 0
 888 526.5869 694.5869 720 456 720 c 0
 217.413 720 24 526.5869 24 288 c 0
587.6396 26.9042 m 0
 587.3759 27.9599 560.1601 132 456 132 c 0
 351.8398 132 324.624 27.9599 324.3603 26.9042 c 0
 323.0878 21.7919 325.416 16.5595 329.9277 13.8476 c 0
 334.4404 11.1601 340.3203 11.7841 344.2324 15.288 c 0
 344.4482 15.4804 368.5439 36 456 36 c 0
 542.1601 36 566.8076 16.08 567.7441 15.288 c 0
 570.0244 13.1279 573 12 576 12 c 0
 578.0156 12 580.0556 12.5039 581.9042 13.5361 c 0
 586.6083 16.2236 588.9599 21.6718 587.6396 26.9042 c 0
293.4238 347.7119 m 0
 285.8164 347.7119 278.1601 346.7763 270.6962 344.9277 c 0
 201.8164 327.9599 186.3837 246.0244 185.7597 242.5195 c 0
 184.7998 237.1679 187.5839 231.8876 192.5039 229.5595 c 0
 194.1123 228.8164 195.8642 228.4316 197.5683 228.4316 c 0
 201.0478 228.4316 204.456 229.9443 206.8076 232.7519 c 0
 207.0478 233.04 231.0478 261.0244 287.9042 275.0156 c 0
 305.04 279.2402 321.7919 281.3759 337.6562 281.3759 c 0
 364.1523 281.3759 379.2236 275.3037 379.2958 275.2802 c 0
 380.9042 274.6083 382.4404 274.3203 384.2636 274.3203 c 0
 390.7919 274.0322 396.4804 279.624 396.4804 286.3203 c 0
 396.4804 290.2802 394.5595 293.7841 391.6083 295.9677 c 0
 382.7998 306.4082 344.7363 347.7119 293.4238 347.7119 c 0
618.5761 347.7119 m 0
 626.1835 347.7119 633.8398 346.7763 641.3037 344.9277 c 0
 710.1835 327.9599 725.6162 246.0244 726.2402 242.5195 c 0
 727.2001 237.1679 724.416 231.8876 719.496 229.5595 c 0
 717.8876 228.8164 716.1357 228.4316 714.4316 228.4316 c 0
 710.9521 228.4316 707.5439 229.9443 705.1923 232.7519 c 0
 704.9521 233.04 680.9521 261.0244 624.0957 275.0156 c 0
 606.9599 279.2402 590.208 281.3759 574.3437 281.3759 c 0
 547.8476 281.3759 532.7998 275.3037 532.7041 275.2802 c 0
 531.0957 274.6083 529.5595 274.3203 527.7597 274.3203 c 0
 521.2324 274.0322 515.5439 279.624 515.5439 286.3203 c 0
 515.5439 290.2802 517.4638 293.7841 520.416 295.9677 c 0
 529.2001 306.4082 567.2636 347.7119 618.5761 347.7119 c 0
EndSplineSet
Fore
Refer: 11 -1 N -0.971009 0.239042 -0.239042 -0.971009 641 345 0
Refer: 11 -1 N -0.971009 -0.239042 0.239042 -0.971009 271 345 0
Refer: 6 -1 N -1 0 0 -1 456 132 0
Colour: ffff
EndChar
StartChar: DisguisedFace.2
Encoding: 279 -1 278
Width: 912
Flags: MW
LayerCount: 2
Back
SplineSet
24 288 m 4
 24 49.413 217.413 -144 456 -144 c 4
 694.5869 -144 888 49.413 888 288 c 4
 888 526.5869 694.5869 720 456 720 c 4
 217.413 720 24 526.5869 24 288 c 4
662.9755 383.4238 m 4
 662.9755 342.288 640.4638 308.9277 612.6718 308.9277 c 4
 584.9042 308.9277 562.3681 342.288 562.3681 383.4238 c 4
 562.3681 424.5595 584.8798 457.9199 612.6718 457.9199 c 4
 640.4638 457.9199 662.9755 424.5595 662.9755 383.4238 c 4
250.9677 383.4238 m 4
 250.9677 342.288 273.4804 308.9277 301.2724 308.9277 c 4
 329.04 308.9277 351.5761 342.288 351.5761 383.4238 c 4
 351.5761 424.5595 329.0644 457.9199 301.2724 457.9199 c 4
 273.4804 457.9199 250.9677 424.5595 250.9677 383.4238 c 4
716.2558 110.6396 m 6
 598.416 145.5839 l 6
 598.5117 146.8076 313.4638 146.8076 313.5839 145.5839 c 6
 195.7197 110.6396 l 6
 176.7363 104.9755 165.7197 84.4316 171.1679 64.7519 c 4
 175.6562 48.4316 189.9843 37.8242 205.5361 37.8242 c 4
 208.7763 37.8242 212.1123 38.3037 215.4003 39.2402 c 6
 284.4716 59.7119 l 5
 276.7441 48.8398 274.6562 34.1523 280.8964 21.2158 c 4
 287.1601 8.208 299.8076 0.6962 312.9355 0.6962 c 4
 318.288 0.6962 323.7597 1.9677 328.8964 4.6083 c 6
 385.2958 33.8642 l 5
 386.5917 21.7441 392.9277 8.1357 404.208 2.3037 c 4
 409.3437 -0.3359 414.8164 -1.6083 420.1679 -1.6083 c 4
 433.2958 -1.6083 445.9443 8.208 452.208 21.2158 c 6
 456 29.04 l 5
 459.7675 21.2158 l 6
 466.0322 8.208 478.6796 -1.6083 491.8076 -1.6083 c 4
 497.1835 -1.6083 502.6318 -0.3359 507.7675 2.3037 c 4
 519.0478 8.1357 525.4082 21.7675 526.7041 33.8642 c 5
 583.1035 4.6083 l 6
 588.2402 1.9677 593.6884 0.6962 599.0644 0.6962 c 4
 612.1923 0.6962 624.8164 8.208 631.1035 21.2158 c 4
 637.3203 34.1523 635.2558 48.8398 627.5517 59.7119 c 5
 696.624 39.2402 l 6
 699.9121 38.3037 703.2001 37.8242 706.4882 37.8242 c 4
 722.04 37.8242 736.3681 48.456 740.8564 64.7519 c 4
 746.2802 84.4316 735.2636 104.9755 716.2558 110.6396 c 6
600 153.5996 m 4
 600 177.456 569.9042 216 532.7998 216 c 6
 532.248 215.9755 l 6
 527.4482 304.7998 491.7363 436.7998 456 436.7998 c 4
 420.8876 436.7998 385.8242 305.3515 380.04 215.9521 c 6
 379.2001 216 l 6
 342.0957 216 312 177.456 312 153.5996 c 4
 312 131.2802 362.4716 121.2958 400.416 104.3759 c 4
 412.5361 93.8642 430.4882 91.2001 456 91.2001 c 4
 477.624 91.2001 493.8476 93.7675 505.6562 101.5683 c 4
 544.0322 120.2636 600 130.08 600 153.5996 c 4
532.7998 148.7998 m 4
 527.5683 147.8642 534.1201 158.4003 534.1201 184.5361 c 4
 534.1201 196.7998 532.7998 206.4003 532.7998 216 c 5
 542.4003 216 553.0078 216 553.0078 187.9443 c 4
 553.0078 172.0322 538.0322 149.7363 532.7998 148.7998 c 4
378.1679 148.7998 m 4
 380.8681 148.3173 380.4296 150.8906 379.373 157.0869 c 4
 378.3818 162.8964 376.8476 171.8906 376.8476 184.5361 c 4
 376.8476 191.0429 377.2197 196.7998 377.5683 202.205 c 4
 377.8769 206.9873 378.1679 211.4941 378.1679 216 c 5
 368.5683 216 357.9599 216 357.9599 187.9443 c 4
 357.9843 172.0322 372.9599 149.7363 378.1679 148.7998 c 4
369.6718 135.5761 m 4
 354.7441 139.9199 340.7998 137.5195 334.1279 130.7041 c 5
 351.4316 122.1835 375.8642 114.8642 397.2724 105.6718 c 6
 397.3203 105.7197 l 6
 400.5361 116.8076 388.1757 130.2001 369.6718 135.5761 c 4
542.3281 135.5761 m 4
 523.8242 130.1757 511.4638 116.8076 514.7041 105.7197 c 6
 514.7998 105.5996 l 6
 536.1835 114.7919 560.6162 122.1357 577.9199 130.6562 c 5
 571.248 137.5195 557.2802 139.9443 542.3281 135.5761 c 4
859.3916 488.9521 m 4
 855.288 492.9355 828.9843 482.3759 802.3681 495.9355 c 4
 747.456 523.9199 608.6884 550.9199 518.3515 486.9121 c 4
 508.6796 480.0722 468.2636 478.9199 456.9599 479.4003 c 4
 445.6562 478.8964 405.2402 480.0478 395.5683 486.9121 c 4
 305.2558 550.9199 166.4882 523.9199 111.5761 495.9355 c 4
 84.9599 482.3759 58.6562 492.9355 54.5517 488.9521 c 4
 48.624 483.2158 48.624 460.248 54.5761 454.4882 c 4
 60.4804 448.7519 90.0244 442.1279 95.9042 424.9199 c 4
 101.832 407.6884 101.8798 305.9277 149.0156 270.7441 c 4
 193.1523 237.8164 296.1123 227.9042 361.3681 265.0322 c 4
 418.2958 297.4082 416.3037 365.5683 426.7441 406.1757 c 4
 430.4638 420.6484 440.9521 427.9443 456.9843 427.9443 c 4
 473.0156 427.9443 483.5039 420.6484 487.2236 406.1757 c 4
 497.664 365.5917 495.6484 297.4082 552.5996 265.0322 c 4
 617.8564 227.9277 720.8164 237.8398 764.9277 270.7441 c 4
 812.0878 305.9042 812.1357 407.6884 818.04 424.9199 c 4
 823.9199 442.1279 853.4638 448.7763 859.3681 454.4882 c 4
 865.3203 460.248 865.3437 483.2158 859.3916 488.9521 c 4
374.7363 401.3515 m 4
 372.8876 374.832 368.1601 323.9042 336.4082 305.832 c 4
 316.9443 294.7441 291.5761 288 265.0322 288 c 6
 265.0078 288 l 6
 235.6083 288 194.8564 296.3281 178.9199 308.208 c 4
 159 323.0644 151.416 384.2158 148.5595 407.0878 c 4
 146.7363 421.6562 141.8398 457.248 157.872 462.7197 c 4
 183.3115 471.3837 218.8076 478.1523 255.1201 478.1523 c 4
 271.7519 478.1523 327.624 477.1201 354.8398 460.3681 c 4
 378.9599 445.5595 375.7675 415.9443 374.7363 401.3515 c 4
765.4082 407.4238 m 4
 762.5517 384.5283 754.9677 323.0644 735.0478 308.208 c 4
 719.1123 296.3281 678.3603 288 648.9599 288 c 6
 648.9355 288 l 6
 622.3681 288 597.0244 294.7441 577.5361 305.832 c 4
 545.7841 323.8798 541.0556 374.496 539.208 401.0156 c 4
 538.2001 415.6083 534.9843 445.4404 559.1035 460.248 c 4
 586.3437 477 642.1923 478.1523 658.8242 478.1523 c 4
 695.1357 478.1523 730.6083 471.5039 756.0722 462.8398 c 4
 772.1035 457.3681 767.2324 421.9921 765.4082 407.4238 c 4
368.0878 475.4404 m 6
 368.0878 475.4404 366.6484 552.5761 336.6484 576.8642 c 4
 305.0644 602.4238 279.5039 562.5839 279.5039 562.5839 c 5
 279.5039 562.5839 273.456 614.0156 239.1835 609.7197 c 4
 204.9121 605.4238 206.3281 572.5683 206.3281 572.5683 c 5
 206.3281 572.5683 186.6484 616.8476 149.1835 601.1279 c 4
 112.7519 585.8398 130.9443 552.5517 130.9443 552.5517 c 5
 130.9443 552.5517 103.4638 562.3916 90.9599 542.5683 c 4
 73.7998 515.4238 114.9121 493.9921 114.9121 493.9921 c 5
 114.9121 493.9921 200.6162 513.9843 243.4804 512.5683 c 4
 286.3437 511.1523 368.0878 475.4404 368.0878 475.4404 c 6
543.9121 475.4404 m 5
 543.9121 475.4404 545.3515 552.5761 575.3515 576.8642 c 4
 606.9355 602.4238 632.496 562.5839 632.496 562.5839 c 5
 632.496 562.5839 638.5439 614.0156 672.8164 609.7197 c 4
 707.1123 605.4238 705.6718 572.5683 705.6718 572.5683 c 5
 705.6718 572.5683 725.3515 616.8476 762.8164 601.1279 c 4
 799.248 585.8398 781.0556 552.5517 781.0556 552.5517 c 5
 781.0556 552.5517 808.5361 562.3681 821.0644 542.5439 c 4
 838.2001 515.4003 797.1123 493.9677 797.1123 493.9677 c 5
 797.1123 493.9677 711.4082 513.9599 668.5439 512.5439 c 4
 625.6562 511.1523 543.9121 475.4404 543.9121 475.4404 c 5
EndSplineSet
Fore
SplineSet
91 543 m 0,0,1
 74 516 74 516 123 489 c 1,2,-1
 368 489 l 1,3,4
 356 591 356 591 310 585 c 0,5,6
 292 581 292 581 280 563 c 1,7,8
 270 610 270 610 243 610 c 0,9,10
 209 608 209 608 206 573 c 1,11,12
 183 615 183 615 149 601 c 0,13,14
 116 586 116 586 131 553 c 1,15,16
 103 560 103 560 91 543 c 0,0,1
171 65 m 129,-1,18
 167 80 167 80 174.5 93.5 c 129,-1,19
 182 107 182 107 197 111 c 9,20,21
 197 111 197 111 315 146 c 1,22,-1
 597 146 l 1,23,-1
 715 111 l 17,24,25
 730 107 730 107 737.5 93.5 c 129,-1,26
 745 80 745 80 741 65 c 129,-1,27
 737 50 737 50 724 42.5 c 129,-1,28
 711 35 711 35 697 39 c 9,29,-1
 627 60 l 1,30,31
 633 53 633 53 634.5 42.5 c 129,-1,32
 636 32 636 32 631 21 c 1,33,34
 624 7 624 7 610 2.5 c 129,-1,35
 596 -2 596 -2 582 5 c 9,36,-1
 527 34 l 1,37,38
 523 11 523 11 509 3 c 129,-1,39
 495 -5 495 -5 481 0.5 c 129,-1,40
 467 6 467 6 460 21 c 9,41,-1
 456 29 l 1,42,-1
 452 21 l 1,43,44
 445 6 445 6 431 0.5 c 129,-1,45
 417 -5 417 -5 403 3 c 129,-1,46
 389 11 389 11 385 34 c 1,47,48
 385 34 385 34 330 5 c 17,49,50
 316 -2 316 -2 302 2.5 c 129,-1,51
 288 7 288 7 281 21 c 1,52,53
 276 32 276 32 277.5 42.5 c 129,-1,54
 279 53 279 53 285 60 c 1,55,56
 285 60 285 60 215 39 c 17,57,58
 201 35 201 35 188 42.5 c 129,-1,17
 175 50 175 50 171 65 c 129,-1,18
544 489 m 1,59,60
 556 591 556 591 602 585 c 0,61,62
 620 581 620 581 632 563 c 1,63,64
 642 610 642 610 669 610 c 0,65,66
 703 608 703 608 706 573 c 1,67,68
 729 615 729 615 763 601 c 0,69,70
 796 586 796 586 781 553 c 1,71,72
 809 560 809 560 821 543 c 0,73,74
 838 516 838 516 789 489 c 1,75,-1
 544 489 l 1,59,60
EndSplineSet
Colour: ffff
EndChar
StartChar: DisguisedFace.3
Encoding: 280 -1 279
Width: 912
Flags: MW
LayerCount: 2
Fore
SplineSet
312 154 m 1,0,1
 312 173 312 173 332.5 194.5 c 129,-1,2
 353 216 353 216 380 216 c 1,3,4
 388 306 388 306 411 371.5 c 129,-1,5
 434 437 434 437 456 437 c 129,-1,6
 478 437 478 437 501 371.5 c 129,-1,7
 524 306 524 306 532 216 c 1,8,9
 559 216 559 216 579.5 194.5 c 129,-1,10
 600 173 600 173 600 154 c 1,11,12
 600 141 600 141 579 131 c 1,13,14
 515 106 515 106 515 106 c 1,15,16
 506 102 506 102 506 102 c 1,17,18
 491 91 491 91 456 91 c 1,19,20
 413 91 413 91 400 105 c 1,21,22
 333 131 333 131 333 131 c 1,23,24
 312 141 312 141 312 154 c 1,0,1
EndSplineSet
Colour: ffff
EndChar
StartChar: DisguisedFace.4
Encoding: 281 -1 280
Width: 912
Flags: MW
LayerCount: 2
Fore
SplineSet
358 188 m 1,0,1
 358 177 358 177 365.5 164 c 129,-1,2
 373 151 373 151 378 149 c 1,3,4
 382 147 382 147 379 159 c 1,5,6
 376 178 376 178 377 193 c 129,-1,7
 378 208 378 208 378 216 c 1,8,9
 366 217 366 217 362 209.5 c 129,-1,10
 358 202 358 202 358 188 c 1,0,1
532 159 m 1,11,12
 535 178 535 178 534 193 c 129,-1,13
 533 208 533 208 533 216 c 1,14,15
 545 217 545 217 549 209.5 c 129,-1,16
 553 202 553 202 553 188 c 1,17,18
 553 177 553 177 545.5 164 c 129,-1,19
 538 151 538 151 533 149 c 1,20,21
 529 147 529 147 532 159 c 1,11,12
EndSplineSet
Colour: ffff
EndChar
StartChar: DisguisedFace.5
Encoding: 282 -1 282
Width: 912
Flags: MW
LayerCount: 2
Fore
SplineSet
334 130 m 1,0,1
 334 128 334 128 397 105 c 1,2,3
 401 116 401 116 387.5 126.5 c 129,-1,4
 374 137 374 137 357 137.5 c 129,-1,5
 340 138 340 138 334 130 c 1,0,1
515 105 m 1,6,7
 511 116 511 116 524.5 126.5 c 129,-1,8
 538 137 538 137 555 137.5 c 129,-1,9
 572 138 572 138 578 130 c 1,10,11
 578 128 578 128 515 105 c 1,6,7
EndSplineSet
Colour: ffff
EndChar
StartChar: Dizzy.0
Encoding: 354 -1 354
Width: 912
Flags: MW
LayerCount: 2
Fore
SplineSet
119 484 m 0,0,1
 119 589 119 589 183.5 654.5 c 128,-1,2
 248 720 248 720 355 720 c 0,3,4
 443 720 443 720 538.5 675.5 c 128,-1,5
 634 631 634 631 716.5 548.5 c 128,-1,6
 799 466 799 466 843.5 370.5 c 128,-1,7
 888 275 888 275 888 187 c 0,8,9
 888 80 888 80 822.5 15.5 c 128,-1,10
 757 -49 757 -49 652 -49 c 0,11,12
 564 -49 564 -49 468.5 -4.5 c 128,-1,13
 373 40 373 40 290 122 c 1,14,-1
 379 247 l 1,15,16
 447 179 447 179 524.5 140.5 c 128,-1,17
 602 102 602 102 667 102 c 128,-1,18
 732 102 732 102 770 140 c 128,-1,19
 808 178 808 178 808 243.5 c 128,-1,20
 808 309 808 309 770 386 c 128,-1,21
 732 463 732 463 663 531 c 0,22,23
 591 603 591 603 506.5 642 c 128,-1,24
 422 681 422 681 344 681 c 0,25,26
 248 681 248 681 186 621.5 c 128,-1,27
 124 562 124 562 123 460 c 0,28,29
 123 435 123 435 128 407 c 1,30,31
 119 447 119 447 119 484 c 0,0,1
EndSplineSet
Colour: ffff
EndChar
StartChar: Dizzy.1
Encoding: 355 -1 355
Width: 912
Flags: MW
LayerCount: 2
Back
SplineSet
489.6718 -96 m 4
 483.624 -96 477.5996 -94.1523 472.416 -90.456 c 6
 350.5917 -3.0722 l 5
 228.7675 -90.456 l 6
 218.3759 -97.8964 204.456 -97.8964 194.1357 -90.3359 c 4
 183.8164 -82.8476 179.4716 -69.5996 183.3359 -57.4804 c 6
 228.7919 89.1601 l 5
 108.0478 174.2402 l 6
 97.7763 181.7998 93.5283 195.0957 97.4404 207.2402 c 4
 101.4003 219.3359 112.6562 227.5683 125.4003 227.664 c 6
 272.9277 227.9521 l 5
 322.5361 370.9199 l 6
 326.5683 383.0156 337.872 391.1757 350.6162 391.1757 c 4
 363.3603 391.1757 374.664 383.0156 378.6962 370.9199 c 6
 423.4804 227.9521 l 5
 575.8076 227.664 l 6
 588.5761 227.5683 599.8564 219.3359 603.7675 207.2402 c 4
 607.7041 195.0957 603.4316 181.7998 593.1601 174.2402 c 6
 472.416 89.1601 l 5
 517.8476 -57.4804 l 6
 521.7363 -69.5996 517.3437 -82.872 507.0722 -90.3359 c 4
 501.8642 -94.1279 495.7675 -96 489.6718 -96 c 4
EndSplineSet
Fore
SplineSet
97.5 207.5 m 128,-1,1
 104 228 104 228 125 228 c 2,2,-1
 273 228 l 1,3,-1
 323 371 l 2,4,5
 330 391 330 391 351 391 c 128,-1,6
 372 391 372 391 379 371 c 2,7,-1
 423 228 l 1,8,-1
 576 228 l 2,9,10
 597 228 597 228 603.5 207.5 c 128,-1,11
 610 187 610 187 593 174 c 2,12,-1
 472 89 l 1,13,-1
 518 -57 l 2,14,15
 524 -78 524 -78 507 -90 c 128,-1,16
 490 -102 490 -102 472 -90 c 2,17,-1
 351 -3 l 1,18,-1
 229 -90 l 2,19,20
 211 -102 211 -102 194 -90 c 128,-1,21
 177 -78 177 -78 183 -57 c 2,22,-1
 229 89 l 1,23,-1
 108 174 l 2,24,0
 91 187 91 187 97.5 207.5 c 128,-1,1
EndSplineSet
Colour: ffff
EndChar
StartChar: DottedLineFace.2
Encoding: 192 -1 191
Width: 912
Flags: MW
LayerCount: 2
Back
SplineSet
42 288 m 5
 42 59.3544921875 227.354492188 -126 456 -126 c 5
 684.645507812 -126 870 59.3544921875 870 288 c 5
 870 516.645507812 684.645507812 702 456 702 c 5
 227.354492188 702 42 516.645507812 42 288 c 5
401.975585938 -140.616210938 m 13
 406.055664062 -104.856445312 l 5
 422.53515625 -106.94921875 439.329101562 -108.028320312 456.373046875 -108.028320312 c 5
 478.2734375 -108.028320312 498.974609375 -106.2421875 519.912109375 -102.81640625 c 5
 520.697265625 -102.821289062 526.65625 -138.192382812 526.65625 -138.192382812 c 5
 503.536132812 -142.024414062 479.799804688 -144.018554688 455.600585938 -144.018554688 c 5
 437.149414062 -144.018554688 419.8203125 -142.865234375 401.975585938 -140.616210938 c 13
283.631835938 -108.120117188 m 5
 245.6328125 -91.5830078125 210.529296875 -69.8212890625 179.135742188 -43.6083984375 c 5
 179.073242188 -43.525390625 202.416015625 -16.1279296875 202.416015625 -16.1279296875 c 5
 231.012695312 -39.9697265625 262.958007812 -59.7841796875 297.528320312 -74.8798828125 c 5
 297.586914062 -74.955078125 283.631835938 -108.120117188 283.631835938 -108.120117188 c 5
643.727539062 -101.087890625 m 13
 628.080078125 -68.6640625 l 5
 662.315429688 -52.146484375 693.612304688 -31.021484375 721.51171875 -5.8076171875 c 5
 721.716796875 -5.6328125 745.65625 -32.51953125 745.65625 -32.51953125 c 5
 715.219726562 -60.0244140625 681.076171875 -83.0693359375 643.727539062 -101.087890625 c 13
96.984375 47.736328125 m 5
 74.3642578125 81.5361328125 56.2216796875 119.123046875 43.7998046875 158.736328125 c 5
 43.96484375 158.3125 78.240234375 169.200195312 78.240234375 169.200195312 c 5
 89.6904296875 132.775390625 106.416992188 98.2294921875 127.272460938 67.17578125 c 5
 127.123046875 67.560546875 96.984375 47.736328125 96.984375 47.736328125 c 5
824.087890625 61.8720703125 m 5
 793.440429688 80.759765625 l 21
 812.84375 112.354492188 828.139648438 147.407226562 838.103515625 184.032226562 c 5
 837.90234375 183.5 872.879882812 174.696289062 872.879882812 174.696289062 c 5
 862.002929688 134.680664062 845.291992188 96.384765625 824.087890625 61.8720703125 c 5
24.072265625 280.440429688 m 5
 24.02734375 283.000976562 24.0048828125 285.567382812 24.0048828125 288.138671875 c 5
 24.0048828125 327.8125 29.421875 365.999023438 39.4560546875 402.50390625 c 5
 39.3984375 402.75 74.3759765625 393.696289062 74.3759765625 393.696289062 c 5
 65.052734375 360.0234375 60.0703125 324.5546875 60.0703125 287.932617188 c 5
 60.0703125 285.703125 60.03515625 283.692382812 60.072265625 281.471679688 c 5
 60.1259765625 281.258789062 24.072265625 280.440429688 24.072265625 280.440429688 c 5
851.927734375 295.944335938 m 5
 851.149414062 334.541992188 844.749023438 371.947265625 833.6640625 407.087890625 c 5
 833.751953125 406.932617188 867.984375 417.935546875 867.984375 417.935546875 c 5
 880.075195312 379.600585938 887.055664062 338.794921875 887.904296875 296.688476562 c 5
 887.80859375 296.857421875 851.927734375 295.944335938 851.927734375 295.944335938 c 5
119.255859375 496.368164062 m 13
 88.4638671875 515.015625 l 5
 110.23046875 550.255859375 136.463867188 581.625976562 167.112304688 609.192382812 c 5
 167.56640625 609.70703125 190.799804688 582.072265625 190.799804688 582.072265625 c 5
 162.946289062 556.956054688 139.086914062 528.413085938 119.255859375 496.368164062 c 13
784.84765625 508.608398438 m 5
 763.645507812 540.213867188 738.491210938 568.087890625 709.3203125 592.368164062 c 5
 708.841796875 592.883789062 732.383789062 620.015625 732.383789062 620.015625 c 5
 764.17578125 593.547851562 791.590820312 563.166015625 814.704101562 528.719726562 c 5
 815.225585938 528.158203125 784.84765625 508.608398438 784.84765625 508.608398438 c 5
284.112304688 644.759765625 m 5
 269.015625 677.448242188 l 21
 305.09375 694.768554688 344.745117188 707.475585938 385.51171875 714.215820312 c 5
 384.708007812 713.96484375 392.591796875 678.887695312 392.591796875 678.887695312 c 5
 354.602539062 672.729492188 317.673828125 660.92578125 284.112304688 644.759765625 c 5
613.295898438 651.408203125 m 5
 579.490234375 666.043945312 542.54296875 676.305664062 504.6484375 681 c 5
 505.352539062 680.795898438 509.064453125 716.736328125 509.064453125 716.736328125 c 5
 550.42578125 711.61328125 590.751953125 700.411132812 627.6484375 684.431640625 c 5
 626.87890625 684.655273438 613.295898438 651.408203125 613.295898438 651.408203125 c 5
EndSplineSet
Fore
Refer: 38 -1 N -0.959493 -0.281733 0.281733 -0.959493 456 288 0
Refer: 38 -1 N -0.959493 0.281733 -0.281733 -0.959493 456 288 0
Refer: 38 -1 N -0.654861 0.75575 -0.75575 -0.654861 456 288 0
Refer: 38 -1 N -0.654861 -0.75575 0.75575 -0.654861 456 288 0
Refer: 38 -1 N -0.142315 -0.989821 0.989821 -0.142315 456 288 0
Refer: 38 -1 N -0.142315 0.989821 -0.989821 -0.142315 456 288 0
Refer: 38 -1 N 0.841254 0.540641 -0.540641 0.841254 456 288 0
Refer: 38 -1 N 0.841254 -0.540641 0.540641 0.841254 456 288 0
Refer: 38 -1 N 0.415415 -0.909632 0.909632 0.415415 456 288 0
Refer: 38 -1 N 0.415415 0.909632 -0.909632 0.415415 456 288 0
Refer: 38 -1 N 1 0 0 1 456 288 0
Colour: ffff
EndChar
StartChar: DowncastFaceWithSweat.1
Encoding: 332 -1 331
Width: 912
Flags: MW
LayerCount: 2
Back
SplineSet
888 288 m 0
 888 49.416 694.5839 -144 456 -144 c 0
 217.4404 -144 24 49.416 24 288 c 0
 24 526.5595 217.4404 720 456 720 c 0
 694.5839 720 888 526.5595 888 288 c 1024
706.9677 292.872 m 0
 705.5283 296.1123 670.9921 372 600 372 c 0
 529.0322 372 494.4716 296.1123 493.0322 292.872 c 0
 490.8242 287.9042 492.2636 282.0957 496.5117 278.6884 c 0
 500.7119 275.2802 506.7363 275.1601 511.1523 278.3515 c 0
 511.4404 278.5683 541.4404 300 600 300 c 0
 658.2236 300 688.1757 278.8564 688.8476 278.3759 c 0
 690.9599 276.7919 693.5039 276 696 276 c 0
 698.6396 276 701.3037 276.8876 703.4882 278.6162 c 0
 707.7363 282.0244 709.2001 287.8798 706.9677 292.872 c 0
442.9677 292.872 m 0
 441.5283 296.1123 406.9921 372 336 372 c 0
 265.0322 372 230.4716 296.1123 229.0322 292.872 c 0
 226.8242 287.9042 228.2636 282.0957 232.4882 278.6884 c 0
 236.7119 275.2802 242.7363 275.1601 247.1279 278.3515 c 0
 247.4404 278.5683 277.416 300 336 300 c 0
 394.2236 300 424.1757 278.8564 424.8476 278.3759 c 0
 426.9843 276.7919 429.5039 276 432 276 c 0
 434.6396 276 437.3037 276.8876 439.4882 278.6162 c 0
 443.7597 282.0244 445.1757 287.8798 442.9677 292.872 c 0
336 48 m 1
 336 48 360 144 456 144 c 0
 552 144 576 48 576 48 c 1
 576 48 552 72 456 72 c 0
 360 72 336 48 336 48 c 1
288 456 m 0
 288 389.7119 234.288 336 168 336 c 0
 101.7363 336 48 389.7119 48 456 c 0
 48 522.288 144 696 168 696 c 0
 192 696 288 522.288 288 456 c 0
EndSplineSet
Fore
Refer: 55 -1 N 1 0 0 1 0 0 0
Refer: 11 -1 N -1 0 0 -1 600 372 0
Refer: 11 -1 N -1 0 0 -1 336 372 0
Colour: ffff
EndChar
StartChar: DroolingFace.1
Encoding: 220 -1 219
Width: 912
Flags: MW
LayerCount: 2
Back
SplineSet
24 288 m 4
 24 49.413 217.413 -144 456 -144 c 4
 694.5869 -144 888 49.413 888 288 c 4
 888 526.5869 694.5869 720 456 720 c 4
 217.413 720 24 526.5869 24 288 c 4
564 120 m 6
 456 120 l 6
 321.5996 120 288 144 288 144 c 5
 288 144 318.4082 57.7441 436.2958 48.8876 c 4
 438.7919 48.3359 441.3603 48 444 48 c 6
 552 48 l 6
 571.7998 48 600 76.2001 600 96 c 4
 600 115.7998 583.7998 120 564 120 c 6
403.5117 290.6884 m 4
 399.288 287.2558 393.2636 287.1601 388.872 290.3515 c 4
 388.5595 290.5917 358.6083 312 300 312 c 4
 241.416 312 211.4404 290.5683 211.2001 290.4003 c 4
 206.8076 287.1123 200.7597 287.208 196.5361 290.6162 c 4
 192.2636 294.0244 190.8242 299.8798 193.0322 304.872 c 4
 194.4716 308.1123 229.0322 384 300 384 c 4
 370.9921 384 405.5283 308.1123 406.9677 304.872 c 4
 409.1757 299.9042 407.7363 294.0957 403.5117 290.6884 c 4
715.4882 290.6884 m 4
 711.2636 287.2558 705.2636 287.1357 700.8476 290.3515 c 4
 700.5595 290.5917 670.5839 312 612 312 c 4
 553.4404 312 523.4404 290.5683 523.2001 290.4003 c 4
 518.8076 287.1123 512.7841 287.208 508.5361 290.6162 c 4
 504.2636 294.0244 502.8242 299.8798 505.0322 304.872 c 4
 506.4482 308.1123 541.0322 384 612 384 c 4
 682.9921 384 717.5517 308.1123 718.9677 304.872 c 4
 721.1757 299.9042 719.7363 294.0957 715.4882 290.6884 c 4
338.7363 575.9521 m 4
 351.9843 575.4482 362.3037 564.288 361.7998 551.04 c 4
 361.2724 537.8398 350.1835 527.5439 336.9843 528 c 4
 333.2402 528.0957 251.3037 529.248 184.8476 447.4316 c 4
 176.496 437.1835 161.4003 435.5761 151.08 443.9521 c 4
 140.7841 452.3037 139.2236 467.4238 147.5996 477.7197 c 4
 229.872 578.9755 334.3203 576.1201 338.7363 575.9521 c 4
564.4082 535.8242 m 4
 568.7519 536.6162 671.7597 554.1357 767.4716 465.4316 c 4
 777.2158 456.4316 777.7919 441.2402 768.7441 431.5195 c 4
 759.7441 421.7519 744.5761 421.2236 734.832 430.2236 c 4
 657.3603 502.0322 576.2402 489.1679 572.832 488.5917 c 4
 559.8242 486.3603 547.3916 495.0722 545.1123 508.08 c 4
 542.832 521.0644 551.4238 533.4482 564.4082 535.8242 c 4
576 96 m 6
 504 96 l 6
 490.7998 96 480 85.2001 480 72 c 6
 480 -24 l 6
 480 -37.2001 490.7998 -48 504 -48 c 4
 517.2001 -48 528 -37.2001 528 -24 c 5
 528 -108 l 6
 528 -127.7998 544.2001 -144 564 -144 c 4
 583.7998 -144 600 -127.7998 600 -108 c 6
 600 72 l 6
 600 85.2001 589.2001 96 576 96 c 6
EndSplineSet
Fore
Refer: 47 -1 N 1 0 0 1 0 0 0
Refer: 10 -1 N -0.983885 -0.178802 -0.178802 0.983885 568.608 512.208 0
Refer: 10 -1 N 0.999263 -0.0383878 0.0383878 0.999263 337.872 552 0
Refer: 11 -1 N -1 0 0 -1 612 384 0
Refer: 11 -1 N -1 0 0 -1 300 384 0
Colour: ffff
EndChar
StartChar: DroolingFace.2
Encoding: 221 -1 221
Width: 912
Flags: MW
LayerCount: 2
Back
SplineSet
576 96 m 2
 589.246 96 600 85.246 600 72 c 2
 600 -108 l 2
 600 -127.8691 583.8691 -144 564 -144 c 0
 544.1308 -144 528 -127.8691 528 -108 c 2
 528 -24 l 1
 528 -37.246 517.246 -48 504 -48 c 0
 490.7539 -48 480 -37.246 480 -24 c 2
 480 72 l 2
 480 85.246 490.7539 96 504 96 c 2
 576 96 l 2
EndSplineSet
Fore
SplineSet
480 -24 m 2,0,-1
 480 72 l 2,1,2
 480 82 480 82 487 89 c 128,-1,3
 494 96 494 96 504 96 c 2,4,-1
 576 96 l 2,5,6
 586 96 586 96 593 89 c 128,-1,7
 600 82 600 82 600 72 c 2,8,-1
 600 -108 l 2,9,10
 600 -123 600 -123 589.5 -133.5 c 128,-1,11
 579 -144 579 -144 564 -144 c 128,-1,12
 549 -144 549 -144 538.5 -133.5 c 128,-1,13
 528 -123 528 -123 528 -108 c 2,14,-1
 528 -24 l 1,15,16
 528 -34 528 -34 521 -41 c 128,-1,17
 514 -48 514 -48 504 -48 c 128,-1,18
 494 -48 494 -48 487 -41 c 128,-1,19
 480 -34 480 -34 480 -24 c 2,0,-1
EndSplineSet
Colour: ffff
EndChar
StartChar: ExplodingHead.0
Encoding: 256 -1 256
Width: 912
Flags: MW
LayerCount: 2
Fore
SplineSet
48 264 m 0,0,1
 48 332 48 332 96.5 380.5 c 128,-1,2
 145 429 145 429 213 429 c 0,3,4
 225 429 225 429 242 424 c 1,5,-1
 633 424 l 1,6,7
 677 438 677 438 699 438 c 0,8,9
 767 438 767 438 815.5 389.5 c 128,-1,10
 864 341 864 341 864 273 c 2,11,-1
 864 264 l 2,12,13
 864 100 864 100 745.5 -22 c 128,-1,14
 627 -144 627 -144 456 -144 c 128,-1,15
 285 -144 285 -144 166.5 -22 c 128,-1,16
 48 100 48 100 48 264 c 0,0,1
EndSplineSet
Colour: ffff
EndChar
StartChar: ExplodingHead.1
Encoding: 257 -1 256
Width: 912
Flags: MW
LayerCount: 2
Back
SplineSet
864 264 m 2
 864 38.8183 681.1816 -144 456 -144 c 0
 230.8183 -144 48 38.8183 48 264 c 0
 48 354.9863 121.8798 428.8564 212.8798 428.8564 c 0
 252.8642 428.8564 318.0722 390.9121 318.0722 390.9121 c 1
 633.0957 424.1279 l 1
 633.0957 424.1279 675.6484 438 699.1435 438 c 0
 790.1308 438 864 364.1308 864 273.1435 c 2
 864 264 l 2
174.3837 391.4882 m 0
 180.3837 396 201.0957 403.7763 215.5683 390.2636 c 0
 240 367.4882 245.9277 424.9443 323.0156 382.9921 c 0
 358.2724 363.8164 538.7519 359.9521 555.7919 368.4238 c 0
 620.4003 400.5117 670.2236 421.1757 689.5195 410.2558 c 0
 704.496 401.7841 666.1679 387.3359 694.2001 384.0478 c 0
 722.832 380.6884 724.4638 395.8076 747.0478 389.9521 c 0
 786.7675 379.6562 720.7919 334.1757 720.7919 334.1757 c 2
 616.2236 248.3759 254.496 312.5039 190.6562 352.7998 c 0
 164.2802 369.456 165.1201 384.5517 174.3837 391.4882 c 0
736.5117 501.2402 m 0
 654 428.2558 617.2558 289.4882 617.2802 289.4882 c 1
 389.2558 289.8242 l 1
 282.7675 311.2324 l 1
 282.7675 311.2324 254.2558 413.2324 166.5117 501.2402 c 1
 456 532.5117 l 1
 736.5117 501.2402 l 0
727.3437 493.5595 m 0
 707.5683 474.0722 684.6962 439.872 684.6962 439.872 c 2
 655.08 441.7441 625.872 452.6162 625.872 452.6162 c 2
 588.3837 390.7441 504.3837 378 444.3837 414 c 0
 358.1279 341.2558 243.9599 398.9755 243.9599 398.9755 c 1
 243.9599 398.9755 214.872 448.3916 191.1601 474.6484 c 0
 174.4316 493.2001 296.6396 512.0156 296.6396 512.0156 c 1
 296.6396 512.0156 381.7675 537.2636 497.2558 537.2636 c 0
 612.7441 537.2636 758.0878 523.872 727.3437 493.5595 c 0
734.6162 344.496 m 0
 766.6562 367.6083 762.1201 310.3681 724.1035 296.664 c 0
 713.2324 292.7275 697.8476 288.456 697.8476 288.456 c 1
 566.0156 288.456 l 1
 459.0244 245.3037 l 1
 368.0156 288.456 l 1
 142.8476 288.456 l 1
 158.6396 390.0478 l 1
 158.6396 390.0478 155.6396 351.0478 263.1601 333.0722 c 0
 304.872 326.1123 303.8876 347.7597 350.8076 349.0078 c 0
 378.0722 349.7275 393.5996 330.5517 413.7597 319.5117 c 0
 449.8076 299.7597 475.416 337.0322 503.0156 337.0322 c 0
 523.416 337.0322 556.2724 308.04 579.2402 318.6962 c 0
 616.6318 336.0244 619.416 350.5683 646.1757 350.5683 c 0
 684.4316 350.5683 692.6396 314.208 734.6162 344.496 c 0
771 630.5996 m 0
 803.6396 630.5996 830.1357 604.1279 830.1357 571.4882 c 0
 830.1357 538.8476 803.664 512.3759 771.0244 512.3759 c 0
 765.2636 512.3759 759.8164 513.456 754.5595 514.9921 c 0
 738.0722 494.7119 713.208 481.4882 685.0322 481.4882 c 0
 662.8076 481.4882 642.7197 489.8398 627.0244 503.1835 c 0
 620.6162 501.8398 613.9921 501.0957 607.2001 501.0957 c 0
 606.3837 501.0957 605.6396 501.3115 604.8242 501.3359 c 0
 594.0478 461.1835 557.7597 431.4716 514.2001 431.4716 c 0
 484.7519 431.4716 458.7841 445.2724 441.5039 466.4404 c 1
 420.6962 434.4716 384.7675 413.2324 343.7519 413.2324 c 0
 301.9443 413.2324 265.6562 435.4082 245.1357 468.5039 c 0
 241.8476 467.8564 238.4882 467.4716 235.0078 467.4716 c 0
 222.8398 467.4716 211.7519 471.6484 202.7275 478.416 c 0
 191.2324 472.0322 178.1035 468.2158 163.9921 468.2158 c 0
 119.2558 468.2158 82.9921 504.4804 82.9921 549.2158 c 0
 82.9921 593.9521 119.2558 630.2158 163.9921 630.2158 c 0
 169.1279 630.2158 174.0957 629.6162 178.9677 628.7041 c 0
 194.1357 657.0244 223.6318 676.5117 258 676.5117 c 0
 262.6083 676.5117 267.0244 675.8164 271.4404 675.1201 c 0
 287.4716 699.9355 315.2402 716.4716 346.9921 716.4716 c 0
 386.4003 716.4716 419.5195 690.9843 431.7119 655.7041 c 1
 441.5996 668.2558 456.7441 676.4638 473.9755 676.4638 c 0
 496.1757 676.4638 515.208 663.0478 523.5117 643.8964 c 1
 539.9755 673.3437 571.0556 693.4804 607.1757 693.4804 c 0
 635.8076 693.4804 661.248 680.7119 678.8642 660.8642 c 0
 680.9277 661.0078 682.8964 661.4882 684.9843 661.4882 c 0
 713.1835 661.4882 738.0244 648.2636 754.5361 627.9843 c 0
 759.7919 629.5195 765.2402 630.5996 771 630.5996 c 0
501.0244 578.3281 m 0
 501.0244 552.288 481.7763 530.9521 456.7675 527.2324 c 0
 451.2958 503.208 429.8876 485.2324 404.208 485.2324 c 0
 394.7041 485.2324 385.8964 487.9199 378.1201 492.2402 c 1
 372.7441 468.0957 351.2636 450 325.4882 450 c 0
 305.5439 450 288.3359 460.9199 278.9755 477 c 0
 249.6962 481.9443 225.4082 500.9521 213 526.8964 c 1
 204.3603 513.7919 189.5761 505.1279 172.7041 505.1279 c 0
 146.04 505.1279 124.416 526.7519 124.416 553.416 c 0
 124.416 580.08 146.04 601.7041 172.7041 601.7041 c 0
 186.1201 601.7041 198.2402 596.2324 207 587.4238 c 1
 216.8164 626.496 251.8798 655.5361 294 655.5361 c 0
 317.6884 655.5361 339.0722 646.1757 355.1523 631.2236 c 1
 362.3759 641.6162 374.3759 648.456 387.9843 648.456 c 0
 404.6162 648.456 418.8476 638.3037 424.872 623.8798 c 1
 432.1435 627.7675 440.3515 630.1923 449.1835 630.1923 c 0
 477.8164 630.1923 501.0244 606.9599 501.0244 578.3281 c 0
640.1757 581.5917 m 0
 640.1757 553.4785 662.9667 530.6884 691.08 530.6884 c 0
 719.1933 530.6884 741.9843 553.4785 741.9843 581.5917 c 0
 741.9843 609.705 719.1933 632.496 691.08 632.496 c 0
 662.9667 632.496 640.1757 609.705 640.1757 581.5917 c 0
264 225.456 m 0
 264 190.1054 285.4902 161.4482 312 161.4482 c 0
 338.5097 161.4482 360 190.1054 360 225.456 c 0
 360 260.8066 338.5097 289.4638 312 289.4638 c 0
 285.4902 289.4638 264 260.8066 264 225.456 c 0
552 225.4804 m 0
 552 190.1289 573.4902 161.4716 600 161.4716 c 0
 626.5097 161.4716 648 190.1289 648 225.4804 c 0
 648 260.831 626.5097 289.4882 600 289.4882 c 0
 573.4902 289.4882 552 260.831 552 225.4804 c 0
352.0322 32.6884 m 0
 352.0322 -32.9238 398.58 -86.1123 456 -86.1123 c 0
 513.4199 -86.1123 559.9677 -32.9238 559.9677 32.6884 c 0
 559.9677 98.2998 513.4199 151.4882 456 151.4882 c 0
 398.58 151.4882 352.0322 98.2998 352.0322 32.6884 c 0
EndSplineSet
Fore
Refer: 4 -1 N 0.27075 0 0 0.309375 456 33 0
Refer: 4 -1 N 0.125 0 0 0.166667 600 225 0
Refer: 4 -1 N 0.125 0 0 0.166667 312 225 0
Colour: ffff
EndChar
StartChar: ExplodingHead.2
Encoding: 258 -1 257
Width: 912
Flags: MW
LayerCount: 2
Fore
SplineSet
168.5 379.5 m 128,-1,1
 168 388 168 388 176.5 393 c 128,-1,2
 185 398 185 398 196 398 c 128,-1,3
 207 398 207 398 216 390 c 0,4,5
 225 381 225 381 236 387 c 2,6,-1
 277 408 l 1,7,-1
 644 408 l 1,8,9
 679 417 679 417 690 410 c 0,10,11
 696 406 696 406 690 399 c 2,12,-1
 686 394 l 2,13,14
 680 387 680 387 689 385 c 0,15,16
 707 381 707 381 723 388 c 0,17,18
 737 394 737 394 750 389 c 0,19,20
 765 384 765 384 757 369 c 0,21,22
 735 338 735 338 710 333 c 0,23,24
 697 331 697 331 681 340 c 128,-1,25
 665 349 665 349 654 350 c 0,26,27
 646 351 646 351 638 350 c 2,28,-1
 442 350 l 1,29,-1
 349 373 l 1,30,31
 282 332 282 332 275.5 332 c 128,-1,32
 269 332 269 332 263 333 c 0,33,34
 207 342 207 342 180 361 c 0,35,0
 169 371 169 371 168.5 379.5 c 128,-1,1
EndSplineSet
Colour: ffff
EndChar
StartChar: ExplodingHead.3
Encoding: 259 -1 259
Width: 912
Flags: MW
LayerCount: 2
Fore
SplineSet
244 399 m 1,0,-1
 463 562 l 1,1,-1
 685 440 l 1,2,3
 660 402 660 402 638 350 c 1,4,5
 627 349 627 349 611 337 c 0,6,7
 592 324 592 324 578 318 c 128,-1,8
 564 312 564 312 533 327 c 0,9,10
 513 337 513 337 503 337 c 0,11,12
 491 337 491 337 472 326 c 0,13,14
 465 322 465 322 455 318 c 0,15,16
 432 308 432 308 411 321 c 2,17,-1
 396 331 l 2,18,19
 373 349 373 349 353 349 c 0,20,21
 328 349 328 349 305 338 c 0,22,23
 290 331 290 331 276 332 c 1,24,25
 263 364 263 364 244 399 c 1,0,-1
EndSplineSet
Colour: ffff
EndChar
StartChar: ExplodingHead.4
Encoding: 260 -1 259
Width: 912
Flags: MW
LayerCount: 2
Fore
SplineSet
136 531 m 1,0,-1
 741 531 l 1,1,-1
 741 506 l 1,2,3
 712 481 712 481 685 440 c 1,4,5
 655 442 655 442 626 453 c 1,6,7
 598 408 598 408 545.5 397 c 128,-1,8
 493 386 493 386 444 414 c 1,9,10
 404 380 404 380 350.5 377.5 c 128,-1,11
 297 375 297 375 244 399 c 1,12,13
 199 476 199 476 136 531 c 1,0,-1
EndSplineSet
Colour: ffff
EndChar
StartChar: ExplodingHead.5
Encoding: 261 -1 261
Width: 912
Flags: MW
LayerCount: 2
Fore
SplineSet
83 549.5 m 0,0,1
 83 586 83 586 111 610.5 c 128,-1,2
 139 635 139 635 179 629 c 1,3,4
 195 657 195 657 221.5 668.5 c 128,-1,5
 248 680 248 680 271 675 c 1,6,7
 300 716 300 716 347 716 c 0,8,9
 376 716 376 716 398.5 700 c 128,-1,10
 421 684 421 684 432 656 c 1,11,12
 448 676 448 676 474 676 c 0,13,14
 507 676 507 676 524 644 c 1,15,16
 536 666 536 666 557.5 679.5 c 128,-1,17
 579 693 579 693 607 693 c 0,18,19
 649 693 649 693 679 661 c 1,20,21
 723 664 723 664 755 628 c 1,22,23
 787 637 787 637 812 614 c 0,24,25
 830 596 830 596 830 571.5 c 128,-1,26
 830 547 830 547 812 529 c 0,27,28
 787 506 787 506 755 515 c 1,29,30
 729 485 729 485 692.5 482 c 128,-1,31
 656 479 656 479 627 503 c 1,32,33
 616 501 616 501 605 501 c 1,34,35
 596 470 596 470 571 450.5 c 128,-1,36
 546 431 546 431 514 431 c 0,37,38
 474 431 474 431 441 466 c 1,39,40
 426 443 426 443 403 429.5 c 0,41,42
 374 413 374 413 344 413 c 128,-1,43
 314 413 314 413 287.5 428 c 128,-1,44
 261 443 261 443 245 469 c 1,45,46
 224 464 224 464 203 478 c 1,47,48
 183 468 183 468 164 468 c 0,49,50
 131 468 131 468 107 492 c 128,-1,51
 83 516 83 516 83 549.5 c 0,0,1
EndSplineSet
Colour: ffff
EndChar
StartChar: ExplodingHead.6
Encoding: 262 -1 262
Width: 912
Flags: MW
LayerCount: 2
Back
SplineSet
204 565.5361 m 0
 204 615.2412 244.2949 655.5361 294 655.5361 c 0
 343.705 655.5361 384 615.2412 384 565.5361 c 0
 384 515.831 343.705 475.5361 294 475.5361 c 0
 244.2949 475.5361 204 515.831 204 565.5361 c 0
271.5 504.0371 m 0
 271.5 533.8603 295.6777 558.0371 325.5 558.0371 c 0
 355.3222 558.0371 379.5 533.8603 379.5 504.0371 c 0
 379.5 474.2128 355.3222 450.0371 325.5 450.0371 c 0
 295.6777 450.0371 271.5 474.2128 271.5 504.0371 c 0
350.2207 539.2851 m 0
 350.2207 569.1093 374.3984 593.2851 404.2207 593.2851 c 0
 434.0449 593.2851 458.2207 569.1093 458.2207 539.2851 c 0
 458.2207 509.4619 434.0449 485.2851 404.2207 485.2851 c 0
 374.3984 485.2851 350.2207 509.4619 350.2207 539.2851 c 0
864 273.1435 m 1
 864 364.2001 790.2001 438 699.1435 438 c 1
 675.6484 438 633.0957 424.1279 633.0957 424.1279 c 1
 318.0722 390.9121 l 1
 318.0722 390.9121 252.8642 428.8564 212.8798 428.8564 c 1
 121.7998 428.8564 48 355.0556 48 264 c 1
 48 258.3115 48.288 252.6962 48.8398 247.1523 c 1
 57.7441 29.6884 236.3759 -144 456 -144 c 1
 681.3359 -144 864 38.664 864 264 c 1
 864 265.248 863.7841 266.4238 863.7119 267.6718 c 1
 863.7841 269.496 864 271.2958 864 273.1435 c 1
747.0244 389.9755 m 1
 724.4404 395.832 722.8076 380.7119 694.1757 384.0722 c 1
 666.1435 387.3603 704.4716 401.8076 689.496 410.2802 c 1
 684.456 413.1357 677.2324 413.7363 668.3281 412.6318 c 1
 643.08 409.5361 261.4316 399.5761 247.2001 392.7119 c 1
 234.5517 386.6162 227.0644 379.5595 215.5683 390.288 c 1
 201.0957 403.7763 180.3837 396 174.3837 391.5117 c 1
 166.6562 385.7041 165.0478 374.1835 180 360.8642 c 1
 194.9042 350.7841 220.1523 340.248 263.1601 333.0478 c 1
 267.8876 332.2558 271.9199 331.9443 275.6884 331.7998 c 1
 305.1357 330.8164 309.2158 371.8798 350.8076 372.9843 c 1
 378.0722 373.7041 618.4804 347.3037 638.2802 349.9921 c 1
 640.7041 350.3281 643.248 350.5683 646.1757 350.5683 c 1
 660.7519 350.5683 670.9794 345.3144 680.3789 340.4853 c 1
 695.1689 332.8876 707.9082 326.3427 732.3115 342.9843 c 1
 749.2324 356.7363 775.7763 382.5361 747.0244 389.9755 c 1
166.5117 501.2402 m 1
 203.0644 464.5917 229.0078 425.7597 247.2001 392.6884 c 1
 260.7841 367.9921 270.1435 346.3916 275.6884 331.7763 c 1
 289.6464 331.3095 297.9052 334.8984 307.1611 338.9199 c 0
 317.4316 343.3828 328.9306 348.3798 350.8076 348.9599 c 1
 370.2167 349.4726 383.6777 339.9023 397.0966 330.3623 c 0
 402.5273 326.5009 407.9511 322.6445 413.7597 319.4638 c 1
 436.1083 307.2333 454.4453 316.9023 471.7304 326.0175 c 0
 482.3261 331.6054 492.5273 336.9843 503.0156 336.9843 c 1
 511.1542 336.9843 521.2753 332.374 531.9599 327.5068 c 0
 548.0576 320.1738 565.4355 312.2578 579.2402 318.6484 c 1
 594.3222 325.6406 603.7929 332.164 611.4824 337.4609 c 0
 620.7646 343.8544 627.4511 348.4609 638.2802 349.9443 c 1
 646.0078 368.9277 656.0644 390.6484 668.3281 412.5595 c 1
 686.0878 444.3359 708.5996 476.5195 736.5117 501.1923 c 1
 166.5117 501.1923 l 1
 166.5117 501.2402 l 1
727.3437 493.5595 m 1
 758.0878 523.872 174.4082 493.1757 191.1601 474.6484 c 1
 214.872 448.3916 243.9599 398.9755 243.9599 398.9755 c 1
 243.9599 398.9755 358.1279 341.2558 444.3837 414 c 1
 504.3837 378 588.3837 390.7441 625.872 452.6162 c 1
 625.872 452.6162 655.08 441.7441 684.6962 439.872 c 1
 684.6962 439.872 707.5683 474.0722 727.3437 493.5595 c 1
352.0322 32.6884 m 1
 352.0322 -32.9238 398.58 -86.1123 456 -86.1123 c 1
 513.4199 -86.1123 559.9677 -32.9238 559.9677 32.6884 c 1
 559.9677 98.2998 513.4199 151.4882 456 151.4882 c 1
 398.58 151.4882 352.0322 98.2998 352.0322 32.6884 c 1
360 225.456 m 1
 360 190.1035 338.496 161.4482 312 161.4482 c 1
 285.4804 161.4482 264 190.1035 264 225.456 c 1
 264 260.8076 285.4804 289.4638 312 289.4638 c 1
 338.496 289.4638 360 260.8076 360 225.456 c 1
648 225.4804 m 1
 648 190.1279 626.5195 161.4716 600 161.4716 c 1
 573.4804 161.4716 552 190.1279 552 225.4804 c 1
 552 260.8076 573.5039 289.4882 600 289.4882 c 1
 626.5195 289.4638 648 260.8076 648 225.4804 c 1
771 630.5996 m 1
 765.2402 630.5996 759.7919 629.5195 754.5361 627.9843 c 1
 738.0244 648.2636 713.1835 661.4882 684.9843 661.4882 c 1
 682.8964 661.4882 680.9277 661.0078 678.8642 660.8642 c 1
 661.248 680.7119 635.8076 693.4804 607.1757 693.4804 c 1
 571.0556 693.4804 539.9755 673.3437 523.5117 643.8964 c 1
 515.208 663.0478 496.1757 676.4638 473.9755 676.4638 c 1
 456.7441 676.4638 441.5996 668.2558 431.7119 655.7041 c 1
 419.5195 690.9843 386.4003 716.4716 346.9921 716.4716 c 1
 315.2402 716.4716 287.4716 699.9355 271.4404 675.1201 c 1
 267.0244 675.8164 262.6083 676.5117 258 676.5117 c 1
 223.6318 676.5117 194.1357 657.0244 178.9677 628.7041 c 1
 174.0957 629.6162 169.1279 630.2158 163.9921 630.2158 c 1
 119.2558 630.2158 82.9921 593.9521 82.9921 549.2158 c 1
 82.9921 504.4804 119.2558 468.2158 163.9921 468.2158 c 1
 178.1035 468.2158 191.2324 472.0322 202.7275 478.416 c 1
 211.7519 471.6484 222.8398 467.4716 235.0078 467.4716 c 1
 238.4882 467.4716 241.8476 467.8564 245.1357 468.5039 c 1
 265.6562 435.4082 301.9443 413.2324 343.7519 413.2324 c 1
 384.7675 413.2324 420.6962 434.4716 441.5039 466.4404 c 1
 458.7841 445.2724 484.7519 431.4716 514.2001 431.4716 c 1
 557.7597 431.4716 594.0478 461.1835 604.8242 501.3359 c 1
 605.6396 501.3115 606.3837 501.0957 607.2001 501.0957 c 1
 613.9921 501.0957 620.6162 501.8398 627.0244 503.1835 c 1
 642.7197 489.8398 662.8076 481.4882 685.0322 481.4882 c 1
 713.208 481.4882 738.0722 494.7119 754.5595 514.9921 c 1
 759.8164 513.456 765.2636 512.3759 771.0244 512.3759 c 1
 803.664 512.3759 830.1357 538.8476 830.1357 571.4882 c 1
 830.1357 604.1279 803.6396 630.5996 771 630.5996 c 1
640.1757 581.5917 m 1
 640.1757 553.4785 662.9667 530.6884 691.08 530.6884 c 1
 719.1933 530.6884 741.9843 553.4785 741.9843 581.5917 c 1
 741.9843 609.705 719.1933 632.496 691.08 632.496 c 1
 662.9667 632.496 640.1757 609.705 640.1757 581.5917 c 1
501.0244 578.3281 m 1
 501.0244 606.9599 477.8164 630.1923 449.1835 630.1923 c 1
 440.3515 630.1923 432.1435 627.7675 424.872 623.8798 c 1
 418.8476 638.3037 404.6162 648.456 387.9843 648.456 c 1
 374.3759 648.456 362.3759 641.6162 355.1523 631.2236 c 1
 339.0722 646.1757 317.6884 655.5361 294 655.5361 c 1
 251.8798 655.5361 216.8164 626.496 207 587.4238 c 1
 198.2402 596.2324 186.1201 601.7041 172.7041 601.7041 c 1
 146.04 601.7041 124.416 580.08 124.416 553.416 c 1
 124.416 526.7519 146.04 505.1279 172.7041 505.1279 c 1
 189.5761 505.1279 204.3603 513.7919 213 526.8964 c 1
 225.4082 500.9521 249.6962 481.9443 278.9755 477 c 1
 288.3359 460.9199 305.5439 450 325.4882 450 c 1
 351.2636 450 372.7441 468.0957 378.1201 492.2402 c 1
 385.8964 487.9199 394.7041 485.2324 404.208 485.2324 c 1
 429.8876 485.2324 451.2958 503.208 456.7675 527.2324 c 1
 481.7763 530.9521 501.0244 552.288 501.0244 578.3281 c 1
EndSplineSet
Fore
Refer: 4 -1 N 0.132565 0 0 0.132565 691 582 0
Refer: 4 -1 N 0.105 0 0 0.105 388 608 0
Refer: 4 -1 N 0.140625 0 0 0.140625 404 539 0
Refer: 4 -1 N 0.140625 0 0 0.140625 326 504 0
Refer: 4 -1 N 0.234375 0 0 0.234375 294 566 0
Refer: 4 -1 N 0.125742 0 0 0.125742 173 553 0
Refer: 4 -1 N 0.135026 0 0 0.135026 449 578 0
Colour: ffff
EndChar
StartChar: ExpressionlessFace.1
Encoding: 189 -1 188
Width: 912
Flags: MW
LayerCount: 2
Back
SplineSet
888 288 m 4
 888 49.416 694.5839 -144 456 -144 c 4
 217.4394 -144 24 49.416 24 288 c 4
 24 526.5605 217.4394 720 456 720 c 4
 694.5839 720 888 526.5605 888 288 c 1028
624 96 m 6
 288 96 l 6
 274.7529 96 264 106.7275 264 120 c 4
 264 133.2724 274.7529 144 288 144 c 6
 624 144 l 6
 637.2724 144 648 133.2724 648 120 c 4
 648 106.7275 637.2724 96 624 96 c 6
384 288 m 6
 216 288 l 6
 202.7529 288 192 298.7529 192 312 c 4
 192 325.247 202.7529 336 216 336 c 6
 384 336 l 6
 397.247 336 408 325.247 408 312 c 4
 408 298.7529 397.247 288 384 288 c 6
696 288 m 6
 528 288 l 6
 514.7275 288 504 298.7529 504 312 c 4
 504 325.247 514.7275 336 528 336 c 6
 696 336 l 6
 709.2724 336 720 325.247 720 312 c 4
 720 298.7529 709.2724 288 696 288 c 6
EndSplineSet
Fore
Refer: 37 -1 N 1 0 0 1 0 0 0
Refer: 36 -1 N 1 0 0 1 528 312 0
Refer: 36 -1 N 1 0 0 1 216 312 0
Colour: ffff
EndChar
StartChar: FaceBlowingAKiss.1
Encoding: 135 -1 135
Width: 912
Flags: MW
LayerCount: 2
Back
SplineSet
24 288 m 0
 24 49.413 217.413 -144 456 -144 c 0
 694.5869 -144 888 49.413 888 288 c 0
 888 526.5869 694.5869 720 456 720 c 0
 217.413 720 24 526.5869 24 288 c 0
240 348 m 0
 240 301.6074 266.8642 264 300 264 c 0
 333.1357 264 360 301.6074 360 348 c 0
 360 394.3925 333.1357 432 300 432 c 0
 266.8642 432 240 394.3925 240 348 c 0
706.9687 292.873 m 0
 705.5273 296.1113 670.9921 372 600 372 c 0
 529.0312 372 494.4726 296.1113 493.0312 292.873 c 0
 490.8232 287.9042 492.2646 282.0957 496.5117 278.6884 c 0
 500.7119 275.2802 506.7353 275.1611 511.1533 278.3535 c 0
 511.4394 278.5683 541.4394 300 600 300 c 0
 658.2236 300 688.1767 278.8574 688.8466 278.3769 c 0
 690.9609 276.7919 693.5039 276 696 276 c 0
 698.6386 276 701.3037 276.8886 703.4882 278.6152 c 0
 707.7353 282.0234 709.2001 287.8808 706.9687 292.873 c 0
167.9765 456 m 0
 162.9843 456 157.9199 457.5605 153.5996 460.7998 c 0
 142.9921 468.7431 140.8574 483.7919 148.7998 494.4003 c 0
 227.0878 598.7998 331.5839 600 336 600 c 0
 349.247 600 360 589.247 360 576 c 0
 360 562.7763 349.3193 552.0468 336.0957 552 c 0
 332.3769 551.9531 250.4648 549.9355 187.2001 465.5996 c 0
 182.496 459.3115 175.2724 456 167.9765 456 c 0
720.0234 384 m 0
 712.7041 384 705.5273 387.3115 700.7998 393.5996 c 0
 638.5917 476.5429 533.7353 456.6728 532.7041 456.4804 c 0
 519.5761 453.8388 507.0722 462.3349 504.457 475.2958 c 0
 501.8652 488.2802 510.288 500.9277 523.2724 503.5429 c 0
 528.8154 504.6728 659.039 529.2724 739.1767 422.4238 c 0
 747.1425 411.8154 744.9843 396.7685 734.3769 388.8232 c 0
 730.08 385.5605 725.039 384 720.0234 384 c 0
505.8964 70.9921 m 1
 537.9355 80.8808 568.9921 98.7353 568.9921 130.9921 c 0
 568.9921 193.8466 451.1035 202.2236 437.665 202.9687 c 0
 431.0878 203.5917 425.4472 198.3349 425.0156 191.7353 c 0
 424.6074 185.1611 429.5761 179.4726 436.1533 179.0156 c 0
 436.9921 178.9687 520.9921 171.8388 520.9921 130.9921 c 0
 520.9921 90.1425 436.9921 83.0156 436.1533 82.9687 c 0
 435.8154 82.9433 435.5761 82.7529 435.2646 82.7041 c 0
 434.0156 82.5605 432.8388 82.2724 431.7607 81.7431 c 2
 431.3037 81.4804 l 2
 430.1767 80.8574 429.1923 80.1113 428.3037 79.1269 c 0
 427.9687 78.7685 427.7275 78.3847 427.4394 77.9765 c 0
 426.8886 77.208 426.3847 76.4648 426.0234 75.5273 c 0
 425.7353 74.831 425.5917 74.0644 425.4472 73.3193 c 0
 425.3535 72.7685 425.0644 72.2646 425.0156 71.7119 c 0
 425.0156 71.4472 425.1113 71.208 425.1113 70.9687 c 0
 425.1113 70.7275 424.9921 70.4648 425.0156 70.2236 c 0
 425.039 69.6464 425.3271 69.1425 425.4472 68.5917 c 0
 425.5917 67.8466 425.7119 67.1269 426 66.4316 c 0
 426.3115 65.7119 426.7431 65.0644 427.1767 64.416 c 0
 427.5839 63.8388 427.9433 63.2158 428.4238 62.7119 c 0
 428.9765 62.1611 429.623 61.7275 430.2958 61.247 c 0
 430.873 60.8388 431.4003 60.4316 432.0722 60.1191 c 0
 432.8388 59.7607 433.6572 59.6152 434.496 59.4726 c 0
 435.0722 59.3271 435.5527 59.039 436.1533 58.9921 c 0
 436.9921 58.9433 520.9921 51.8154 520.9921 10.9687 c 0
 520.9921 -29.8808 436.9921 -37.0078 436.1533 -37.0566 c 0
 429.5761 -37.5351 424.6074 -43.2236 425.0156 -49.7763 c 0
 425.4238 -56.1347 430.7041 -61.0312 436.9921 -61.0312 c 2
 437.665 -61.0078 l 2
 451.1035 -60.2646 568.9921 -51.8886 568.9921 10.9687 c 0
 568.9921 43.247 537.9355 61.1035 505.8964 70.9921 c 1
844.8466 100.7275 m 0
 839.1845 119.6884 826.1533 136.3925 806.9765 145.7275 c 0
 784.8466 156.5039 760.0312 155.1113 739.9433 144.288 c 1
 736.1035 166.7529 721.9433 187.2236 699.8652 197.9765 c 0
 663.457 215.7353 619.5117 200.6152 601.7763 164.2314 c 0
 599.2568 159.0722 597.457 153.7431 596.2568 148.416 c 0
 577.6572 87.0722 611.6152 -3.7685 648.8652 -42.3349 c 0
 678.3847 -45.457 719.7353 -37.5839 757.1767 -21.3847 c 0
 793.1767 13.6572 822.7685 55.0078 844.8466 100.7275 c 0
879.6962 66.6728 m 0
 897.4316 103.0566 882.3349 147 845.9765 164.7353 c 0
 823.8466 175.5117 799.0312 174.1191 778.9433 163.2958 c 1
 775.1035 185.7607 760.9433 206.2314 738.8652 216.9843 c 0
 702.457 234.7431 658.5117 219.5996 640.7763 183.2392 c 0
 638.2568 178.08 636.457 172.7529 635.2568 167.4238 c 0
 616.6806 106.08 650.6152 15.2392 687.8652 -23.3271 c 0
 741.2158 -28.9433 833.7119 0.1689 870.623 52.5351 c 0
 874.1035 56.831 877.1767 61.5117 879.6962 66.6728 c 0
EndSplineSet
Fore
Refer: 67 -1 S 1 0 0 1 -156 -60 0
Refer: 26 -1 N 1 0 0 1 437 71 0
Refer: 27 -1 N 1 0 0 1 528 480 0
Refer: 10 -1 N 1 0 0 1 336 576 0
Refer: 11 -1 N -1 0 0 -1 600 372 0
Colour: ffff
EndChar
StartChar: FaceExhaling.1
Encoding: 205 -1 204
Width: 912
Flags: MW
LayerCount: 2
Back
SplineSet
24 288 m 4
 24 49.413 217.413 -144 456 -144 c 4
 694.5869 -144 888 49.413 888 288 c 4
 888 526.5869 694.5869 720 456 720 c 4
 217.413 720 24 526.5869 24 288 c 4
732.4804 349.9199 m 4
 725.4238 349.9199 718.5117 353.2314 713.9765 359.5195 c 4
 652.9433 444.0234 573.8886 445.8964 570.5527 445.9199 c 4
 557.831 446.0644 547.5839 456.8652 547.6572 470.039 c 4
 547.7275 483.2646 557.9765 493.9199 570.6962 493.9199 c 4
 574.9433 493.9199 675.5527 492.7197 750.9609 388.3193 c 4
 758.6386 377.7119 756.5527 362.665 746.3271 354.7197 c 4
 742.1533 351.4804 737.3037 349.9199 732.4804 349.9199 c 4
131.5195 349.9199 m 4
 126.7197 349.9199 121.8466 351.4804 117.6728 354.7197 c 4
 107.4472 362.665 105.4082 377.7119 113.039 388.3193 c 4
 188.4238 492.7197 289.0566 493.9199 293.3037 493.9199 c 4
 306.0722 493.9199 316.416 483.1689 316.416 469.9199 c 4
 316.416 456.6962 306.1191 445.9687 293.4003 445.9199 c 4
 289.7998 445.873 210.9121 443.8574 150 359.5195 c 4
 145.5117 353.2314 138.5527 349.9199 131.5195 349.9199 c 4
376.873 311.5683 m 4
 376.5605 311.3535 346.5839 289.9199 288 289.9199 c 4
 229.3925 289.9199 199.4394 311.3535 199.2001 311.5195 c 4
 194.5429 315.0234 188.0156 314.6884 183.7431 310.6308 c 4
 179.496 306.623 178.7529 300.1191 182.0156 295.247 c 4
 183.4804 293.0878 218.3769 241.9199 288 241.9199 c 4
 357.5996 241.9199 392.5195 293.0878 393.9843 295.2724 c 4
 397.2001 300.1191 396.4804 306.5527 392.2802 310.5839 c 4
 388.0566 314.6386 381.5039 315 376.873 311.5683 c 4
680.2802 310.5605 m 4
 676.08 314.6152 669.5527 315.0234 664.8466 311.5683 c 4
 664.5605 311.3535 634.5605 289.9199 576 289.9199 c 4
 517.416 289.9199 487.4394 311.3535 487.2001 311.5195 c 4
 482.5683 315.0234 476.0156 314.6884 471.7431 310.6308 c 4
 467.496 306.623 466.7763 300.1191 470.0156 295.247 c 4
 471.4804 293.0878 506.3769 241.9199 576 241.9199 c 4
 645.5996 241.9199 680.5195 293.0878 681.9843 295.2724 c 4
 685.2236 300.0957 684.4804 306.5273 680.2802 310.5605 c 4
563.6386 40.8232 m 4
 563.3769 41.8808 536.1611 145.9199 432 145.9199 c 4
 327.8388 145.9199 300.623 41.8808 300.3613 40.8232 c 4
 299.0878 35.7119 301.416 30.4804 305.9277 27.7685 c 4
 310.4394 25.08 316.3193 25.7041 320.2314 29.208 c 4
 320.4472 29.4003 344.5429 49.9199 432 49.9199 c 4
 518.1611 49.9199 542.8076 30 543.7431 29.208 c 4
 546.0234 27.0468 549 25.9199 552 25.9199 c 4
 554.0156 25.9199 556.0566 26.4238 557.9042 27.457 c 4
 562.6074 30.1425 564.9609 35.5917 563.6386 40.8232 c 4
101.7607 3.7919 m 4
 100.9199 2.7353 99.9121 1.873 99.0957 0.7431 c 4
 77.496 -29.7607 84.7197 -72.0234 115.2001 -93.623 c 4
 134.1113 -107.0156 157.5351 -109.2958 177.7685 -101.8574 c 4
 183.8886 -111.5761 191.9531 -120.3349 201.9121 -127.3925 c 4
 242.5917 -156.2158 298.9433 -146.5917 327.7431 -105.9121 c 4
 356.5683 -65.2314 346.9433 -8.8808 306.2646 19.9199 c 4
 281.1347 37.7275 250.0078 40.7763 223.1035 30.9609 c 5
 227.5683 56.0156 217.9199 82.5117 195.7685 98.1845 c 4
 165.2646 119.8076 123 112.5839 101.4003 82.08 c 4
 84.3115 57.9121 85.5117 26.5917 101.7607 3.7919 c 4
438.7919 61.0566 m 4
 438.2158 60.6728 396.0234 29.5429 364.1269 -13.6572 c 4
 352.3691 -29.5917 345.4804 -48.3349 339.1923 -67.1269 c 4
 337.1533 -73.2236 334.2724 -79.1035 330.5527 -84.623 c 4
 330.0722 -85.8232 329.3535 -86.7841 328.6308 -87.9843 c 4
 325.0312 -93.0234 320.9531 -97.5839 316.3925 -101.665 c 4
 289.7529 -124.9433 249.6728 -128.0644 219.1923 -106.7041 c 4
 210.5527 -100.4648 203.5917 -93.0234 198.3115 -84.3847 c 4
 180.5527 -90.8652 160.1533 -88.9433 143.831 -77.1845 c 4
 117.1923 -58.4648 110.9531 -21.7431 129.6728 4.8964 c 4
 130.3925 5.8574 131.3535 6.5761 132.0722 7.5351 c 4
 114.7919 31.5351 117.1689 66.9609 143.9531 88.1269 c 4
 167.0878 106.3925 198.9843 103.416 221.1113 83.9531 c 6
 221.7119 83.4238 l 6
 248.1113 59.7119 282.4804 46.4648 317.4238 52.6074 c 4
 346.1767 57.6728 382.416 66.8388 427.9921 82.1767 c 4
 433.5117 84.0957 439.7529 81.457 442.3925 76.1767 c 4
 445.2724 70.8964 443.5917 64.416 438.7919 61.0566 c 4
EndSplineSet
Fore
Refer: 10 -1 N -0.963 0 0 1 571 470 0
Refer: 10 -1 N 0.963 0 0 1 293 470 0
Refer: 6 -1 N -1 0 0 -1 432 146 0
Refer: 25 -1 N 1 0 0 1 576 242 0
Refer: 25 -1 N 1 0 0 1 288 242 0
Colour: ffff
EndChar
StartChar: FaceExhaling.2
Encoding: 206 -1 205
Width: 912
Flags: MW
LayerCount: 2
Fore
SplineSet
201.635742188 -127.001953125 m 128,-1,1
 231.930664062 -148.458984375 231.930664062 -148.458984375 268.943359375 -142.139648438 c 128,-1,2
 305.956054688 -135.819335938 305.956054688 -135.819335938 327.413085938 -105.524414062 c 128,-1,3
 348.87109375 -75.23046875 348.87109375 -75.23046875 342.55078125 -38.2177734375 c 128,-1,4
 336.231445312 -1.205078125 336.231445312 -1.205078125 305.936523438 20.2529296875 c 128,-1,5
 275.641601562 41.7109375 275.641601562 41.7109375 238.62890625 35.390625 c 128,-1,6
 201.616210938 29.0703125 201.616210938 29.0703125 180.159179688 -1.2236328125 c 128,-1,7
 158.701171875 -31.5185546875 158.701171875 -31.5185546875 165.021484375 -68.53125 c 128,-1,0
 171.340820312 -105.543945312 171.340820312 -105.543945312 201.635742188 -127.001953125 c 128,-1,1
114.970703125 -93.2578125 m 128,-1,9
 137.69140625 -109.3515625 137.69140625 -109.3515625 165.451171875 -104.611328125 c 128,-1,10
 193.2109375 -99.87109375 193.2109375 -99.87109375 209.303710938 -77.150390625 c 128,-1,11
 225.397460938 -54.4296875 225.397460938 -54.4296875 220.657226562 -26.669921875 c 128,-1,12
 215.916992188 1.08984375 215.916992188 1.08984375 193.196289062 17.1826171875 c 128,-1,13
 170.475585938 33.2763671875 170.475585938 33.2763671875 142.715820312 28.5361328125 c 128,-1,14
 114.956054688 23.7958984375 114.956054688 23.7958984375 98.86328125 1.0751953125 c 128,-1,15
 82.76953125 -21.6455078125 82.76953125 -21.6455078125 87.509765625 -49.4052734375 c 128,-1,8
 92.25 -77.1650390625 92.25 -77.1650390625 114.970703125 -93.2578125 c 128,-1,9
117.26953125 -11.962890625 m 128,-1,17
 139.991210938 -28.0556640625 139.991210938 -28.0556640625 167.75 -23.3154296875 c 128,-1,18
 195.509765625 -18.5751953125 195.509765625 -18.5751953125 211.603515625 4.1455078125 c 128,-1,19
 227.696289062 26.8662109375 227.696289062 26.8662109375 222.956054688 54.6259765625 c 128,-1,20
 218.216796875 82.3857421875 218.216796875 82.3857421875 195.495117188 98.478515625 c 128,-1,21
 172.774414062 114.572265625 172.774414062 114.572265625 145.014648438 109.83203125 c 128,-1,22
 117.254882812 105.091796875 117.254882812 105.091796875 101.162109375 82.37109375 c 128,-1,23
 85.068359375 59.650390625 85.068359375 59.650390625 89.80859375 31.890625 c 128,-1,16
 94.548828125 4.130859375 94.548828125 4.130859375 117.26953125 -11.962890625 c 128,-1,17
EndSplineSet
Colour: ffff
EndChar
StartChar: FaceExhaling.3
Encoding: 207 -1 207
Width: 912
Flags: MW
LayerCount: 2
Back
SplineSet
24 288 m 0
 24 49.413 217.413 -144 456 -144 c 0
 694.5869 -144 888 49.413 888 288 c 0
 888 526.5869 694.5869 720 456 720 c 0
 217.413 720 24 526.5869 24 288 c 0
732.4804 349.9199 m 0
 725.4238 349.9199 718.5117 353.2324 713.9755 359.5195 c 0
 652.9443 444.0244 573.8876 445.8964 570.5517 445.9199 c 0
 557.8769 446.0634 547.6562 456.789 547.6562 469.9013 c 0
 547.6562 469.9472 547.6562 469.9941 547.6562 470.04 c 0
 547.7275 483.2636 557.9755 493.9199 570.6962 493.9199 c 0
 574.9443 493.9199 675.5517 492.7197 750.9599 388.3203 c 0
 754.0849 384.0029 755.5927 378.9511 755.5927 373.9414 c 0
 755.5927 366.6406 752.3916 359.4306 746.3281 354.7197 c 0
 742.1523 351.4804 737.3037 349.9199 732.4804 349.9199 c 0
131.5195 349.9199 m 0
 126.7197 349.9199 121.8476 351.4804 117.6718 354.7197 c 0
 111.6123 359.4287 108.4277 366.6328 108.4277 373.9287 c 0
 108.4277 378.9423 109.9316 383.999 113.04 388.3203 c 0
 188.4238 492.7197 289.0556 493.9199 293.3037 493.9199 c 0
 306.0722 493.9199 316.416 483.1679 316.416 469.9199 c 0
 316.416 456.6962 306.1201 445.9677 293.4003 445.9199 c 0
 289.7998 445.872 210.9121 443.8564 150 359.5195 c 0
 145.5117 353.2324 138.5517 349.9199 131.5195 349.9199 c 0
376.872 311.5683 m 0
 376.8691 311.5664 376.8642 311.5634 376.8574 311.5585 c 0
 376.0517 310.9912 346.0898 289.9199 288 289.9199 c 0
 229.7714 289.9199 199.83 311.0742 199.2089 311.5136 c 0
 199.2041 311.5166 199.2021 311.5185 199.2001 311.5195 c 0
 197.0605 313.1298 194.5253 313.9296 191.9951 313.9296 c 0
 189.0205 313.9296 186.0527 312.8242 183.7441 310.6318 c 0
 181.2724 308.2998 179.9873 305.123 179.9873 301.914 c 0
 179.9873 299.6083 180.6513 297.2851 182.0156 295.248 c 0
 183.4804 293.0878 218.3759 241.9199 288 241.9199 c 0
 357.5996 241.9199 392.5195 293.0878 393.9843 295.2724 c 0
 395.331 297.3017 395.9873 299.6093 395.9873 301.9023 c 0
 395.9873 305.0849 394.7216 308.2402 392.2802 310.5839 c 0
 389.9785 312.7939 386.9853 313.9062 383.9892 313.9062 c 0
 381.4863 313.9062 378.9804 313.1298 376.872 311.5683 c 0
680.2802 310.5595 m 0
 677.9824 312.7792 674.9873 313.9062 671.9765 313.9062 c 0
 669.4833 313.9062 666.9785 313.1337 664.8476 311.5683 c 0
 664.5595 311.3515 634.5595 289.9199 576 289.9199 c 0
 517.7871 289.9199 487.8212 311.081 487.208 311.5136 c 0
 487.2041 311.5166 487.2021 311.5185 487.2001 311.5195 c 0
 485.0712 313.1298 482.5371 313.9296 480.0048 313.9296 c 0
 477.0273 313.9296 474.0527 312.8242 471.7441 310.6318 c 0
 469.2744 308.3017 467.997 305.1279 467.997 301.9218 c 0
 467.997 299.6132 468.6591 297.288 470.0156 295.248 c 0
 471.4804 293.0878 506.3759 241.9199 576 241.9199 c 0
 645.5996 241.9199 680.5195 293.0878 681.9843 295.2724 c 0
 683.3388 297.29 683.997 299.5888 683.997 301.875 c 0
 683.997 305.0566 682.7236 308.2138 680.2802 310.5595 c 0
563.6396 40.8242 m 0
 563.3759 41.8798 536.1601 145.9199 432 145.9199 c 0
 327.8398 145.9199 300.624 41.8798 300.3603 40.8242 c 0
 300.1269 39.8867 300.0146 38.9462 300.0146 38.0166 c 0
 300.0146 33.8789 302.2431 29.9833 305.9277 27.7675 c 0
 307.8105 26.6464 309.9306 26.1015 312.0458 26.1015 c 0
 315.0029 26.1015 317.9521 27.166 320.2324 29.208 c 0
 320.4482 29.4003 344.5439 49.9199 432 49.9199 c 0
 518.1601 49.9199 542.8076 30 543.7441 29.208 c 0
 546.0244 27.0478 549 25.9199 552 25.9199 c 0
 554.0156 25.9199 556.0556 26.4238 557.9042 27.456 c 0
 561.7333 29.6435 564.0039 33.6601 564.0039 37.9013 c 0
 564.0039 38.8701 563.8847 39.8505 563.6396 40.8242 c 0
101.7597 3.7919 m 0
 101.3886 3.3251 100.9843 2.8964 100.5791 2.4648 c 0
 100.0664 1.9208 99.5517 1.374 99.0957 0.7441 c 0
 90.6865 -11.1318 86.6455 -24.79 86.6455 -38.3183 c 0
 86.6455 -59.5371 96.5869 -80.4335 115.2001 -93.624 c 0
 127.0625 -102.0234 140.7001 -106.0517 154.2119 -106.0517 c 0
 162.2412 -106.0517 170.2265 -104.6298 177.7675 -101.8564 c 0
 183.8876 -111.5761 191.9521 -120.3359 201.9121 -127.3916 c 0
 217.7539 -138.6162 235.9726 -144.0107 254.0146 -144.0107 c 0
 282.3037 -144.0107 310.1591 -130.75 327.7441 -105.9121 c 0
 338.9687 -90.0703 344.3632 -71.8525 344.3632 -53.8095 c 0
 344.3632 -25.5205 331.1025 2.3349 306.2636 19.9199 c 0
 290.4667 31.1142 272.2998 36.4765 254.3007 36.4765 c 0
 243.6679 36.4765 233.0947 34.6054 223.1035 30.9599 c 1
 223.8164 34.9599 224.1689 38.996 224.1689 43.0195 c 0
 224.1689 64.1992 214.3837 85.0136 195.7675 98.1835 c 0
 183.8886 106.6044 170.2255 110.6503 156.6943 110.6503 c 0
 135.4794 110.6503 114.5888 100.705 101.4003 82.08 c 0
 93.0556 70.2783 89.0722 56.7714 89.0722 43.3837 c 0
 89.0722 29.3554 93.4462 15.458 101.7597 3.7919 c 0
438.7919 61.0556 m 4
 438.2158 60.6718 396.0244 29.5439 364.1279 -13.6562 c 4
 352.3681 -29.5917 345.4804 -48.3359 339.1923 -67.1279 c 4
 337.1523 -73.2236 334.2724 -79.1035 330.5517 -84.624 c 4
 330.207 -85.4873 329.7373 -86.2265 329.2324 -87.0205 c 4
 329.0361 -87.33 328.8339 -87.6474 328.6318 -87.9843 c 4
 325.0322 -93.0244 320.9521 -97.5839 316.3916 -101.664 c 4
 301.8593 -114.3632 283.3281 -121.0634 264.538 -121.0634 c 4
 248.8818 -121.0634 233.0449 -116.4121 219.1923 -106.7041 c 4
 210.5517 -100.4638 203.5917 -93.0244 198.3115 -84.3837 c 4
 191.6738 -86.8056 184.6669 -88.0546 177.6435 -88.0546 c 4
 165.873 -88.0546 154.0527 -84.5488 143.832 -77.1835 c 4
 127.5498 -65.7421 118.8886 -47.5771 118.8886 -29.0986 c 4
 118.8886 -17.3427 122.3935 -5.4619 129.6718 4.8964 c 4
 130.0322 5.3769 130.4521 5.7968 130.873 6.2177 c 4
 131.2929 6.6367 131.7119 7.0566 132.0722 7.5361 c 4
 124.8417 17.5781 121.0527 29.6191 121.0527 41.7792 c 4
 121.0527 58.6835 128.374 75.8164 143.9521 88.1279 c 4
 154.4296 96.3994 166.705 100.3144 179.0556 100.3144 c 4
 193.9755 100.3144 209.0058 94.6005 221.1123 83.9521 c 6
 221.7119 83.4238 l 6
 243.7646 63.6162 271.3779 51.1103 300.2412 51.1103 c 4
 305.9316 51.1103 311.6699 51.5966 317.4238 52.6083 c 4
 346.1757 57.6718 382.416 66.8398 427.9921 82.1757 c 4
 429.2109 82.5996 430.4648 82.8017 431.707 82.8017 c 4
 436.0917 82.8017 440.3349 80.29 442.3916 76.1757 c 4
 443.3515 74.416 443.8056 72.5224 443.8056 70.6562 c 4
 443.8056 66.9228 441.9921 63.2958 438.7919 61.0556 c 4
EndSplineSet
Fore
SplineSet
119 -29 m 0,0,1
 119 -8 119 -8 132 8 c 1,2,3
 121 23 121 23 121 42 c 0,4,5
 121 65 121 65 138 82.5 c 128,-1,6
 155 100 155 100 179 100 c 128,-1,7
 203 100 203 100 221 84 c 0,8,9
 259 51 259 51 300 51 c 0,10,11
 331 51 331 51 428 82 c 0,12,13
 437 85 437 85 442 76.5 c 128,-1,14
 447 68 447 68 439 61 c 0,15,16
 394 27 394 27 364 -14 c 0,17,18
 351 -30 351 -30 339 -68 c 0,19,20
 331 -89 331 -89 316 -102 c 0,21,22
 294 -121 294 -121 265 -121 c 0,23,24
 244 -121 244 -121 226 -111 c 128,-1,25
 208 -101 208 -101 198 -84 c 1,26,27
 190 -88 190 -88 178 -88 c 0,28,29
 154 -88 154 -88 136.5 -71 c 128,-1,30
 119 -54 119 -54 119 -29 c 0,0,1
EndSplineSet
Colour: ffff
EndChar
StartChar: FaceHoldingBackTears.1
Encoding: 310 -1 310
Width: 912
Flags: MW
LayerCount: 2
Back
SplineSet
24 288 m 0
 24 49.413 217.413 -144 456 -144 c 0
 694.5869 -144 888 49.413 888 288 c 0
 888 526.5869 694.5869 720 456 720 c 0
 217.413 720 24 526.5869 24 288 c 0
567.7675 104.7119 m 0
 569.9404 106.6357 572.7978 107.8046 575.9248 107.8046 c 0
 578.165 107.8046 580.2851 107.1992 582.0957 106.1523 c 0
 585.6162 104.0771 587.9814 100.246 587.9814 95.8681 c 0
 587.9814 94.9091 587.8544 93.9902 587.6396 93.0957 c 0
 587.3759 92.04 560.1601 -12 456 -12 c 0
 351.8398 -12 324.624 92.04 324.3837 93.1201 c 0
 324.1582 94.04 324.038 95.0009 324.038 95.9902 c 0
 324.038 102.6132 329.415 107.9902 336.038 107.9902 c 0
 339.3359 107.9902 342.3261 106.6523 344.496 104.496 c 0
 346.666 102.3398 368.6162 84 456 84 c 0
 543.456 84 567.5283 104.5195 567.7675 104.7119 c 0
719.8564 479.7363 m 0
 719.8564 479.7871 719.8564 479.8378 719.8564 479.8886 c 0
 719.8564 493.0214 709.3291 503.7138 696.2636 504 c 0
 694.6562 504.0244 656.5917 505.3437 616.9677 544.9677 c 0
 612.6025 549.4882 606.4804 552.3007 599.706 552.3007 c 0
 586.4599 552.3007 575.706 541.5468 575.706 528.3007 c 0
 575.706 521.5263 578.5117 515.3974 583.0322 511.0322 c 0
 637.4404 456.624 693.624 456 696 456 c 0
 709.1201 456.0126 719.7773 466.6318 719.8564 479.7363 c 0
328.9677 511.0322 m 0
 333.3251 515.3701 336.0244 521.374 336.0244 528.0029 c 0
 336.0244 537.998 329.8994 546.5644 321.1923 550.1523 c 0
 318.3623 551.3271 315.2597 551.9755 312.0068 551.9755 c 0
 305.3896 551.9755 299.375 549.3056 295.0322 544.9677 c 0
 255.6484 505.5839 217.7998 504.0478 215.7597 504 c 0
 202.5703 503.9335 191.8818 493.205 191.8818 480 c 0
 191.8818 466.7539 202.6357 456 215.8818 456 c 0
 215.9228 456 215.9589 456 216 456 c 0
 218.3759 456 274.5595 456.624 328.9677 511.0322 c 0
612 168 m 0
 684.8525 168 744 227.1474 744 300 c 0
 744 372.8525 684.8525 432 612 432 c 0
 539.1474 432 480 372.8525 480 300 c 0
 480 227.1474 539.1474 168 612 168 c 0
612 192 m 0
 678.2294 192 732 245.7705 732 312 c 0
 732 378.2294 678.2294 432 612 432 c 0
 545.7705 432 492 378.2294 492 312 c 0
 492 245.7705 545.7705 192 612 192 c 0
608.0878 315.9355 m 0
 633.1435 341.04 637.6083 377.1835 618.0957 396.6718 c 0
 598.5839 416.1835 562.416 411.6718 537.3837 386.5917 c 0
 512.3037 361.4882 507.8398 325.3437 527.3515 305.8564 c 0
 546.8876 286.3437 583.0322 290.8564 608.0878 315.9355 c 0
687 247.6562 m 2
 697.9921 258.6718 699.9599 274.5361 691.3916 283.1035 c 0
 682.8242 291.6718 666.9355 289.6796 655.9199 278.664 c 0
 644.9277 267.6484 642.9599 251.7841 651.5283 243.2158 c 0
 660.0957 234.6484 675.9843 236.6162 687 247.6318 c 2
 687 247.6562 l 2
300 168 m 0
 372.8525 168 432 227.1474 432 300 c 0
 432 372.8525 372.8525 432 300 432 c 0
 227.1474 432 168 372.8525 168 300 c 0
 168 227.1474 227.1474 168 300 168 c 0
300 192 m 0
 366.2294 192 420 245.7705 420 312 c 0
 420 378.2294 366.2294 432 300 432 c 0
 233.7705 432 180 378.2294 180 312 c 0
 180 245.7705 233.7705 192 300 192 c 0
296.0878 315.9355 m 0
 321.1435 341.04 325.6083 377.1835 306.0957 396.6718 c 0
 286.5839 416.1835 250.416 411.6718 225.3837 386.5917 c 0
 200.3037 361.4882 195.8398 325.3437 215.3515 305.8564 c 0
 234.8876 286.3437 271.0322 290.8564 296.0878 315.9355 c 0
374.9755 247.6562 m 2
 386.0156 258.6718 387.9599 274.5361 379.3916 283.1035 c 0
 370.8242 291.6718 354.9355 289.6796 343.9199 278.664 c 0
 332.9277 267.6484 330.9599 251.7841 339.5283 243.2158 c 0
 348.0957 234.6484 363.9843 236.6162 374.9755 247.6318 c 2
 374.9755 247.6562 l 2
720 216 m 0
 720 213.4804 695.6396 168 612 168 c 0
 528.3603 168 504 213.4804 504 216 c 0
 456 290.5195 552.3603 216 612 216 c 0
 671.6396 216 768 290.5195 720 216 c 0
408 216 m 0
 408 213.4804 383.6396 168 300 168 c 0
 216.3603 168 192 213.4804 192 216 c 0
 144 290.5195 240.3603 216 300 216 c 0
 359.6396 216 456 290.5195 408 216 c 0
EndSplineSet
Fore
Refer: 6 -1 N 1 0 0 1 456 -12 0
Refer: 3 -1 N -1 0 0 1 696 480 0
Refer: 3 -1 N 1 0 0 1 216 480 0
Colour: ffff
EndChar
StartChar: FaceInClouds.3
Encoding: 196 -1 195
Width: 912
Flags: MW
LayerCount: 2
Fore
SplineSet
52 555 m 1,0,-1
 379 590 l 1,1,2
 379 515 379 515 325 462 c 128,-1,3
 271 409 271 409 198 409 c 0,4,5
 136 409 136 409 94 449 c 128,-1,6
 52 489 52 489 52 555 c 1,0,-1
430 -18 m 1,7,-1
 430 37 l 1,8,9
 508 108 508 108 598 108 c 0,10,11
 669 108 669 108 728 64 c 1,12,13
 747 71 747 71 764 71 c 0,14,15
 799 71 799 71 825 48.5 c 128,-1,16
 851 26 851 26 851 -18 c 1,17,-1
 430 -18 l 1,7,-1
524 596 m 1,18,-1
 856 584 l 1,19,20
 856 541 856 541 837.5 523 c 128,-1,21
 819 505 819 505 797 501 c 1,22,23
 772 466 772 466 738.5 450 c 128,-1,24
 705 434 705 434 670 434 c 0,25,26
 614 434 614 434 569 473 c 128,-1,27
 524 512 524 512 524 596 c 1,18,-1
EndSplineSet
Colour: ffff
EndChar
StartChar: FaceInClouds.4
Encoding: 197 -1 197
Width: 912
Flags: MW
LayerCount: 2
Fore
SplineSet
819 51 m 1049,0,-1
43 557 m 0,2,3
 43 607 43 607 78.5 642.5 c 128,-1,4
 114 678 114 678 164 678 c 2,5,-1
 170 678 l 1,6,7
 194 709 194 709 231 709 c 0,8,9
 251 709 251 709 269.5 698 c 128,-1,10
 288 687 288 687 298 667 c 1,11,12
 350 712 350 712 425 712 c 0,13,14
 496 712 496 712 549 670 c 1,15,16
 564 692 564 692 589.5 706 c 128,-1,17
 615 720 615 720 645 720 c 0,18,19
 681 720 681 720 710.5 700 c 128,-1,20
 740 680 740 680 752 650 c 1,21,22
 774 670 774 670 802 670 c 0,23,24
 831 670 831 670 852 649.5 c 128,-1,25
 873 629 873 629 873 599 c 128,-1,26
 873 569 873 569 852 548 c 128,-1,27
 831 527 831 527 802 527 c 0,28,29
 785 527 785 527 767 536 c 1,30,31
 751 507 751 507 720 488 c 128,-1,32
 689 469 689 469 650 469 c 0,33,34
 603 469 603 469 567 497 c 1,35,-1
 431 439 l 1,36,-1
 288 495 l 1,37,38
 237 444 237 444 170 444 c 0,39,40
 120 444 120 444 76 474 c 1,41,42
 43 512 43 512 43 557 c 0,2,3
39 -2 m 0,43,44
 39 39 39 39 70 65 c 128,-1,45
 101 91 101 91 164 93 c 1,46,-1
 294 149 l 1,47,-1
 424 117 l 1,48,-1
 493 9 l 1,49,50
 547 53 547 53 612 53 c 0,51,52
 673 53 673 53 725 12 c 1,53,54
 734 28 734 28 751.5 37.5 c 128,-1,55
 769 47 769 47 789 47 c 0,56,57
 817 47 817 47 842 26 c 1,58,59
 859 6 859 6 859 -19 c 0,60,61
 859 -50 859 -50 837 -71 c 128,-1,62
 815 -92 815 -92 787 -92 c 0,63,64
 775 -92 775 -92 763 -88 c 1,65,66
 758 -101 758 -101 745.5 -109 c 128,-1,67
 733 -117 733 -117 718 -117 c 0,68,69
 693 -117 693 -117 677 -98 c 1,70,71
 646 -127 646 -127 603 -128 c 0,72,73
 585 -128 585 -128 568 -122 c 1,74,75
 540 -141 540 -141 507 -141 c 0,76,77
 458 -141 458 -141 432 -114 c 1,78,79
 379 -144 379 -144 316 -144 c 0,80,81
 267 -144 267 -144 227 -127 c 128,-1,82
 187 -110 187 -110 171 -81 c 1,83,84
 150 -92 150 -92 129 -92 c 0,85,86
 92 -92 92 -92 65.5 -66 c 128,-1,87
 39 -40 39 -40 39 -2 c 0,43,44
EndSplineSet
Colour: ffff
EndChar
StartChar: FaceInClouds.5
Encoding: 198 -1 198
Width: 912
Flags: MW
LayerCount: 2
Back
SplineSet
661.9921 528.8203 m 4
 661.9921 475.8046 704.9765 432.8203 757.9921 432.8203 c 4
 811.0078 432.8203 853.9921 475.8046 853.9921 528.8203 c 4
 853.9921 581.8359 811.0078 624.8203 757.9921 624.8203 c 4
 704.9765 624.8203 661.9921 581.8359 661.9921 528.8203 c 4
212.1328 1.3828 m 5
 200.3671 -4.2656 187.7578 -7.7578 174.2578 -9.0703 c 4
 117.6562 -13.4062 68.0156 28.8046 63.2109 85.4062 c 4
 58.875 142.4531 101.1093 191.6718 157.7109 196.4531 c 4
 193.8515 199.0781 226.5234 183.3984 246.9609 157.2656 c 6
 212.1328 1.3828 l 5
72 288 m 4
 72 75.914 243.914 -96 456 -96 c 4
 668.0859 -96 840 75.914 840 288 c 4
 840 500.0859 668.0859 672 456 672 c 4
 243.914 672 72 500.0859 72 288 c 4
385.3593 311.4375 m 4
 385.3593 271.5234 362.1796 238.9921 333.7265 238.9921 c 4
 305.0156 238.9921 281.8359 271.5234 281.8359 311.4375 c 4
 281.8359 351.6328 305.039 383.9062 333.7265 383.9062 c 4
 362.1562 383.9296 385.3593 351.6328 385.3593 311.4375 c 4
654.8671 311.4375 m 4
 654.8671 271.5234 631.664 238.9921 602.9765 238.9921 c 4
 574.2656 238.9921 551.0859 271.5234 551.0859 311.4375 c 4
 551.0859 351.6328 574.289 383.9062 602.9765 383.9062 c 4
 631.6875 383.9296 654.8671 351.6328 654.8671 311.4375 c 4
358.3359 506.8359 m 4
 355.7109 501.8203 352.8515 496.8046 349.7343 492 c 4
 339.2109 475.9687 326.2968 461.6484 311.2265 449.414 c 4
 296.8828 437.7187 281.1093 428.3671 264.1171 421.6875 c 4
 225.375 405.6562 179.4609 403.9921 141.914 418.8046 c 4
 136.1718 420.9609 130.4296 423.5859 125.1796 426.7031 c 4
 102.4453 438.3984 83.5781 455.8828 72.0937 477.1406 c 5
 90.9843 463.0312 112.5234 453 135.2109 447.9609 c 4
 167.7421 440.789 202.4062 443.414 235.4062 457.9921 c 4
 249.539 464.2031 262.4296 472.1015 273.6796 481.664 c 4
 287.0625 492.6562 298.5468 505.5703 307.6406 519.914 c 4
 318.6328 537.1171 326.039 556.2421 329.8828 576.5859 c 4
 343.7578 580.1484 356.6718 585.914 367.664 594.2578 c 4
 371.4609 597.1406 375.3046 600.2343 378.6562 603.3515 c 5
 381.0468 570.914 374.3437 536.9531 358.3359 506.8359 c 4
873.0703 604.4531 m 4
 874.5468 584.9531 867.9609 566.3906 856.2187 552.4687 c 4
 854.5312 550.5468 852.8203 548.8125 851.1093 547.1015 c 4
 839.6484 536.3671 824.5312 529.0546 807.6796 527.6015 c 4
 793.0312 526.6171 779.1093 530.039 767.3906 536.3671 c 4
 762.0234 526.8515 755.4375 518.3203 748.125 510.5156 c 4
 746.414 508.8046 744.9609 507.3281 743.2265 505.875 c 4
 713.4609 477.5859 671.7421 463.1718 628.0546 470.4843 c 4
 584.1328 477.5859 549 504.914 529.9453 541.5234 c 4
 525.7968 549.3046 522.375 557.625 519.9375 566.3906 c 5
 513.3281 563.2265 506.2734 561.2578 498.7031 560.5546 c 4
 466.9687 558.0937 439.1484 581.789 436.4531 613.4765 c 4
 434.0156 645.4453 457.7109 673.0312 489.4218 675.7265 c 4
 509.7187 677.1796 528 668.3906 539.4609 653.7656 c 5
 557.039 689.8828 592.6875 715.9921 635.625 719.6484 c 4
 686.8593 723.5625 732.9843 694.5234 752.4843 650.0859 c 5
 763.9687 661.0781 779.0859 668.3906 796.1718 669.8671 c 4
 835.2421 673.0312 869.9062 643.5234 873.0703 604.4531 c 4
851.2031 547.0078 m 5
 848.8125 538.875 844.7578 531.2109 838.7812 524.5312 c 4
 831.6093 515.9062 821.8125 509.9296 810.7968 505.1484 c 4
 806.4843 503.2265 801.4453 501.7968 796.6875 501.0937 c 4
 792.375 494.3906 787.3359 488.1796 781.6171 482.2031 c 4
 767.7421 466.8984 749.8125 454.4531 729.9609 446.3203 c 4
 696 431.9765 655.3359 430.5468 620.6953 442.5234 c 4
 601.8046 448.7343 584.0859 459.2343 569.5312 472.875 c 4
 557.5781 483.375 547.5234 496.0781 540.8203 509.9296 c 4
 538.8984 513.5156 537.2343 517.3359 535.8046 520.9218 c 4
 533.1562 527.625 531.2578 534.5625 530.0625 541.4765 c 5
 532.9453 535.7578 536.2734 530.4843 540.0937 525.2109 c 4
 551.0859 509.6718 565.4296 496.2656 582.4218 486.4687 c 6
 582.6796 486.4687 l 6
 596.2968 478.5937 611.625 473.0859 628.1015 470.4375 c 4
 671.8593 463.0312 713.4609 477.6328 743.3671 505.8515 c 4
 745.0546 507.2812 746.4843 508.7343 748.1484 510.375 c 4
 750.5625 513.0234 752.9296 515.6484 755.0859 518.5312 c 4
 759.8671 524.0156 763.9453 529.9921 767.5312 536.4375 c 4
 779.2265 529.9921 793.1015 526.6406 807.7031 527.6015 c 4
 824.414 529.0781 839.7187 536.4843 851.2031 547.0078 c 5
594.6093 577.7812 m 4
 594.6093 503.6015 518.7187 443.5781 424.9921 443.5781 c 4
 370.5937 443.5781 322.0078 463.8281 291.0234 495.3046 c 5
 260.7656 459.6796 208.5468 436.0078 164.3671 436.0078 c 4
 97.5234 436.0078 43.3359 490.1718 43.3359 557.039 c 4
 43.3359 623.9062 97.5234 678.0703 164.3671 678.0703 c 4
 166.0781 678.0703 168.0234 678.0703 169.7578 677.8359 c 4
 183.6796 696.6328 205.6406 708.5859 230.7656 708.5859 c 4
 260.2734 708.5859 285.914 691.4765 298.1015 666.8437 c 5
 329.0859 694.8984 374.4843 712.2187 424.9921 712.2187 c 4
 518.7187 712.2421 594.6093 652.1953 594.6093 577.7812 c 4
694.0781 614.2031 m 5
 692.6484 604.3828 688.8281 594.3515 683.0859 585.0234 c 4
 675.4218 572.8359 664.4296 561.8437 650.8125 554.1796 c 4
 640.289 548.2031 628.0781 542.9531 615.164 541.0312 c 4
 607.2656 521.414 596.2734 503.0156 582.6562 486.5156 c 6
 582.3984 486.5156 l 6
 578.3437 481.7343 574.0312 477.164 569.4843 472.875 c 4
 564.2343 467.625 558.75 462.8437 552.7734 458.2734 c 4
 517.125 430.7812 470.9765 415.2421 425.2968 415.7109 c 4
 385.8515 415.7109 344.4609 427.1718 311.2265 449.414 c 4
 306.4453 452.5546 302.1328 455.8828 297.8437 459.2109 c 4
 289.2187 466.1484 281.1093 473.5781 273.7031 481.7109 c 4
 265.8046 489.8437 258.6328 498.6796 252.164 508.0078 c 4
 246.6796 516.8906 241.875 525.7265 237.8203 535.289 c 4
 226.3359 536.4843 214.8515 539.3437 204.8203 544.3828 c 4
 199.8046 546.5625 195.2343 549.164 190.9453 552.2812 c 4
 177.3046 562.0781 166.3125 574.7578 160.8281 589.5937 c 4
 156.2578 599.8593 154.3593 610.8515 155.0625 621.1406 c 5
 165.3515 587.414 198.8437 565.8984 234 570.4218 c 6
 238.5468 571.1484 l 6
 247.875 572.8359 256.4531 576.6562 263.8828 581.414 c 5
 268.664 570.4218 274.1484 560.1328 280.8515 550.5937 c 4
 282.7734 547.4531 284.9062 544.6171 287.2968 541.7343 c 4
 293.2734 533.8359 300.2109 526.4062 307.6406 519.9609 c 4
 320.0625 508.4765 334.1718 499.1484 349.7343 491.9765 c 4
 368.8593 482.8828 390.1406 477.6328 412.6406 476.6718 c 4
 459.9843 474.2578 503.4843 491.25 535.7812 520.8984 c 6
 540.0703 525.1875 l 6
 555.6328 540.2578 568.0546 558.6796 576.8906 579 c 4
 592.6875 572.2968 610.3593 571.1015 628.5468 573.5156 c 4
 642.8906 575.414 658.1953 584.4843 670.3828 593.6015 c 4
 683.8125 603.4218 693.3515 613.2421 694.0781 614.2031 c 5
830.5781 -76.7109 m 4
 810.7968 -91.8281 785.9062 -95.4843 763.9453 -87.9375 c 6
 762.9609 -87.7031 l 5
 762.9609 -88.1718 753.539 -116.7187 716.8359 -116.4843 c 4
 700.7343 -116.3906 686.5781 -109.664 676.8046 -98.4375 c 5
 657.539 -116.4843 631.664 -127.7343 602.8593 -127.7343 c 4
 590.6718 -127.7343 578.9531 -125.789 567.9609 -121.875 c 4
 550.875 -133.8281 530.1328 -140.8593 507.4218 -140.9062 c 4
 462.2812 -141.0234 442.7578 -124.8046 432.0234 -113.5781 c 4
 338.6484 -168.0703 219.0468 -141.6796 180.4218 -94.7812 c 4
 176.8125 -90.375 173.6015 -85.7578 170.9062 -80.8593 c 5
 154.8046 -89.8828 136.2421 -93.7968 116.9765 -91.1015 c 4
 68.1562 -85.0078 33.2578 -39.8671 39.375 8.9531 c 4
 42.3046 31.664 53.5546 51.164 69.6562 65.0859 c 4
 70.875 66.3046 72.3281 67.5468 73.5703 68.4843 c 4
 91.875 82.4062 115.289 89.4609 139.7109 86.2968 c 4
 143.625 85.8281 147.2578 85.0781 150.9375 84.0937 c 6
 153.8671 83.3671 l 6
 157.5234 82.3828 160.9453 80.9296 164.3437 79.4531 c 4
 167.7656 78 171.1875 76.289 174.3515 74.3437 c 4
 178.9921 71.6718 183.1406 68.7421 187.0546 65.3203 c 4
 189.5156 68.0156 191.9296 70.4531 194.3671 72.8906 c 6
 194.8593 73.3593 l 6
 241.2187 118.7578 310.7812 135.6093 375.1875 110.4609 c 4
 405.4453 98.7656 430.8281 78.9843 448.8984 54.8437 c 4
 465.75 66.0703 485.7421 72.3984 507.4453 72.3984 c 4
 530.1562 72.3984 551.1328 65.3203 568.4531 53.1328 c 4
 611.1562 64.8515 655.8281 58.5234 693.164 38.25 c 4
 693.3984 38.25 693.3984 38.0156 693.3984 38.0156 c 6
 698.789 35.3203 704.1328 32.1562 709.0312 28.4765 c 4
 714.1406 25.0781 719.039 21.164 723.914 17.25 c 5
 728.2968 25.0546 734.3906 32.1328 741.9609 37.9921 c 4
 771.9843 60.9375 814.1953 57.0234 839.3203 29.9296 c 6
 843.7265 24.7968 l 6
 868.1484 -6.6796 862.289 -52.289 830.5781 -76.7109 c 4
569.4843 -122.0859 m 6
 567.8203 -121.8515 l 5
 568.289 -119.9296 568.5468 -118.2656 568.7812 -116.3437 c 4
 570.4453 -103.6875 568.7812 -91.2421 564.2343 -80.0156 c 4
 554.9062 -56.8125 533.3906 -39.1171 506.625 -35.789 c 4
 503.7421 -35.2968 500.6484 -35.2968 497.5312 -35.2968 c 4
 491.2968 -35.2968 485.3203 -36.0234 479.3437 -37.4531 c 5
 478.6406 -27.8906 476.9531 -18.0937 474.5859 -9 c 4
 469.3125 13.0078 459.75 33.3281 446.6015 51.0234 c 4
 428.414 75.6562 402.8437 95.7421 371.9765 107.6953 c 4
 308.1328 132.5625 239.0156 115.8281 193.1015 70.875 c 6
 192.6328 70.3828 l 6
 189.9843 67.9921 187.6171 65.3671 185.2031 62.7421 c 4
 181.3828 66.0703 177.3046 69.1875 172.5468 71.8359 c 4
 169.4062 73.7578 166.0781 75.3984 162.75 76.8515 c 4
 159.8671 78.0468 157.0078 79.2421 153.8906 80.2031 c 4
 153.3984 80.4375 152.6953 80.4375 152.2031 80.6953 c 6
 149.3203 81.3984 l 6
 145.7578 82.3593 142.1484 83.0859 138.3281 83.5781 c 4
 113.9531 86.9296 90.75 79.7578 72.5859 65.8828 c 4
 71.3671 64.9218 69.9375 63.7265 68.7656 62.5312 c 5
 68.5312 63 l 6
 79.0312 83.5781 101.039 100.7812 128.2968 106.2656 c 4
 131.414 106.7578 134.5312 107.4609 137.6484 107.7187 c 4
 146.9765 108.914 156.539 109.1484 166.1015 107.4609 c 4
 187.6406 133.289 217.0312 154.1015 250.5234 165.8203 c 4
 292.6171 180.6562 341.1328 180.6562 383.9531 165.8203 c 4
 426.2812 151.9453 466.2187 123.2343 490.3593 85.2187 c 4
 490.3593 84.75 490.6171 84.75 490.6171 84.5156 c 4
 491.3203 83.5546 492.0468 82.3359 492.539 81.375 c 4
 503.039 65.1093 510.9375 47.6718 516.6796 29.4843 c 4
 516.914 28.5468 517.3828 27.3281 517.875 26.3671 c 4
 517.875 25.8984 518.1093 25.4062 518.3437 24.9375 c 4
 520.9921 14.9062 522.6562 4.6171 523.6171 -5.414 c 4
 539.3906 -12.6093 552.7968 -22.875 562.1015 -36.0234 c 4
 570.9609 -48.2109 576.9375 -61.8515 578.625 -75.7265 c 4
 578.8593 -77.3906 579.0937 -79.0546 579.0937 -80.7421 c 4
 580.2421 -95.789 576.6796 -110.625 569.4843 -122.0859 c 6
842.8359 24.5156 m 5
 818.9296 48.8906 779.9296 53.9296 750.0468 36.4453 c 4
 747.6562 35.4843 745.5234 34.0546 743.3437 32.3906 c 4
 735.7031 26.6718 729.4687 19.7343 724.9453 12.0703 c 5
 720.164 16.125 714.914 19.7343 709.875 23.0625 c 4
 704.8593 26.6484 699.3515 29.7656 693.8437 32.3906 c 6
 693.8437 32.3906 693.8437 32.6484 693.6093 32.6484 c 4
 648.164 56.0625 592.4296 60.1406 541.7578 38.625 c 4
 533.1328 35.039 525.2343 30.9609 517.8515 26.414 c 5
 517.3593 27.375 516.8906 28.5937 516.6562 29.5546 c 4
 510.914 47.7187 503.0156 65.1796 492.5156 81.4218 c 5
 495.8671 83.1093 498.9609 84.7968 502.0781 86.2031 c 4
 542.9765 105.8203 592.7109 113.2265 638.1328 103.8984 c 4
 660.6328 99.3515 682.125 91.7109 701.9765 81.3984 c 4
 711.0703 76.1484 719.6718 70.1718 727.5703 63.7265 c 4
 743.3437 69.7031 760.0781 71.8593 775.6406 69.7031 c 4
 776.3437 69.7031 777.3046 69.7031 778.0312 69.4453 c 4
 795.2343 66.8203 811.0312 60.6093 822.75 50.3203 c 4
 831.8203 43.1484 838.7578 34.0546 842.8359 24.5156 c 5
EndSplineSet
Fore
Refer: 80 -1 N 1 0 0 1 0 -36 0
Refer: 80 -1 N -0.945519 0.325568 -0.325568 -0.945519 935 455 0
Colour: ffff
EndChar
StartChar: FaceSavoringFood.1
Encoding: 146 -1 146
Width: 912
Flags: MW
LayerCount: 2
Back
SplineSet
24 288 m 0
 24 49.413 217.413 -144 456 -144 c 0
 694.5869 -144 888 49.413 888 288 c 0
 888 526.5869 694.5869 720 456 720 c 0
 217.413 720 24 526.5869 24 288 c 0
191.9765 312 m 0
 188.3769 312 184.7041 312.8154 181.2724 314.5195 c 0
 169.416 320.4472 164.6152 334.873 170.5429 346.7275 c 0
 171.7919 349.247 202.1767 408 288 408 c 0
 373.8466 408 404.208 349.2236 405.457 346.7275 c 0
 411.3847 334.873 406.5605 320.4472 394.7275 314.5195 c 0
 382.9433 308.5917 368.6884 313.3427 362.665 324.9843 c 0
 361.6074 326.9277 342.7197 360 288 360 c 0
 232.3925 360 213.623 325.6074 213.457 325.2724 c 0
 209.2568 316.8466 200.7841 312 191.9765 312 c 0
720 312 m 0
 723.5996 312 727.2724 312.8154 730.7041 314.5195 c 0
 742.5605 320.4472 747.3613 334.873 741.4316 346.7275 c 0
 740.1845 349.247 709.7998 408 623.9765 408 c 0
 538.1269 408 507.7685 349.2236 506.5195 346.7275 c 0
 500.5917 334.873 505.416 320.4472 517.247 314.5195 c 0
 529.0312 308.5917 543.288 313.3427 549.3115 324.9843 c 0
 550.3691 326.9277 569.2568 360 623.9765 360 c 0
 679.5839 360 698.3535 325.6074 698.5195 325.2724 c 0
 702.7197 316.8466 711.1923 312 720 312 c 0
732.0722 155.5195 m 0
 739.8232 173.496 743.1347 185.6884 743.2568 186.1689 c 0
 746.4726 198.9843 738.6962 211.9687 725.8574 215.208 c 0
 712.9921 218.4726 700.0078 210.6962 696.6962 197.8574 c 0
 694.9199 190.7763 649.9433 24 456 24 c 0
 262.0566 24 217.08 190.7763 215.2802 197.8808 c 0
 211.9687 210.6962 198.9843 218.4726 186.1191 215.2314 c 0
 173.3037 211.9921 165.5273 199.0078 168.7197 186.1923 c 0
 169.247 184.08 223.9433 -24 456 -24 c 0
 495.5996 -24 529.6806 -17.6152 559.5605 -7.5605 c 0
 663.4804 27.4316 712.5351 110.2802 732.0722 155.5195 c 0
801.7685 79.6572 m 2
 730.8232 152.8808 l 1
 730.8232 152.8808 714.5039 163.3925 700.2724 139.247 c 0
 681.5527 107.5195 650.4726 68.8076 605.8574 39.1425 c 0
 587.1113 26.6884 554.5195 10.6074 541.1269 7.5117 c 0
 523.4882 3.457 531.8154 -15.623 531.8154 -15.623 c 1
 545.8574 -12.5761 557.039 -8.4003 557.039 -8.4003 c 1
 564.1425 -15.5039 l 1
 629.5683 -80.9277 l 2
 671.039 -122.4003 749.5683 -128.9277 797.5683 -80.9277 c 0
 845.5683 -32.9277 843.2646 38.1611 801.7685 79.6572 c 2
741.9609 -25.7763 m 0
 747.0722 -20.665 747.0722 -12.3847 741.9609 -7.2724 c 2
 654.8652 79.8232 l 1
 635.7607 61.873 l 1
 723.4316 -25.7998 l 2
 728.5429 -30.8886 736.8466 -30.8886 741.9609 -25.7763 c 0
EndSplineSet
Fore
Refer: 5 -1 N 1 0 0 1 0 0 0
Refer: 29 -1 N 1 0 0 1 624 384 0
Refer: 29 -1 N 1 0 0 1 288 384 0
Colour: ffff
EndChar
StartChar: FaceSavoringFood.2
Encoding: 147 -1 146
Width: 912
Flags: MW
LayerCount: 2
Back
SplineSet
801.7685 79.6572 m 1
 843.2646 38.1611 845.5683 -32.9277 797.5683 -80.9277 c 0
 749.5683 -128.9277 671.039 -122.4003 629.5683 -80.9277 c 2
 564.1425 -15.5039 l 1
 557.039 -8.4003 l 1
 557.039 -8.4003 545.8574 -12.5761 531.8154 -15.623 c 1
 531.8154 -15.623 523.4882 3.457 541.1269 7.5117 c 0
 554.5195 10.6074 587.1113 26.6884 605.8574 39.1425 c 0
 650.4726 68.8076 681.5527 107.5195 700.2724 139.247 c 0
 714.5039 163.3925 730.8232 152.8808 730.8232 152.8808 c 1
 801.7685 79.6572 l 1
EndSplineSet
Fore
SplineSet
530.5 -1.5 m 129,-1,1
 532 6 532 6 543 8 c 1,2,3
 590 24 590 24 631 58 c 129,-1,4
 672 92 672 92 700 139 c 1,5,6
 707 150 707 150 714.5 153.5 c 129,-1,7
 722 157 722 157 731 153 c 9,8,-1
 802 80 l 17,9,10
 833 48 833 48 833 2 c 129,-1,11
 833 -44 833 -44 799.5 -79 c 129,-1,12
 766 -114 766 -114 715.5 -114.5 c 129,-1,13
 665 -115 665 -115 630 -81 c 9,14,-1
 557 -8 l 1,15,-1
 532 -16 l 1,16,0
 529 -9 529 -9 530.5 -1.5 c 129,-1,1
EndSplineSet
Colour: ffff
EndChar
StartChar: FaceSavoringFood.3
Encoding: 148 -1 147
Width: 912
Flags: MW
LayerCount: 2
Back
SplineSet
741.9609 -25.7763 m 0
 736.8466 -30.8886 728.5429 -30.8886 723.4316 -25.7998 c 2
 635.7607 61.873 l 1
 654.8652 79.8232 l 1
 741.9609 -7.2724 l 2
 747.0722 -12.3847 747.0722 -20.665 741.9609 -25.7763 c 0
EndSplineSet
Fore
SplineSet
636 62 m 1,0,-1
 655 80 l 1,1,-1
 742 -7 l 17,2,3
 746 -11 746 -11 746 -16.5 c 129,-1,4
 746 -22 746 -22 742 -26 c 129,-1,5
 738 -30 738 -30 732.5 -30 c 129,-1,6
 727 -30 727 -30 723 -26 c 9,7,-1
 636 62 l 1,0,-1
EndSplineSet
Colour: ffff
EndChar
StartChar: FaceScreamingInFear.0
Encoding: 325 -1 324
Width: 912
Flags: MW
LayerCount: 2
Back
SplineSet
456 720 m 4
 217.4404 720 24 526.5595 24 288 c 4
 24 142.7763 95.9042 14.5917 205.7763 -63.7197 c 5
 208.2724 90.7919 152.0878 264 57.6962 264 c 4
 46.5595 264 37.5361 262.416 30.0244 259.6083 c 5
 37.2958 277.7763 53.0644 288 82.5595 288 c 4
 185.04 288 242.5439 83.8564 228.7675 -78.9121 c 4
 294.8642 -119.9277 372.5283 -144 456 -144 c 4
 539.496 -144 617.1835 -119.9042 683.2802 -78.8876 c 4
 669.4316 84.4804 726.9121 288 829.4638 288 c 4
 859.0556 288 874.872 277.7763 882.0722 259.6083 c 5
 874.5361 262.416 865.4882 264 854.3037 264 c 4
 759.7919 264 703.6318 91.2236 706.2236 -63.7197 c 5
 816.1201 14.5917 888 142.7763 888 288 c 4
 888 526.5595 694.5839 720 456 720 c 4
456 720 m 4
 217.4404 720 24 526.5595 24 288 c 4
 24 259.3916 26.9521 231.456 32.2558 204.3837 c 5
 37.872 225.0957 46.6562 244.9677 57.6484 264 c 5
 46.5361 264 37.5361 262.416 30.0478 259.6083 c 5
 36.3837 275.4238 49.7763 284.7597 72.4804 287.0156 c 4
 144.288 387.3115 288.8876 456 456 456 c 4
 623.1357 456 767.7119 387.3359 839.5195 287.04 c 4
 862.3203 284.7841 875.7597 275.4716 882.0478 259.6083 c 5
 874.5595 262.416 865.5117 264 854.3759 264 c 5
 865.3681 244.9677 874.1279 225.0957 879.7675 204.3837 c 5
 885.0722 231.456 888 259.3916 888 288 c 4
 888 526.5595 694.5839 720 456 720 c 4
200.3281 434.1601 m 4
 177.624 357.9355 202.8964 283.1279 256.7998 267.0722 c 4
 310.7041 250.9921 372.8164 299.7597 395.496 375.9843 c 4
 418.2001 452.1835 392.9521 527.0156 339.0722 543.0722 c 4
 285.1679 559.1279 223.0556 510.3603 200.3281 434.1601 c 4
711.6484 434.1601 m 4
 734.3515 357.9355 709.08 283.1279 655.2001 267.0722 c 4
 601.2958 250.9921 539.1835 299.7597 516.5039 375.9843 c 4
 493.7998 452.1835 519.0722 527.0156 572.9277 543.0722 c 4
 626.8076 559.1279 688.9199 510.3603 711.6484 434.1601 c 4
456 288 m 4
 389.832 288 336 234.1679 336 168 c 6
 336 24 l 6
 336 -42.1679 389.832 -96 456 -96 c 4
 522.1679 -96 576 -42.1679 576 24 c 6
 576 168 l 6
 576 234.1679 522.1679 288 456 288 c 4
57.6962 264 m 4
 46.5595 264 37.5361 262.416 30.0244 259.6083 c 5
 31.7519 263.9042 34.0322 267.6718 36.7675 271.0322 c 5
 -7.9199 216.0478 92.3759 35.04 43.6318 -144 c 5
 198.6718 -144 l 5
 227.2324 23.04 169.0322 264 57.6962 264 c 4
882.0722 259.6083 m 4
 874.5361 262.416 865.4882 264 854.3037 264 c 4
 742.9199 264 684.7441 23.9521 713.3515 -144 c 5
 868.3916 -144 l 5
 822.6484 25.08 908.1357 194.1357 882.0722 259.6083 c 4
24 288 m 1
 456 672 l 1
 888 288 l 1
 829.4638 288 l 2
 726.9121 288 669.4316 84.4804 683.2802 -78.8876 c 0
 617.3398 -119.6806 539.6308 -143.2333 456.4638 -143.2333 c 0
 373.3134 -143.2333 294.7001 -119.6904 228.7675 -78.9121 c 0
 242.5439 83.8564 185.04 288 82.5595 288 c 2
 24 288 l 1
EndSplineSet
Fore
SplineSet
24 288 m 1,0,-1
 456 672 l 1,1,-1
 888 288 l 1,2,-1
 829 288 l 2,3,4
 780 288 780 288 743.5 230 c 128,-1,5
 707 172 707 172 692 88 c 128,-1,6
 677 4 677 4 683 -79 c 1,7,8
 577 -144 577 -144 456 -144 c 0,9,10
 334 -144 334 -144 229 -79 c 1,11,12
 235 4 235 4 220 88 c 128,-1,13
 205 172 205 172 168 230 c 128,-1,14
 131 288 131 288 83 288 c 2,15,-1
 24 288 l 1,0,-1
EndSplineSet
Colour: ffff
EndChar
StartChar: FaceScreamingInFear.1
Encoding: 326 -1 326
Width: 912
Flags: MW
LayerCount: 2
Back
SplineSet
57.7031 264 m 0
 150.1074 264 205.8925 98.0195 205.8925 -53.9238 c 0
 205.8925 -85.0546 203.5517 -115.5957 198.7031 -144 c 1
 43.6396 -144 l 1
 53.623 -107.3105 57.3505 -70.538 57.3505 -34.7851 c 0
 57.3505 25.371 46.7998 82.6435 37.746 131.7871 c 0
 30.9433 168.7148 24.9853 201.0527 24.9853 226.5761 c 0
 24.9853 245.413 28.2304 260.538 36.7753 271.0556 c 1
 34.039 267.6718 31.7587 263.9042 30.0312 259.6083 c 1
 37.5429 262.416 46.5673 264 57.7031 264 c 0
882.0693 259.6171 m 0
 885.6494 250.621 887.125 239.6708 887.125 227.0361 c 0
 887.125 201.666 881.1757 169.5 874.371 132.7109 c 0
 865.2822 83.5693 854.6679 26.1787 854.6679 -34.2861 c 0
 854.6679 -70.1337 858.3984 -107.0605 868.3896 -143.9902 c 1
 713.3496 -143.9902 l 1
 708.4677 -115.3544 706.1103 -84.622 706.1103 -53.3417 c 0
 706.1103 98.8408 761.9091 264.0097 854.3017 264.0097 c 0
 865.5097 264.0097 874.5576 262.4013 882.0693 259.6171 c 0
24 288 m 4
 24 526.4277 217.5722 720 456 720 c 4
 694.4277 720 888 526.4277 888 288 c 4
 888 259.3916 885.0722 231.456 879.7675 204.3837 c 5
 882.0478 259.6083 l 6
 875.7597 275.4716 862.3203 284.7841 839.5195 287.04 c 4
 767.7119 387.3359 623.1357 456 456 456 c 4
 288.8876 456 144.288 387.3115 72.4804 287.0156 c 4
 49.7763 284.7597 36.3837 275.4238 30.0478 259.6083 c 6
 32.2558 204.3837 l 5
 26.9521 231.456 24 259.3916 24 288 c 4
EndSplineSet
Fore
SplineSet
24 288 m 0,0,1
 24 466 24 466 151 593 c 128,-1,2
 278 720 278 720 456 720 c 128,-1,3
 634 720 634 720 761 593 c 128,-1,4
 888 466 888 466 888 288 c 0,5,6
 888 262 888 262 885 238 c 1,7,-1
 882 260 l 1,8,9
 872 284 872 284 840 287 c 1,10,11
 784 364 784 364 681 410 c 128,-1,12
 578 456 578 456 456 456 c 128,-1,13
 334 456 334 456 231 410 c 128,-1,14
 128 364 128 364 72 287 c 1,15,16
 33 283 33 283 27 249 c 1,17,-1
 27 238 l 1,18,19
 24 263 24 263 24 288 c 0,0,1
EndSplineSet
Colour: ffff
EndChar
StartChar: FaceScreamingInFear.2
Encoding: 327 -1 326
Width: 912
Flags: MW
LayerCount: 2
Fore
SplineSet
336 24 m 2,0,-1
 336 168 l 2,1,2
 336 218 336 218 371 253 c 128,-1,3
 406 288 406 288 456 288 c 128,-1,4
 506 288 506 288 541 253 c 128,-1,5
 576 218 576 218 576 168 c 2,6,-1
 576 24 l 2,7,8
 576 -26 576 -26 541 -61 c 128,-1,9
 506 -96 506 -96 456 -96 c 128,-1,10
 406 -96 406 -96 371 -61 c 128,-1,11
 336 -26 336 -26 336 24 c 2,0,-1
EndSplineSet
Colour: ffff
EndChar
StartChar: FaceScreamingInFear.3
Encoding: 328 -1 328
Width: 912
Flags: MW
LayerCount: 2
Back
SplineSet
336 168 m 2
 336 24 l 2
 336 -96 336 -96 456 -96 c 1
 456 -96 l 1
 576 -96 576 -96 576 24 c 2
 576 168 l 2
 576 288 576 288 456 288 c 1
 456 288 l 1
 336 288 336 288 336 168 c 2
200.3466 434.1572 m 0
 177.6269 357.9433 202.8896 283.1367 256.7724 267.0732 c 0
 310.6562 251.0097 372.7568 299.7724 395.4765 375.9863 c 0
 418.1972 452.2011 392.9345 527.0068 339.0507 543.0703 c 0
 285.1679 559.1337 223.0673 510.372 200.3466 434.1572 c 0
516.5107 375.9863 m 0
 539.2314 299.7724 601.331 251.0097 655.2148 267.0732 c 0
 709.0986 283.1367 734.3613 357.9433 711.6406 434.1572 c 0
 688.9199 510.372 626.8203 559.1337 572.9365 543.0703 c 0
 519.0537 527.0068 493.791 452.2011 516.5107 375.9863 c 0
57.7031 264 m 4
 169.039 264 227.2148 23.04 198.7031 -144 c 5
 43.6396 -144 l 5
 92.3593 35.04 -7.913 216.0478 36.7753 271.0556 c 5
 34.039 267.6718 31.7587 263.9042 30.0312 259.6083 c 5
 37.5429 262.416 46.5673 264 57.7031 264 c 4
882.0693 259.6171 m 4
 908.1337 194.122 822.6455 25.0898 868.3896 -143.9902 c 5
 713.3496 -143.9902 l 5
 684.7177 23.9619 742.9179 264.0097 854.3017 264.0097 c 4
 865.5097 264.0097 874.5576 262.4013 882.0693 259.6171 c 4
EndSplineSet
Fore
Refer: 4 -1 N 0.254075 -0.0757431 0.107133 0.359371 298 405 0
Refer: 4 -1 N 0.254075 0.0757431 -0.107133 0.359371 614 405 0
Colour: ffff
EndChar
StartChar: FaceVomiting.1
Encoding: 240 -1 239
Width: 912
Flags: MW
LayerCount: 2
Back
SplineSet
375.3603 162.5283 m 0
 375.3603 146.1582 388.6298 132.8876 405 132.8876 c 0
 421.3701 132.8876 434.6396 146.1582 434.6396 162.5283 c 0
 434.6396 178.8974 421.3701 192.1679 405 192.1679 c 0
 388.6298 192.1679 375.3603 178.8974 375.3603 162.5283 c 0
491.1123 104.6396 m 0
 491.1123 88.2705 504.3818 75 520.7519 75 c 0
 537.122 75 550.3916 88.2705 550.3916 104.6396 c 0
 550.3916 121.0097 537.122 134.2802 520.7519 134.2802 c 0
 504.3818 134.2802 491.1123 121.0097 491.1123 104.6396 c 0
503.9521 -12.3359 m 0
 503.9521 -28.706 517.2226 -41.9755 533.5917 -41.9755 c 0
 549.9619 -41.9755 563.2324 -28.706 563.2324 -12.3359 c 0
 563.2324 4.0341 549.9619 17.3037 533.5917 17.3037 c 0
 517.2226 17.3037 503.9521 4.0341 503.9521 -12.3359 c 0
344.208 -61.1523 m 0
 344.208 -84.5468 363.1728 -103.5117 386.5683 -103.5117 c 0
 409.9628 -103.5117 428.9277 -84.5468 428.9277 -61.1523 c 0
 428.9277 -37.7568 409.9628 -18.7919 386.5683 -18.7919 c 0
 363.1728 -18.7919 344.208 -37.7568 344.208 -61.1523 c 0
864 312 m 0
 864 86.664 681.3359 -96 456 -96 c 0
 230.6884 -96 48 86.664 48 312 c 0
 48 537.3115 230.6884 720 456 720 c 0
 681.3359 720 864 537.3115 864 312 c 1024
456 68.7363 m 0
 536.04 68.7363 589.1279 59.4238 654.8164 46.6562 c 0
 669.8164 43.7763 699 46.6562 699 90.8398 c 0
 699 179.208 597.4804 289.6562 456 289.6562 c 0
 314.5195 289.6562 213 179.208 213 90.8398 c 0
 213 46.6562 242.1835 43.7519 257.1835 46.6562 c 0
 322.8476 59.4238 375.9599 68.7363 456 68.7363 c 0
184.0322 266.6884 m 0
 177.1435 266.6884 170.3281 269.8076 165.8876 275.7597 c 0
 158.3759 285.7675 160.3916 299.9755 170.4238 307.4882 c 0
 173.664 309.9121 237.3115 356.9521 325.8242 373.9677 c 1
 269.7119 402.0957 207.456 402.6962 206.664 402.6962 c 0
 194.1601 402.7197 184.0322 412.8964 184.0556 425.4003 c 0
 184.0556 437.9042 194.1835 448.0322 206.7119 448.0322 c 0
 211.7275 448.0322 330.288 447.1679 404.0644 373.3916 c 0
 410.5439 366.9121 412.4882 357.1679 408.9843 348.6962 c 0
 405.4804 340.2236 397.2001 334.7041 388.0556 334.7041 c 0
 283.4882 334.7041 198.5039 271.872 197.664 271.248 c 0
 193.5117 268.1523 188.7597 266.6884 184.0322 266.6884 c 0
727.9677 266.6884 m 0
 723.2636 266.6884 718.4882 268.1523 714.4316 271.1757 c 0
 713.5683 271.8242 628.0322 334.6562 523.9921 334.6562 c 0
 514.8242 334.6562 506.5439 340.1757 503.0644 348.6484 c 0
 499.5361 357.1201 501.4804 366.8642 507.9843 373.3437 c 0
 581.7841 447.1435 700.3437 447.9843 705.3359 447.9843 c 0
 717.8398 447.9843 727.9677 437.8564 727.9921 425.3515 c 0
 728.0156 412.8476 717.8642 402.6962 705.3837 402.6484 c 0
 704.5683 402.6484 642.288 402.0478 586.2001 373.9199 c 1
 674.7119 356.9277 738.3603 309.8876 741.5996 307.4404 c 0
 751.6083 299.9277 753.6484 285.7675 746.1601 275.7363 c 0
 741.6962 269.8076 734.8798 266.6884 727.9677 266.6884 c 0
641.0878 -54.8876 m 1
 641.0878 115.5361 l 2
 641.0878 177.7675 547.7519 239.9755 454.416 239.9755 c 0
 361.08 239.9755 267.7441 177.7441 267.7441 115.5361 c 2
 267.7441 -54.8876 l 1
 162.0722 -63.2636 91.1279 -78.5283 91.1279 -96 c 0
 91.1279 -122.5195 253.7763 -144 454.416 -144 c 0
 655.0556 -144 817.7041 -122.5195 817.7041 -96 c 0
 817.7041 -78.5283 746.7597 -63.2636 641.0878 -54.8876 c 1
1118.7343 2194.3945 m 0
 1134.8925 2191.7714 1150.1171 2202.7441 1152.7402 2218.9023 c 0
 1155.3632 2235.0605 1144.3896 2250.2861 1128.2314 2252.9082 c 0
 1112.0732 2255.5312 1096.8486 2244.5576 1094.2255 2228.3994 c 0
 1091.6035 2212.2412 1102.5761 2197.0166 1118.7343 2194.3945 c 0
1312.9423 1924.8144 m 0
 1336.0351 1921.0664 1357.7939 1936.748 1361.5419 1959.8408 c 0
 1365.29 1982.9335 1349.6083 2004.6923 1326.5156 2008.4404 c 0
 1303.4228 2012.1884 1281.664 1996.5058 1277.916 1973.413 c 0
 1274.1679 1950.3212 1289.8496 1928.5625 1312.9423 1924.8144 c 0
EndSplineSet
Fore
Refer: 19 -1 N -0.9205 0 0 -0.9205 456 290 0
Refer: 18 -1 N -0.944637 0 0 0.944637 705 425 0
Refer: 18 -1 N 0.944637 0 0 0.944637 207 425 0
Colour: ffff
EndChar
StartChar: FaceWithCrossedOutEyes.1
Encoding: 254 -1 254
Width: 912
Flags: MW
LayerCount: 2
Back
SplineSet
888 288 m 0
 888 49.416 694.5839 -144 456 -144 c 0
 217.4404 -144 24 49.416 24 288 c 0
 24 526.5595 217.4404 720 456 720 c 0
 694.5839 720 888 526.5595 888 288 c 1024
336 72 m 0
 336 -7.5292 389.7255 -72 456 -72 c 0
 522.2744 -72 576 -7.5292 576 72 c 0
 576 151.5292 522.2744 216 456 216 c 0
 389.7255 216 336 151.5292 336 72 c 0
167.9755 456 m 0
 162.9843 456 157.9199 457.5595 153.5996 460.7998 c 0
 142.9921 468.7441 140.8564 483.7919 148.7998 494.4003 c 0
 227.0878 598.7998 331.5839 600 336 600 c 0
 349.248 600 360 589.248 360 576 c 0
 360 562.7763 349.3203 552.0478 336.0957 552 c 0
 332.3759 551.9521 250.4638 549.9355 187.2001 465.5996 c 0
 182.496 459.3115 175.2724 456 167.9755 456 c 0
744.0244 456 m 0
 736.7041 456 729.5283 459.3115 724.7998 465.5996 c 0
 661.4404 550.1035 579.3359 551.9521 575.8564 552 c 0
 562.6562 552.1435 552 562.9443 552.0722 576.1201 c 0
 552.1435 589.3437 562.7998 600 576 600 c 0
 580.416 600 684.8876 598.7998 763.2001 494.4003 c 0
 771.1679 483.7919 769.0078 468.7441 758.4003 460.7998 c 0
 754.08 457.5595 749.04 456 744.0244 456 c 0
357.9355 348 m 1
 400.9677 391.0322 l 2
 410.3515 400.416 410.3515 415.5839 400.9677 424.9677 c 0
 391.5839 434.3515 376.416 434.3515 367.0322 424.9677 c 2
 324 381.9355 l 1
 280.9677 424.9677 l 2
 271.5839 434.3515 256.416 434.3515 247.0322 424.9677 c 0
 237.6484 415.5839 237.6484 400.416 247.0322 391.0322 c 2
 290.0644 348 l 1
 247.0322 304.9677 l 2
 237.6484 295.5839 237.6484 280.416 247.0322 271.0322 c 0
 251.7119 266.3515 257.8564 264 264 264 c 0
 270.1435 264 276.288 266.3515 280.9677 271.0322 c 2
 324 314.0644 l 1
 367.0322 271.0322 l 2
 371.7119 266.3515 377.8564 264 384 264 c 0
 390.1435 264 396.288 266.3515 400.9677 271.0322 c 0
 410.3515 280.416 410.3515 295.5839 400.9677 304.9677 c 2
 357.9355 348 l 1
621.9355 348 m 1
 664.9677 391.0322 l 2
 674.3515 400.416 674.3515 415.5839 664.9677 424.9677 c 0
 655.5839 434.3515 640.416 434.3515 631.0322 424.9677 c 2
 588 381.9355 l 1
 544.9677 424.9677 l 2
 535.5839 434.3515 520.416 434.3515 511.0322 424.9677 c 0
 501.6484 415.5839 501.6484 400.416 511.0322 391.0322 c 2
 554.0644 348 l 1
 511.0322 304.9677 l 2
 501.6484 295.5839 501.6484 280.416 511.0322 271.0322 c 0
 515.7119 266.3515 521.8564 264 528 264 c 0
 534.1435 264 540.288 266.3515 544.9677 271.0322 c 2
 588 314.0644 l 1
 631.0322 271.0322 l 2
 635.7119 266.3515 641.8564 264 648 264 c 0
 654.1435 264 660.288 266.3515 664.9677 271.0322 c 0
 674.3515 280.416 674.3515 295.5839 664.9677 304.9677 c 2
 621.9355 348 l 1
EndSplineSet
Fore
Refer: 10 -1 N -1 0 0 1 576 576 0
Refer: 10 -1 N 1 0 0 1 336 576 0
Refer: 4 -1 N 0.3125 0 0 0.375 456 72 0
Refer: 64 -1 N 1 0 0 1 588 348 0
Refer: 64 -1 N 1 0 0 1 324 348 0
Colour: ffff
EndChar
StartChar: FaceWithDiagonalMouth.1
Encoding: 293 -1 292
Width: 912
Flags: MW
LayerCount: 2
Back
SplineSet
888 288 m 0
 888 49.416 694.5839 -144 456 -144 c 0
 217.416 -144 24 49.416 24 288 c 0
 24 526.5839 217.416 720 456 720 c 0
 694.5839 720 888 526.5839 888 288 c 1024
240 348 m 0
 240 301.6083 266.8632 264 300 264 c 0
 333.1367 264 360 301.6083 360 348 c 0
 360 394.3916 333.1367 432 300 432 c 0
 266.8632 432 240 394.3916 240 348 c 0
552 348 m 0
 552 301.6083 578.8632 264 612 264 c 0
 645.1367 264 672 301.6083 672 348 c 0
 672 394.3916 645.1367 432 612 432 c 0
 578.8632 432 552 394.3916 552 348 c 0
293.0156 48.5283 m 2
 629.0156 120.5283 l 2
 639.5585 123.0673 647.4023 132.5673 647.4023 143.8857 c 0
 647.4023 157.1445 636.6376 167.9091 623.3779 167.9091 c 0
 621.8574 167.9091 620.4023 167.7666 618.9599 167.496 c 0
 618.9277 167.497 282.9599 95.496 282.9599 95.496 c 2
 272.4169 92.957 264.5742 83.456 264.5742 72.1386 c 0
 264.5742 58.8789 275.3388 48.1142 288.5976 48.1142 c 0
 290.1181 48.1142 291.5732 48.2578 293.0156 48.5283 c 2
EndSplineSet
Fore
Refer: 189 -1 N 1 0 0 1 0 24 0
Refer: 68 -1 N 1 0 0 1 0 0 0
Colour: ffff
EndChar
StartChar: FaceWithHandOverMouth.1
Encoding: 167 -1 167
Width: 912
Flags: MW
LayerCount: 2
Back
SplineSet
864 312 m 0
 864 86.664 681.3359 -96 456 -96 c 0
 230.6884 -96 48 86.664 48 312 c 0
 48 537.3115 230.6884 720 456 720 c 0
 681.3359 720 864 537.3115 864 312 c 1024
706.9677 376.872 m 0
 705.5283 380.1123 670.9921 456 600 456 c 0
 529.0322 456 494.4716 380.1123 493.0322 376.872 c 0
 490.8242 371.9042 492.2636 366.0957 496.5117 362.6884 c 0
 500.7119 359.2802 506.7363 359.1601 511.1523 362.3515 c 0
 511.4404 362.5683 541.4404 384 600 384 c 0
 658.2236 384 688.1757 362.8564 688.8476 362.3759 c 0
 690.9599 360.7919 693.5039 360 696 360 c 0
 698.6396 360 701.3037 360.8876 703.4882 362.6162 c 0
 707.7363 366.0244 709.2001 371.8798 706.9677 376.872 c 0
418.9677 376.872 m 0
 417.5283 380.1123 382.9921 456 312 456 c 0
 241.0322 456 206.4716 380.1123 205.0322 376.872 c 0
 202.8242 371.9042 204.2636 366.0957 208.4882 362.6884 c 0
 212.7119 359.2802 218.7363 359.1601 223.1279 362.3515 c 0
 223.4404 362.5683 253.416 384 312 384 c 0
 370.2236 384 400.1757 362.8564 400.8476 362.3759 c 0
 402.9599 360.7919 405.5039 360 408 360 c 0
 410.6396 360 413.3037 360.8876 415.4882 362.6162 c 0
 419.7597 366.0244 421.1757 371.8798 418.9677 376.872 c 0
660.0722 63.0957 m 1
 660.0722 63.0957 684 80.4003 664.0322 101.832 c 0
 644.0644 123.2636 625.1279 100.5839 625.1279 100.5839 c 1
 525.5996 7.7998 l 1
 523.9443 12.7197 514.5839 25.6318 512.4003 30.5283 c 2
 650.5195 159.3115 l 1
 650.5195 159.3115 674.4716 176.6162 654.456 198.0722 c 0
 634.4882 219.4804 615.5283 196.8476 615.5283 196.8476 c 1
 485.6162 75.7441 l 1
 482.6162 79.5361 474.5517 88.7041 471.3603 92.496 c 2
 621.9843 232.8964 l 1
 621.9843 232.8964 645.9121 250.2236 625.9199 271.6318 c 0
 605.9521 293.0644 587.0156 270.4082 587.0156 270.4082 c 1
 436.3437 130.0556 l 2
 432.7441 133.5361 421.6562 144.6718 418.0078 147.9599 c 1
 558.7919 279.1923 l 1
 558.7919 279.1923 582.6962 296.5195 562.7275 317.9277 c 0
 542.7363 339.3603 523.8242 316.7041 523.8242 316.7041 c 1
 374.9521 177.9599 l 1
 363.0244 166.8242 l 1
 357.6962 161.8564 l 1
 357.6962 161.8564 344.7841 144 331.6083 157.5595 c 2
 375.8164 257.3515 l 1
 375.8164 257.3515 389.7363 283.1279 363.9843 297.0722 c 0
 338.1835 311.0156 324.2636 285.2402 324.2636 285.2402 c 1
 284.2324 219.0478 l 2
 268.3203 192.8164 251.8564 166.7763 232.416 143.04 c 0
 177.5996 76.0078 179.3515 -22.8964 240.0478 -88.0556 c 0
 306.2636 -159.0722 417.5517 -162.9843 488.5683 -96.7919 c 2
 499.2958 -86.7597 l 1
 660.0722 63.0957 l 1
EndSplineSet
Fore
Refer: 11 -1 N -1 0 0 -1 600 456 0
Refer: 11 -1 N -1 0 0 -1 312 456 0
Colour: ffff
EndChar
StartChar: FaceWithHeadBandage.0
Encoding: 233 -1 233
Width: 912
Flags: MW
LayerCount: 2
Fore
SplineSet
24 288 m 0,0,1
 24 376 24 376 55 452 c 1,2,-1
 293 689 l 1,3,4
 368 720 368 720 456 720 c 0,5,6
 523 720 523 720 582 702 c 1,7,-1
 880 376 l 1,8,9
 888 334 888 334 888 288 c 0,10,11
 888 110 888 110 761 -17 c 128,-1,12
 634 -144 634 -144 456 -144 c 128,-1,13
 278 -144 278 -144 151 -17 c 128,-1,14
 24 110 24 110 24 288 c 0,0,1
EndSplineSet
Colour: ffff
EndChar
StartChar: FaceWithHeadBandage.1
Encoding: 234 -1 234
Width: 912
Flags: MW
LayerCount: 2
Back
SplineSet
879 375.8876 m 2
 579.2402 701.9277 l 2
 540.1679 713.5439 498.8642 720 456 720 c 0
 399.1435 720 345 708.7197 295.2724 688.7763 c 2
 56.3515 451.7763 l 2
 35.6162 401.2324 24 346.0078 24 288 c 0
 24 49.416 217.4404 -144 456 -144 c 0
 694.5839 -144 888 49.416 888 288 c 0
 888 318.1201 884.8798 347.5195 879 375.8876 c 2
336 48 m 1
 336 48 360 144 456 144 c 0
 552 144 576 48 576 48 c 1
 576 48 552 72 456 72 c 0
 360 72 336 48 336 48 c 1
718.9677 292.872 m 0
 717.5283 296.1123 682.9921 372 612 372 c 0
 541.0322 372 506.4716 296.1123 505.0322 292.872 c 0
 502.8242 287.9042 504.2636 282.0957 508.5117 278.664 c 0
 512.7119 275.2558 518.7363 275.1601 523.1523 278.3281 c 0
 523.4404 278.5683 553.4404 300 612 300 c 0
 670.2236 300 700.1757 278.8564 700.8476 278.3759 c 0
 702.9599 276.7919 705.5039 276 708 276 c 0
 710.6396 276 713.3037 276.8876 715.4882 278.6162 c 0
 719.7363 282.0244 721.2001 287.8798 718.9677 292.872 c 0
406.9677 292.872 m 0
 405.5283 296.1123 370.9921 372 300 372 c 0
 229.0322 372 194.4716 296.1123 193.0322 292.872 c 0
 190.8242 287.9042 192.2636 282.0957 196.4882 278.664 c 0
 200.7119 275.2558 206.7363 275.1601 211.1279 278.3281 c 0
 211.4404 278.5683 241.416 300 300 300 c 0
 358.2236 300 388.1757 278.8564 388.8476 278.3759 c 0
 390.9599 276.7919 393.5039 276 396 276 c 0
 398.6396 276 401.3037 276.8876 403.4638 278.6162 c 0
 407.7597 282.0244 409.1757 287.8798 406.9677 292.872 c 0
863.496 430.3681 m 0
 860.2324 439.7041 856.9921 449.0644 853.1279 458.0878 c 0
 844.5595 478.0322 834.2402 496.9921 822.9121 515.2558 c 0
 816.624 525.3837 809.9521 535.1757 802.872 544.7275 c 0
 793.2236 557.7363 782.9277 570.1679 771.9121 582 c 0
 764.8798 589.5595 757.6083 596.832 750.0478 603.8642 c 2
 747.0957 606.5517 l 2
 731.5683 620.7597 715.3203 634.1757 697.8242 646.0322 c 0
 687.288 653.1601 676.3437 659.7119 665.1601 665.9042 c 0
 638.1601 680.8798 609.4082 692.9755 579.2636 701.9277 c 2
 401.1601 669.5039 l 1
 295.3203 688.7763 l 2
 269.4003 678.3603 244.7519 665.5439 221.5917 650.5439 c 0
 212.6396 644.7363 204.0478 638.5195 195.5996 632.0878 c 2
 192.7197 629.9521 l 2
 175.6796 616.7998 159.5761 602.5439 144.6962 587.04 c 0
 138.7675 580.872 132.9843 574.5595 127.416 568.0322 c 0
 126.4804 566.9521 125.4482 565.9677 124.5361 564.8642 c 0
 117.3115 556.2236 110.6162 547.1523 104.0878 537.9599 c 0
 99.7197 531.8398 95.5683 525.5761 91.5117 519.2158 c 0
 83.4716 506.5683 76.1523 493.4882 69.4316 480 c 0
 64.8242 470.7363 60.288 461.4238 56.3515 451.7763 c 1
 259.2001 488.6884 l 1
 879 375.8876 l 1
 875.1357 394.5839 869.6884 412.6562 863.496 430.3681 c 0
853.1035 458.1123 m 2
 472.1035 527.4482 l 1
 614.04 553.2724 l 1
 684.9843 566.1835 l 1
 771.8876 582 l 1
 764.8564 589.5595 757.5839 596.832 750.0244 603.8642 c 2
 613.9921 579.0957 l 1
 543.0478 566.1835 l 1
 401.1123 540.3603 l 1
 330.1435 527.4482 l 1
 188.2324 501.624 l 1
 69.4316 480 l 2
 64.8242 470.7363 60.288 461.4238 56.3515 451.7763 c 1
 259.2001 488.6884 l 1
 401.1357 514.5117 l 1
 863.496 430.3681 l 1
 860.2324 439.7275 856.9921 449.0644 853.1035 458.1123 c 2
684.9843 566.1835 m 1
 802.872 544.7275 l 2
 809.9521 535.2001 816.624 525.3837 822.9121 515.2558 c 1
 614.0644 553.2724 l 1
 684.9843 566.1835 l 1
221.5683 650.5195 m 0
 212.6396 644.7363 204.0478 638.5195 195.5996 632.0878 c 1
 259.2001 643.6796 l 1
 221.5683 650.5195 l 0
665.1601 665.9042 m 2
 543.0722 643.6796 l 1
 401.1357 617.8564 l 1
 330.1923 604.9443 l 1
 188.2558 579.0957 l 1
 127.416 568.0322 l 2
 126.4804 566.9521 125.4482 565.9677 124.5361 564.8642 c 0
 117.3115 556.2236 110.6162 547.1523 104.0878 537.9599 c 1
 188.208 553.2724 l 1
 259.2001 566.1835 l 1
 401.1357 592.0078 l 1
 472.08 604.9199 l 1
 614.0156 630.7441 l 1
 697.8242 645.9843 l 1
 687.2636 653.1357 676.3203 659.6884 665.1601 665.9042 c 2
EndSplineSet
Fore
Refer: 55 -1 S 1 0 0 1 0 0 0
Refer: 11 -1 N -1 0 0 -1 612 372 0
Refer: 11 -1 N -1 0 0 -1 300 372 0
Colour: ffff
EndChar
StartChar: FaceWithHeadBandage.2
Encoding: 235 -1 235
Width: 912
Flags: MW
LayerCount: 2
Fore
SplineSet
55 452 m 1,0,1
 88 530 88 530 151.5 593.5 c 128,-1,2
 215 657 215 657 293 689 c 1,3,-1
 401 669 l 1,4,-1
 582 702 l 1,5,6
 687 671 687 671 771 582.5 c 128,-1,7
 855 494 855 494 880 376 c 1,8,-1
 225 495 l 1,9,-1
 55 452 l 1,0,1
EndSplineSet
Colour: ffff
EndChar
StartChar: FaceWithHeadBandage.3
Encoding: 236 -1 235
Width: 912
Flags: MW
LayerCount: 2
Fore
SplineSet
588 558 m 1,0,-1
 642 574 l 1,1,-1
 803 545 l 1,2,3
 811 535 811 535 824 515 c 1,4,-1
 588 558 l 1,0,-1
195 632 m 1,5,6
 201 637 201 637 221 651 c 1,7,-1
 259 644 l 1,8,-1
 195 632 l 1,5,6
104 538 m 1,9,10
 118 557 118 557 128 568 c 1,11,-1
 666 666 l 1,12,13
 676 661 676 661 698 646 c 1,14,-1
 104 538 l 1,9,10
EndSplineSet
Colour: ffff
EndChar
StartChar: FaceWithHeadBandage.4
Encoding: 237 -1 236
Width: 912
Flags: MW
LayerCount: 2
Fore
SplineSet
55 452 m 1,0,1
 60 465 60 465 68 480 c 1,2,-1
 750 604 l 1,3,4
 765 590 765 590 772 582 c 1,5,-1
 472 528 l 1,6,-1
 854 458 l 1,7,8
 860 447 860 447 865 430 c 1,9,-1
 401 515 l 1,10,-1
 55 452 l 1,0,1
EndSplineSet
Colour: ffff
EndChar
StartChar: FaceWithMedicalMask.2
Encoding: 226 -1 225
Width: 912
Flags: MW
LayerCount: 2
Back
SplineSet
288 72 m 1
 288 24 l 1
 24 72 l 1
 24 120 l 1
 288 72 l 1
288 216 m 1
 288 168 l 1
 24 288 l 1
 24 336 l 1
 288 216 l 1
624 72 m 1
 624 24 l 1
 888 72 l 1
 888 120 l 1
 624 72 l 1
624 216 m 1
 624 168 l 1
 888 288 l 1
 888 336 l 1
 624 216 l 1
240 264 m 9
 240 0 l 2
 240 -48 240 -48 288 -48 c 2
 624 -48 l 2
 672 -48 672 -48 672 0 c 2
 672 264 l 2
 672 312 672 312 624 312 c 2
 288 312 l 2
 240 312 240 312 240 264 c 9
888 288 m 0
 888 49.416 694.5839 -144 456 -144 c 0
 217.4404 -144 24 49.416 24 288 c 0
 24 526.5595 217.4404 720 456 720 c 0
 694.5839 720 888 526.5595 888 288 c 1024
192.0244 360 m 0
 184.2724 360 176.664 363.7441 172.0322 370.6796 c 0
 164.6884 381.7197 167.664 396.624 178.6796 403.9677 c 0
 181.872 406.08 257.9042 456 360 456 c 0
 373.248 456 384 445.248 384 432 c 0
 384 418.7519 373.248 408 360 408 c 0
 272.2802 408 205.9677 364.4638 205.3203 364.0322 c 0
 201.2158 361.2958 196.5839 360 192.0244 360 c 0
719.9755 360 m 0
 715.4404 360 710.8076 361.2958 706.7275 364.0078 c 0
 706.0556 364.4404 639.0722 408 552 408 c 0
 538.7275 408 528 418.7519 528 432 c 0
 528 445.248 538.7275 456 552 456 c 0
 654.0957 456 730.1279 406.08 733.3203 403.9677 c 0
 744.3603 396.624 747.3359 381.7197 739.9677 370.6796 c 0
 735.3603 363.7441 727.7275 360 719.9755 360 c 0
672 189.8164 m 1
 888 288 l 2
 888 303.8398 887.0156 319.416 885.3837 334.7998 c 1
 672 237.8164 l 1
 672 264 l 2
 672 290.496 650.496 312 624 312 c 2
 288 312 l 2
 261.5039 312 240 290.496 240 264 c 2
 240 237.8164 l 1
 26.6396 334.7998 l 1
 24.9843 319.416 24 303.8398 24 288 c 2
 240 189.8164 l 1
 240 80.7119 l 1
 61.1279 113.2324 l 1
 69.3115 94.7519 78.9121 77.0644 89.5195 60.0722 c 2
 240 32.7119 l 1
 240 0 l 2
 240 -26.496 261.5039 -48 288 -48 c 2
 624 -48 l 2
 650.496 -48 672 -26.496 672 0 c 2
 672 32.7119 l 1
 822.5039 60.0957 l 2
 833.0878 77.0878 842.6884 94.7763 850.872 113.2558 c 1
 672 80.7119 l 1
 672 189.8164 l 1
EndSplineSet
Fore
SplineSet
24 288 m 1,0,1
 23 299 23 299 26 335 c 1,2,-1
 240 238 l 1,3,-1
 240 264 l 17,4,5
 240 284 240 284 254 298 c 129,-1,6
 268 312 268 312 288 312 c 9,7,-1
 624 312 l 17,8,9
 644 312 644 312 658 298 c 129,-1,10
 672 284 672 284 672 264 c 9,11,-1
 672 238 l 1,12,-1
 886 335 l 1,13,14
 889 299 889 299 888 288 c 1,15,-1
 672 190 l 1,16,-1
 672 81 l 1,17,-1
 851 113 l 1,18,19
 840 86 840 86 823 60 c 1,20,-1
 672 33 l 1,21,-1
 672 0 l 17,22,23
 672 -20 672 -20 658 -34 c 129,-1,24
 644 -48 644 -48 624 -48 c 9,25,-1
 288 -48 l 17,26,27
 268 -48 268 -48 254 -34 c 129,-1,28
 240 -20 240 -20 240 0 c 9,29,-1
 240 33 l 1,30,-1
 89 60 l 1,31,32
 72 86 72 86 61 113 c 1,33,-1
 240 81 l 1,34,-1
 240 190 l 1,35,-1
 24 288 l 1,0,1
EndSplineSet
Colour: ffff
EndChar
StartChar: FaceWithMonocle.1
Encoding: 287 -1 287
Width: 912
Flags: MW
LayerCount: 2
Back
SplineSet
888 288 m 4
 888 49.416 694.5839 -144 456 -144 c 4
 217.4404 -144 24 49.416 24 288 c 4
 24 526.5595 217.4404 720 456 720 c 4
 694.5839 720 888 526.5595 888 288 c 1028
252.6962 366.9599 m 4
 252.6962 317.8378 281.1386 278.0156 316.2236 278.0156 c 4
 351.3095 278.0156 379.7519 317.8378 379.7519 366.9599 c 4
 379.7519 416.082 351.3095 455.9042 316.2236 455.9042 c 4
 281.1386 455.9042 252.6962 416.082 252.6962 366.9599 c 4
456 376.9443 m 4
 456 285.7246 529.9482 211.7763 621.1679 211.7763 c 4
 712.3876 211.7763 786.3359 285.7246 786.3359 376.9443 c 4
 786.3359 468.164 712.3876 542.1123 621.1679 542.1123 c 4
 529.9482 542.1123 456 468.164 456 376.9443 c 4
379.7998 481.2958 m 4
 372.0722 481.2958 364.4404 484.7998 359.4482 491.4482 c 4
 335.664 523.1523 310.7763 540.1435 285.456 541.9443 c 4
 252.0957 544.2236 224.9042 519.2158 219.8398 514.1523 c 4
 209.9042 504.2158 193.8242 504.2158 183.9121 514.1523 c 4
 173.9755 524.0878 173.9755 540.1679 183.9121 550.08 c 4
 194.8798 561.0478 235.0078 596.5439 289.0556 592.6318 c 4
 329.7363 589.7519 367.08 565.9677 400.1035 521.9521 c 4
 408.5283 510.7197 406.248 494.7841 395.04 486.3837 c 4
 390.4316 482.9521 385.08 481.2958 379.7998 481.2958 c 4
811.7763 -144 m 4
 797.7363 -144 786.3603 -132.624 786.3603 -118.5839 c 6
 786.3603 364.2236 l 6
 786.3603 378.2636 797.7363 389.6396 811.7763 389.6396 c 4
 825.8164 389.6396 837.1923 378.2636 837.1923 364.2236 c 6
 837.1923 -118.6083 l 6
 837.1679 -132.624 825.8164 -144 811.7763 -144 c 4
811.7763 415.0556 m 4
 810.4804 415.0556 809.2558 414.7675 807.9843 414.6718 c 4
 790.416 501.7441 713.3515 567.5283 621.1679 567.5283 c 4
 516.0722 567.5283 430.5839 482.04 430.5839 376.9443 c 4
 430.5839 271.8476 516.0722 186.3603 621.1679 186.3603 c 4
 704.4003 186.3603 775.1523 240.0722 801.0722 314.5917 c 4
 804.5283 313.8476 808.08 313.416 811.7519 313.416 c 4
 839.832 313.416 862.5839 336.1679 862.5839 364.248 c 4
 862.5839 392.3037 839.832 415.0556 811.7763 415.0556 c 4
621.1679 237.1679 m 4
 544.1035 237.1679 481.416 299.8564 481.416 376.9443 c 4
 481.416 454.0322 544.1279 516.7197 621.1679 516.7197 c 4
 698.2324 516.7197 760.9443 454.0322 760.9443 376.9443 c 4
 760.9443 299.8564 698.2324 237.1679 621.1679 237.1679 c 4
532.2001 33.8876 m 4
 528.3837 33.8876 524.496 34.7519 520.8476 36.5761 c 4
 477.1923 58.416 434.7597 58.416 391.1035 36.5761 c 4
 378.5283 30.3115 363.2636 35.3759 357 47.9521 c 4
 350.7119 60.5039 355.7998 75.7675 368.3759 82.0556 c 4
 426.4804 111.0957 485.4238 111.0957 543.5761 82.0556 c 4
 556.1279 75.7675 561.2158 60.5039 554.9521 47.9521 c 4
 550.5117 39.0244 541.5361 33.8876 532.2001 33.8876 c 4
697.1757 494.1357 m 5
 675.288 508.3681 649.2236 516.6962 621.1679 516.6962 c 4
 543.9843 516.6962 481.3916 454.1279 481.3916 376.9199 c 4
 481.3916 348.8642 489.7441 322.7998 503.9521 300.9121 c 5
 697.1757 494.1357 l 5
561.5283 250.6796 m 5
 579.6484 242.1123 599.8076 237.1679 621.1679 237.1679 c 4
 698.3515 237.1679 760.9443 299.7363 760.9443 376.9443 c 4
 760.9443 398.3037 756 418.4882 747.4316 436.5839 c 5
 561.5283 250.6796 l 5
EndSplineSet
Fore
Refer: 84 -1 N -1.05882 0 0 -1.05882 456 78 0
Refer: 67 -1 N 1.05882 0 0 1.05882 -167 -65 0
Refer: 83 -1 N 1.05882 0 0 1.05882 0 0 0
Colour: ffff
EndChar
StartChar: FaceWithMonocle.3
Encoding: 289 -1 289
Width: 912
Flags: MW
LayerCount: 2
Fore
SplineSet
486 283 m 25,0,-1
 715 512 l 25,1,-1
 766 455 l 25,2,-1
 543 232 l 25,3,-1
 486 283 l 25,0,-1
EndSplineSet
Colour: ffff
EndChar
StartChar: FaceWithMonocle.5
Encoding: 291 -1 290
Width: 912
Flags: MW
LayerCount: 2
Fore
SplineSet
786 -119 m 2,0,-1
 786 364 l 1,1,-1
 837 364 l 1,2,-1
 837 -119 l 2,3,4
 837 -129 837 -129 829.5 -136.5 c 128,-1,5
 822 -144 822 -144 811.5 -144 c 128,-1,6
 801 -144 801 -144 793.5 -136.5 c 128,-1,7
 786 -129 786 -129 786 -119 c 2,0,-1
EndSplineSet
Colour: ffff
EndChar
StartChar: FaceWithOpenEyesAndHandOverMouth.1
Encoding: 169 -1 168
Width: 912
Flags: MW
LayerCount: 2
Back
SplineSet
864 312 m 0
 864 86.664 681.3359 -96 456 -96 c 0
 230.6884 -96 48 86.664 48 312 c 0
 48 537.3115 230.6884 720 456 720 c 0
 681.3359 720 864 537.3115 864 312 c 1024
264 432.0478 m 0
 264 392.3095 290.8632 360.0957 324 360.0957 c 0
 357.1367 360.0957 384 392.3095 384 432.0478 c 0
 384 471.7861 357.1367 504 324 504 c 0
 290.8632 504 264 471.7861 264 432.0478 c 0
528 432.0478 m 0
 528 392.3095 554.8632 360.0957 588 360.0957 c 0
 621.1367 360.0957 648 392.3095 648 432.0478 c 0
 648 471.7861 621.1367 504 588 504 c 0
 554.8632 504 528 471.7861 528 432.0478 c 0
660.0722 63.0957 m 1
 660.0722 63.0957 684 80.4003 664.0322 101.832 c 0
 644.0644 123.2636 625.1279 100.5839 625.1279 100.5839 c 1
 525.5996 7.7998 l 1
 523.9443 12.7197 514.5839 25.6318 512.4003 30.5283 c 2
 650.5195 159.3115 l 1
 650.5195 159.3115 674.4716 176.6162 654.456 198.0722 c 0
 634.4882 219.4804 615.5283 196.8476 615.5283 196.8476 c 1
 485.6162 75.7441 l 1
 482.6162 79.5361 474.5517 88.7041 471.3603 92.496 c 2
 621.9843 232.8964 l 1
 621.9843 232.8964 645.9121 250.2236 625.9199 271.6318 c 0
 605.9521 293.0644 587.0156 270.4082 587.0156 270.4082 c 1
 436.3437 130.0556 l 2
 432.7441 133.5361 421.6562 144.6718 418.0078 147.9599 c 1
 558.7919 279.1923 l 1
 558.7919 279.1923 582.6962 296.5195 562.7275 317.9277 c 0
 542.7363 339.3603 523.8242 316.7041 523.8242 316.7041 c 1
 374.9521 177.9599 l 1
 363.0244 166.8242 l 1
 357.6962 161.8564 l 1
 357.6962 161.8564 344.7841 144 331.6083 157.5595 c 2
 375.8164 257.3515 l 1
 375.8164 257.3515 389.7363 283.1279 363.9843 297.0722 c 0
 338.1835 311.0156 324.2636 285.2402 324.2636 285.2402 c 1
 284.2324 219.0478 l 2
 268.3203 192.8164 251.8564 166.7763 232.416 143.04 c 0
 207.7685 112.7685 192.9853 74.1533 192.9853 32.1113 c 0
 192.9853 -64.955 271.79 -143.7607 368.8564 -143.7607 c 0
 415.082 -143.7607 457.164 -125.997 488.5683 -96.7919 c 0
 488.5693 -96.6826 499.2958 -86.7597 499.2958 -86.7597 c 1
 660.0722 63.0957 l 1
EndSplineSet
Fore
Refer: 4 -1 N 0.15625 0 0 0.1875 588 432 0
Refer: 4 -1 N 0.15625 0 0 0.1875 324 432 0
Colour: ffff
EndChar
StartChar: FaceWithOpenMouth.1
Encoding: 297 -1 297
Width: 912
Flags: MW
LayerCount: 2
Back
SplineSet
888 288 m 0
 888 49.416 694.5839 -144 456 -144 c 0
 217.416 -144 24 49.416 24 288 c 0
 24 526.5839 217.416 720 456 720 c 0
 694.5839 720 888 526.5839 888 288 c 1024
360 120 m 0
 360 53.7255 402.9804 0 456 0 c 0
 509.0195 0 552 53.7255 552 120 c 0
 552 186.2744 509.0195 240 456 240 c 0
 402.9804 240 360 186.2744 360 120 c 0
252 396 m 0
 252 349.6083 278.8632 312 312 312 c 0
 345.1367 312 372 349.6083 372 396 c 0
 372 442.3916 345.1367 480 312 480 c 0
 278.8632 480 252 442.3916 252 396 c 0
540 396 m 0
 540 349.6083 566.8632 312 600 312 c 0
 633.1367 312 660 349.6083 660 396 c 0
 660 442.3916 633.1367 480 600 480 c 0
 566.8632 480 540 442.3916 540 396 c 0
EndSplineSet
Fore
Refer: 90 -1 S 1 0 0 1 0 72 0
Refer: 4 -1 N 0.25 0 0 0.3125 456 120 0
Colour: ffff
EndChar
